<?xml version="1.0" encoding="UTF-8"?>
<!DOCTYPE svg PUBLIC "-//W3C//DTD SVG 1.1//EN" "http://www.w3.org/Graphics/SVG/1.1/DTD/svg11.dtd">
<!-- Creator: CorelDRAW X5 -->
<svg xmlns="http://www.w3.org/2000/svg" xml:space="preserve" width="0.333331in" height="0.333331in" style="shape-rendering:geometricPrecision; text-rendering:geometricPrecision; image-rendering:optimizeQuality; fill-rule:evenodd; clip-rule:evenodd"
viewBox="0 0 333 333"
 xmlns:xlink="http://www.w3.org/1999/xlink">
 <defs>
  <style type="text/css">
   <![CDATA[
    .str0 {stroke:#ED3237;stroke-width:6.94488}
    .fil0 {fill:none}
    .fil17 {fill:#FEFEFE}
    .fil1 {fill:black}
    .fil10 {fill:#5391F8}
    .fil12 {fill:#61A3FA}
    .fil14 {fill:#80B6FC}
    .fil4 {fill:#826D27}
    .fil9 {fill:#9CC6FB}
    .fil6 {fill:#A48A31}
    .fil7 {fill:#BB9E38}
    .fil11 {fill:#BDD8FD}
    .fil3 {fill:#EB6835}
    .fil13 {fill:#EBAE9D}
    .fil2 {fill:#F5CE49}
    .fil15 {fill:#FBFBFB}
    .fil5 {fill:#FD9D7E}
    .fil8 {fill:#FECCBD}
    .fil16 {fill:url(#id0)}
   ]]>
  </style>
  <linearGradient id="id0" gradientUnits="userSpaceOnUse" x1="68.0551" y1="81.1299" x2="32.3622" y2="16.1457">
   <stop offset="0" style="stop-color:#ED3237"/>
   <stop offset="1" style="stop-color:#F58634"/>
  </linearGradient>
 </defs>
 <g id="Layer_x0020_1">
  <metadata id="CorelCorpID_0Corel-Layer"/>
  <g id="_341128296">
   <rect class="fil0" width="333" height="333"/>
   <g>
    <path class="fil1" d="M177 161c3,-1 4,-2 4,-5 0,-3 0,-6 0,-8l19 0c1,10 0,20 0,30 0,16 2,31 -9,43 -5,6 -16,13 -25,12 -2,1 -26,1 -29,0 0,-2 0,-15 0,-18 0,-2 0,-1 0,-2 8,0 27,1 32,-1 13,-5 11,-19 11,-33 0,-2 0,-4 0,-5 -1,-2 -2,-1 -3,-2 -3,1 -4,1 -4,6 0,3 0,6 0,9 0,7 2,17 -8,19 -3,1 -24,0 -28,0 0,-9 0,-8 -9,-8 -9,0 -9,-1 -9,8l-8 0 0 -24 4 0c0,3 3,6 5,7 2,2 5,3 9,2 13,-2 14,-23 -1,-25 -6,-1 -13,4 -13,9l-14 0c-3,-13 -24,-12 -25,3 0,10 11,17 20,11 3,-2 4,-4 5,-7l3 0 0 24 -7 0c0,-5 0,-8 -5,-8 -14,0 -13,-1 -13,8 -6,0 -31,0 -34,0 -12,2 -23,8 -30,18 -10,15 -8,22 -9,39 0,4 0,5 3,6 5,-1 3,-4 3,-12 0,-14 1,-24 12,-34 5,-5 12,-9 22,-9 9,-1 22,0 31,0l0 20c-10,0 -19,0 -28,0 -9,0 -15,5 -17,12 -2,5 -1,47 -1,56 0,1 1,1 -4,1 -4,0 -12,0 -15,0l0 -18c0,-2 -1,-3 -3,-3 -4,1 -3,4 -3,9 0,4 0,8 0,12 -8,0 -7,2 -7,9 0,9 0,9 7,9 0,4 -1,11 2,13 2,1 11,0 15,0 18,0 17,3 17,-14 7,0 6,0 6,-9 0,-7 1,-9 -6,-9 0,-17 0,-34 0,-50 0,-3 1,-7 4,-9 3,-2 5,-2 10,-2 8,0 17,0 25,0 0,8 -1,8 9,8 8,0 9,0 9,-8l22 0c0,9 0,8 9,8 8,0 9,0 9,-8 13,0 28,1 38,-2 15,-4 26,-17 30,-31 2,-10 1,-48 1,-60 3,0 5,0 6,-1 1,-2 1,-13 0,-14 -1,-2 -3,-2 -6,-2 0,-10 1,-13 -3,-14l-14 0 -13 0c-1,0 -1,0 -1,0 -3,1 -2,9 -2,13 -7,0 -7,-1 -7,9 0,9 0,9 7,9 0,6 -1,13 3,14z"/>
    <path class="fil2" d="M11 269l0 11c2,0 3,1 3,3 1,1 0,15 0,18 4,0 16,1 19,0 0,-9 -1,-51 1,-56 2,-7 8,-12 17,-12 9,0 19,0 28,0l0 -20c-9,0 -22,-1 -31,0 -9,1 -16,5 -22,9 -11,10 -12,20 -12,34 0,8 1,11 -3,12z"/>
    <path class="fil2" d="M177 161c0,3 -1,8 0,11 1,1 2,0 3,2 1,2 0,4 0,5 0,14 2,28 -11,33 -5,2 -24,1 -32,1l0 20c5,0 9,0 14,0 4,0 10,0 14,0 9,0 20,-6 25,-12 11,-12 9,-28 9,-43 0,-10 0,-21 0,-30l-19 0c0,3 0,6 0,8 0,3 0,5 -4,5z"/>
    <polygon class="fil2" points="119,233 119,213 97,213 97,233 "/>
    <polygon class="fil2" points="180,129 182,129 198,129 200,129 200,123 180,123 "/>
    <polygon class="fil2" points="14,326 34,326 34,320 14,319 "/>
    <path class="fil3" d="M126 210l0 26 4 0 0 5 -4 0c1,1 0,0 2,1 1,0 2,0 2,0 0,-3 0,-35 0,-36l0 6 -4 0z"/>
    <polygon class="fil3" points="86,236 90,236 90,210 86,210 "/>
    <path class="fil3" d="M125 174c-7,4 -2,13 4,10 7,-3 2,-13 -4,-10z"/>
    <path class="fil3" d="M87 174c-7,3 -2,13 4,10 7,-3 2,-13 -4,-10z"/>
    <polygon class="fil3" points="13,313 34,313 34,309 13,309 "/>
    <polygon class="fil3" points="179,140 200,140 200,136 179,136 "/>
    <path class="fil4" d="M166 233c-4,0 -10,0 -14,0 -5,0 -9,0 -14,0l0 -20c0,1 0,0 0,2 0,4 0,16 0,18 3,1 27,1 29,0z"/>
    <polygon class="fil5" points="86,210 90,210 90,205 86,205 "/>
    <polygon class="fil5" points="34,313 40,313 40,309 34,309 "/>
    <polygon class="fil5" points="13,313 13,309 7,309 7,313 "/>
    <polygon class="fil5" points="200,140 206,140 206,136 200,136 "/>
    <polygon class="fil5" points="179,140 179,136 173,136 173,140 "/>
    <polygon class="fil5" points="90,236 86,236 86,241 90,241 "/>
    <polygon class="fil5" points="126,210 130,211 130,205 126,205 "/>
    <polygon class="fil5" points="126,241 130,241 130,236 126,236 "/>
    <path class="fil6" d="M119 233l-22 0 0 -20c-1,2 0,19 0,20 1,0 19,0 21,0 2,0 1,0 1,0z"/>
    <path class="fil7" d="M34 301c-3,1 -15,0 -19,0 0,-3 1,-17 0,-18l0 18c4,0 11,0 15,0 5,0 4,0 4,-1z"/>
   </g>
   <g>
    <path class="fil1" d="M127 101c0,2 1,4 1,5 -16,11 -8,40 13,41 0,11 11,32 19,41 3,3 4,5 8,7 4,3 2,7 2,18 0,4 -3,4 -7,6 -4,1 -7,3 -10,4 -10,4 -42,16 -49,20 -3,2 -5,4 -7,7 -8,9 -16,38 -17,52 -1,7 -2,20 0,25 2,3 4,5 9,5l233 0c9,0 11,-9 10,-17 -1,-4 -1,-9 -1,-13 0,-4 -1,-8 -2,-12 -3,-15 -9,-35 -18,-44 -4,-4 -8,-6 -13,-8 -6,-3 -13,-5 -20,-8 -8,-3 -27,-10 -35,-14 -4,-2 -3,-9 -3,-19 0,-1 8,-9 10,-10 10,-10 20,-30 20,-41 11,0 22,-10 22,-21 0,-8 -1,-15 -8,-19 1,-8 2,-13 -9,-22 -6,-5 -4,-1 -6,-11 -2,-15 -8,-39 -14,-51 -3,-6 -5,-8 -11,-11 -21,-10 -57,-11 -78,0 -6,3 -9,5 -11,11 -6,13 -12,37 -14,51 -1,8 1,7 -5,11 -5,4 -10,10 -10,17z"/>
    <path class="fil8" d="M210 200c1,-1 3,-1 6,-3 21,-14 32,-35 34,-61 1,-7 1,-26 -2,-31 -3,-2 -18,-5 -23,-6 -9,-2 -18,-3 -27,-2 -9,1 -41,8 -47,12 -1,1 0,0 -1,1 -2,7 -1,28 0,34 5,30 27,59 59,56z"/>
    <path class="fil9" d="M246 70c0,-9 -4,-23 -7,-31 -2,-5 -3,-10 -5,-14 -3,-7 -4,-6 -10,-10 -14,-4 -47,-1 -56,8 -6,6 -15,41 -16,53 18,-5 20,-9 45,-11 18,-1 32,1 49,5z"/>
    <path class="fil10" d="M202 285l-10 0c-1,4 -2,5 -7,5 -10,0 -18,-4 -21,-14 -3,-10 0,-34 -1,-46l-8 3c0,22 4,49 -6,62 -10,14 -13,5 -13,28l31 0c0,-25 6,-20 39,-20 32,0 39,-5 39,20l31 0c0,-14 1,-15 -9,-24 -3,-3 -6,-8 -8,-13 -3,-9 -1,-41 -1,-53l-8 -3c-3,28 11,59 -24,59 -5,0 -9,0 -14,0 -6,0 -9,1 -10,-5z"/>
    <path class="fil11" d="M90 324l37 0c0,-9 -1,-16 4,-22 5,-6 9,-8 12,-14 3,-6 2,-16 2,-23 0,-7 1,-19 0,-26 -8,3 -17,7 -25,10 -10,4 -14,8 -19,17 -6,13 -14,43 -12,59z"/>
    <path class="fil11" d="M192 285l10 0c2,-10 28,1 36,-8 4,-4 2,-13 2,-20 0,-7 0,-15 0,-22l-11 -4c-13,8 -28,11 -43,2 -2,-1 -4,-3 -5,-4 -2,-2 -3,-3 -5,-5l-3 2c0,13 0,26 0,39 0,7 0,12 5,14 6,3 13,-2 14,6z"/>
    <path class="fil11" d="M309 324c-1,-18 -4,-34 -10,-50 -3,-9 -6,-14 -11,-18 -5,-4 -13,-8 -20,-10 0,8 0,16 0,24 0,25 5,17 15,32 4,6 3,13 3,21l23 0z"/>
    <path class="fil1" d="M188 28c-6,2 -7,6 -7,13 0,7 0,12 5,15 3,2 34,2 39,1 6,-2 7,-6 7,-13 0,-7 0,-12 -6,-15 -3,-2 -34,-2 -38,0z"/>
    <path class="fil9" d="M268 246c7,2 15,6 20,10 5,4 8,10 11,18 6,15 9,31 10,50l14 0c2,-16 -6,-46 -12,-59 -4,-9 -9,-13 -19,-17 -8,-3 -17,-7 -25,-10l0 9z"/>
    <path class="fil12" d="M259 97c2,1 1,0 1,0 -9,-14 -17,-12 -26,-19 -14,-5 -42,-3 -56,0 -11,3 -39,11 -41,24 19,-1 48,-22 93,-12 7,1 27,8 29,8z"/>
    <path class="fil13" d="M210 200c31,-3 49,-30 53,-58 1,-9 1,-20 0,-30 0,-4 0,-2 -1,-4 0,-1 -12,-4 -14,-5 3,6 3,24 2,31 -2,26 -12,47 -34,61 -3,2 -5,2 -6,3z"/>
    <path class="fil14" d="M246 70l15 5c-1,-11 -8,-49 -18,-55 -4,-3 -13,-5 -19,-6 5,4 7,3 10,10 2,5 3,9 5,14 3,8 7,22 7,31z"/>
    <path class="fil8" d="M219 226c-2,-6 -1,-10 -1,-16l-1 0c-6,-1 -12,1 -20,0 -7,-1 -11,-4 -16,-5 0,9 -1,9 3,14 9,11 26,15 36,8z"/>
    <path class="fil9" d="M177 324c15,0 43,0 58,0 0,-5 2,-10 -4,-10l-50 0c-5,0 -4,5 -4,10z"/>
    <polygon class="fil15" points="190,47 193,47 222,47 222,37 222,37 190,37 "/>
    <path class="fil10" d="M259 97c0,0 0,0 0,0l3 1c4,1 9,3 13,3 -1,-8 -10,-12 -17,-15 -7,-3 -17,-7 -25,-8 9,7 17,4 26,19 -1,1 1,1 -1,0z"/>
    <path class="fil13" d="M217 209l1 0c0,6 -1,11 1,16 5,-2 13,-9 13,-13 0,-3 0,-6 0,-9l-15 6z"/>
    <path class="fil8" d="M273 137c16,-5 13,-24 -1,-26 0,4 1,8 1,13 0,4 -1,10 0,13z"/>
    <path class="fil8" d="M140 137c0,-9 0,-16 0,-25 -14,3 -14,22 0,25z"/>
    <path class="fil9" d="M229 231l11 4 0 -9 -3 -2c-2,1 -2,2 -4,3 -2,2 -2,2 -4,3z"/>
   </g>
   <g>
    <path class="fil16" d="M50 15l-6 0c-3,-6 -4,-9 -12,-6 -10,5 -5,7 -4,13 -3,2 -4,4 -7,7 -7,-2 -9,-4 -12,4 -4,10 1,8 6,12l0 10c-6,2 -9,5 -6,12 4,9 5,6 13,4 1,1 2,2 3,3 1,1 2,2 4,3 -2,8 -4,9 5,12 7,2 10,0 11,-7l10 0c4,5 3,10 12,6 3,-1 5,-2 6,-5 1,-3 -1,-6 -2,-8 2,-2 5,-4 6,-7 8,2 9,4 13,-4 3,-8 0,-9 -7,-11l0 -10c6,-4 9,-3 5,-12 -4,-9 -5,-6 -13,-4 -2,-3 -4,-4 -7,-7 2,-7 4,-9 -4,-12 -11,-4 -8,1 -12,6l-4 0zm0 17c9,0 17,7 17,17 0,9 -7,17 -17,17 -9,0 -17,-7 -17,-17 0,-9 7,-17 17,-17z"/>
    <circle class="fil17 str0" cx="51" cy="49" r="17"/>
   </g>
  </g>
 </g>
</svg>
