<?xml version="1.0" encoding="UTF-8"?>
<!DOCTYPE svg PUBLIC "-//W3C//DTD SVG 1.1//EN" "http://www.w3.org/Graphics/SVG/1.1/DTD/svg11.dtd">
<!-- Creator: CorelDRAW X5 -->
<svg xmlns="http://www.w3.org/2000/svg" xml:space="preserve" width="0.333331in" height="0.333331in" style="shape-rendering:geometricPrecision; text-rendering:geometricPrecision; image-rendering:optimizeQuality; fill-rule:evenodd; clip-rule:evenodd"
viewBox="0 0 333 333"
 xmlns:xlink="http://www.w3.org/1999/xlink">
 <defs>
  <style type="text/css">
   <![CDATA[
    .str0 {stroke:#ED3237;stroke-width:6.94488}
    .fil0 {fill:none}
    .fil2 {fill:#201E1E}
    .fil9 {fill:#FEFEFE}
    .fil7 {fill:#212A41}
    .fil3 {fill:#6B686E}
    .fil5 {fill:#A6CFE0}
    .fil1 {fill:#C0C0C1}
    .fil6 {fill:#E0E0E0}
    .fil4 {fill:#EAAC47}
    .fil8 {fill:#F9AC2F}
    .fil10 {fill:url(#id0)}
   ]]>
  </style>
  <linearGradient id="id0" gradientUnits="userSpaceOnUse" x1="292.862" y1="115.878" x2="264.343" y2="64.3819">
   <stop offset="0" style="stop-color:#ED3237"/>
   <stop offset="1" style="stop-color:#F58634"/>
  </linearGradient>
 </defs>
 <g id="Layer_x0020_1">
  <metadata id="CorelCorpID_0Corel-Layer"/>
  <g id="_172626592">
   <rect class="fil0" width="333" height="333"/>
   <g>
    <g>
     <path class="fil1" d="M15 21c0,-5 1,-6 5,-5l1 5 0 291 -1 5 -5 0 -1 -5 0 -291zm69 0c0,-5 1,-8 3,-11l-66 0c-8,0 -11,3 -11,12l0 291c0,8 3,12 11,12 11,0 60,1 66,0 -2,-4 -3,-6 -3,-11l0 -291z"/>
     <path class="fil2" d="M89 293l178 0c0,35 3,31 -30,31l-117 0c-33,0 -30,4 -30,-31zm92 -36c4,-2 137,-2 142,0 1,4 1,25 0,29 -5,2 -137,2 -142,0 -1,-4 -1,-25 0,-29zm-6 30c-6,1 -82,1 -85,0 -1,-4 -1,-25 0,-29 4,-1 79,-2 86,0l0 30zm118 -49l19 0 0 12 -32 0c2,-3 11,-7 12,-12zm-147 0l40 0 0 12 -40 0 0 -12zm-34 0l29 0 0 12 -29 0 0 -12zm-23 13l0 -3 0 -10 17 0 0 12 -12 0 -5 0zm103 -13l29 0c1,0 10,9 10,9 -9,7 -38,0 -39,-9zm39 0l3 0 49 0 3 0c-5,6 -16,12 -27,12 -11,0 -23,-6 -27,-12zm72 -19l9 0 0 12 -14 0c1,-3 5,-9 5,-12zm-111 0c12,0 3,0 13,7 2,2 6,5 10,5 -8,1 -15,1 -23,0l0 -12zm-46 0l40 0 0 12 -40 0 0 -12zm-34 0l29 0 0 12 -29 0 0 -12zm-23 0l17 0 0 12 -17 0 0 -12zm202 12l-30 0c9,-1 16,-12 18,-12l18 0c-2,5 -4,8 -6,12zm-72 -12l19 0c4,5 9,12 17,12l-30 1c-2,-4 -5,-7 -6,-12zm27 0l3 0 19 0 3 0c-6,8 -19,8 -24,0zm-40 0l3 0 1 0 3 0 2 6c-4,-1 -7,-3 -9,-6zm-20 -6l-39 0c2,-10 9,-12 19,-12 11,0 17,2 20,12zm89 0c-5,2 -26,0 -33,0 -7,-2 -7,-42 15,-43 17,-1 26,26 17,43zm-134 0l-29 0c4,-14 14,-12 24,-12 4,0 5,1 8,2 -1,3 -3,6 -4,10zm70 0l-9 0c-5,-3 -5,-20 -3,-26 2,-8 8,-15 15,-17 -5,18 -7,22 -4,43zm-42 -18l-11 0c1,-12 7,-22 17,-24 -3,9 -5,14 -5,24zm66 18l-18 0c-6,-13 1,-37 6,-46 6,-10 18,-21 35,-21 37,0 49,50 41,68l-18 0c13,-45 -30,-66 -45,-33 -5,11 -4,21 -1,33zm-40 0c-6,0 -1,-3 -8,-11 -3,-3 -6,-5 -12,-7 2,-46 45,-56 56,-46 -2,3 -4,3 -6,6l-6 8c-2,3 -1,1 -5,2 -5,1 -10,4 -13,7 -11,11 -11,27 -7,42zm-60 -18c2,-46 45,-56 56,-46 -2,3 -4,4 -7,6 -1,1 -5,8 -6,8 -2,1 -23,2 -26,29 -1,6 -1,8 -6,5 -4,-2 -6,-2 -11,-2zm58 -123l74 0 0 68c-8,-1 -13,-1 -20,1 -12,4 -5,3 -16,0 -6,-2 -14,-2 -21,-1 -7,2 -8,5 -16,2l0 -70zm-63 123c-13,0 -21,6 -23,18l-17 0 0 -142 97 0 0 69c-33,-5 -55,22 -57,55zm-40 -129c0,-57 -4,-55 19,-55l140 0c23,0 19,-2 19,55l-178 0zm-6 -44l0 291c0,5 1,8 3,11 -7,1 -56,0 -66,0 -8,0 -11,-3 -11,-12l0 -291c0,-8 3,-12 11,-12l66 0c-2,4 -3,6 -3,11zm-80 -5l0 300c0,6 7,13 12,13l245 0c5,0 12,-7 12,-13l0 -24 49 0c4,0 8,-4 8,-8l0 -26c0,-8 -7,-8 -11,-8 0,-43 3,-37 -13,-37 1,-9 1,-5 1,-20 0,-17 -10,-34 -21,-44 -2,-2 -4,-3 -6,-4 -3,-2 -5,-2 -7,-4l0 -113c0,-7 1,-12 -2,-17 -2,-3 -6,-8 -11,-8l-245 0c-5,0 -12,7 -12,13z"/>
     <path class="fil3" d="M130 194c2,-33 24,-59 57,-55l0 -69 -97 0 0 142 17 0c2,-12 10,-18 23,-18z"/>
     <path class="fil4" d="M261 58l-4 0c-1,-4 -1,-17 -1,-23 0,-5 -2,-20 3,-20 4,0 3,12 3,20 0,6 1,18 -1,22zm-142 -36c4,-1 46,-1 50,0 1,4 1,25 0,29 -4,1 -46,1 -50,0 -1,-4 -1,-25 0,-29zm111 16c-2,-8 10,-10 11,-3 2,8 -10,10 -11,3zm-17 0c-2,-8 10,-10 11,-3 2,8 -10,10 -11,3zm-17 0c-2,-8 10,-10 11,-3 2,8 -10,10 -11,3zm-106 26l178 0c0,-57 4,-55 -19,-55l-140 0c-23,0 -19,-2 -19,55z"/>
     <path class="fil4" d="M89 293c0,35 -3,31 30,31l117 0c33,0 30,4 30,-31l-178 0z"/>
     <path class="fil3" d="M193 141c8,4 9,0 16,-2 7,-2 14,-1 21,1 12,4 4,4 16,0 8,-2 12,-2 20,-1l0 -68 -74 0 0 70z"/>
     <path class="fil5" d="M182 257c-1,4 -1,25 0,29 5,2 137,2 142,0 1,-4 1,-25 0,-29 -4,-2 -138,-1 -142,0z"/>
     <path class="fil6" d="M235 213c-3,-12 -4,-22 1,-33 15,-33 58,-12 45,33l18 0c8,-18 -4,-68 -41,-68 -17,0 -29,11 -35,21 -6,9 -13,34 -6,46l18 0z"/>
     <path class="fil5" d="M176 256c-6,-1 -82,-1 -86,0 -1,4 -1,25 0,29 4,1 79,2 85,0l0 -30z"/>
     <path class="fil6" d="M15 21l0 291 1 5 5 0 1 -5 0 -291 -1 -5c-4,-1 -5,0 -5,5z"/>
     <path class="fil6" d="M275 212c8,-16 0,-43 -17,-43 -22,1 -22,41 -15,43 7,0 28,1 33,0z"/>
     <path class="fil6" d="M195 213c-4,-15 -4,-31 7,-42 3,-3 8,-6 13,-7 4,-1 3,1 5,-2l6 -8c2,-3 4,-3 6,-6 -12,-10 -54,0 -56,46 6,2 9,4 12,7 7,8 2,12 8,11z"/>
     <path class="fil6" d="M135 194c5,0 7,0 11,2 5,3 5,1 6,-5 3,-27 24,-27 26,-29 1,0 5,-7 6,-8 2,-3 5,-4 7,-6 -12,-10 -54,0 -56,46z"/>
     <path class="fil7" d="M124 28l40 0 0 19 -40 0 0 -19zm-5 -5c-1,4 -1,25 0,29 4,1 46,1 50,0 1,-4 1,-25 0,-29 -4,-1 -46,-1 -50,0z"/>
     <polygon class="fil1" points="124,46 164,46 164,28 124,28 "/>
     <polygon class="fil8" points="147,231 187,231 187,219 147,219 "/>
     <polygon class="fil8" points="147,250 187,250 187,238 147,238 "/>
     <path class="fil6" d="M231 238c5,6 16,12 27,12 12,0 22,-6 27,-12l-3 0 -49 0 -3 0z"/>
     <path class="fil6" d="M211 213c-3,-21 -2,-24 4,-43 -8,2 -13,9 -15,17 -2,6 -3,23 3,26l9 0z"/>
     <path class="fil8" d="M186 213c-2,-10 -9,-12 -20,-12 -11,0 -17,2 -19,12l39 0z"/>
     <polygon class="fil8" points="112,231 141,231 141,219 112,219 "/>
     <polygon class="fil8" points="112,250 141,250 141,238 112,238 "/>
     <path class="fil6" d="M222 238l-29 0c1,9 31,16 39,9 0,0 -9,-9 -10,-9z"/>
     <path class="fil8" d="M141 213c1,-4 2,-7 4,-10 -3,-1 -4,-2 -8,-2 -10,0 -21,-1 -24,12l29 0z"/>
     <path class="fil6" d="M291 231c2,-4 4,-7 6,-12l-18 0c-1,0 -8,11 -18,12l30 0z"/>
     <path class="fil6" d="M239 219l-19 0c1,5 4,8 6,12l30 -1c-7,0 -13,-7 -17,-12z"/>
     <path class="fil9" d="M261 58c1,-4 1,-17 1,-22 0,-8 2,-20 -3,-20 -5,0 -3,15 -3,20 0,5 -1,18 1,23l4 0z"/>
     <path class="fil6" d="M170 194c1,-11 3,-15 5,-24 -10,2 -16,12 -17,24l11 0z"/>
     <polygon class="fil3" points="94,250 107,250 106,238 89,238 89,248 90,250 "/>
     <polygon class="fil3" points="89,231 107,231 106,219 89,219 "/>
     <path class="fil6" d="M192 231c8,0 15,0 23,0 -4,0 -8,-3 -10,-5 -10,-7 -1,-7 -13,-7l0 12z"/>
     <path class="fil7" d="M196 39c1,7 13,5 11,-3 -1,-7 -13,-6 -11,3z"/>
     <path class="fil7" d="M213 39c1,7 13,5 11,-3 -1,-7 -13,-6 -11,3z"/>
     <path class="fil7" d="M230 39c1,7 13,5 11,-3 -1,-7 -13,-6 -11,3z"/>
     <path class="fil6" d="M246 219c6,8 19,8 24,0l-3 0 -19 0 -3 0z"/>
     <path class="fil6" d="M206 219c2,2 5,5 9,6l-2 -6 -3 0 -1 0 -3 0z"/>
    </g>
    <g>
     <path class="fil10" d="M279 63l-5 0c-2,-5 -3,-8 -9,-5 -8,4 -4,5 -3,11 -2,1 -3,3 -5,5 -6,-1 -7,-3 -10,4 -3,8 1,6 5,9l0 8c-5,1 -7,4 -4,9 3,7 4,5 10,3 1,1 1,2 3,3 1,1 2,2 3,3 -1,6 -3,7 4,10 5,2 8,0 9,-5l8 0c3,4 2,8 9,4 2,-1 4,-2 5,-4 1,-3 -1,-4 -2,-7 2,-2 4,-3 5,-6 6,2 7,3 10,-3 2,-6 0,-7 -5,-9l0 -8c5,-3 7,-2 4,-9 -3,-7 -4,-5 -10,-3 -1,-2 -3,-3 -5,-5 2,-6 3,-7 -3,-10 -9,-3 -6,1 -9,5l-3 0zm0 14c7,0 13,6 13,13 0,7 -6,13 -13,13 -7,0 -13,-6 -13,-13 0,-7 6,-13 13,-13z"/>
     <circle class="fil9 str0" cx="279" cy="90" r="13"/>
    </g>
   </g>
  </g>
 </g>
</svg>
