<?xml version="1.0" encoding="UTF-8"?>
<!DOCTYPE svg PUBLIC "-//W3C//DTD SVG 1.1//EN" "http://www.w3.org/Graphics/SVG/1.1/DTD/svg11.dtd">
<!-- Creator: CorelDRAW X5 -->
<svg xmlns="http://www.w3.org/2000/svg" xml:space="preserve" width="0.333331in" height="0.333331in" style="shape-rendering:geometricPrecision; text-rendering:geometricPrecision; image-rendering:optimizeQuality; fill-rule:evenodd; clip-rule:evenodd"
viewBox="0 0 333 333"
 xmlns:xlink="http://www.w3.org/1999/xlink">
 <defs>
  <style type="text/css">
   <![CDATA[
    .str0 {stroke:#ED3237;stroke-width:6.94488}
    .fil0 {fill:#201E1E}
    .fil5 {fill:#3E4095}
    .fil9 {fill:#FEFEFE}
    .fil2 {fill:#4FBD96}
    .fil1 {fill:#61C3A5}
    .fil7 {fill:#AE8ABE}
    .fil3 {fill:#B1C9E9}
    .fil4 {fill:#C8D7EE}
    .fil6 {fill:#FECB4D}
    .fil8 {fill:url(#id0)}
   ]]>
  </style>
  <linearGradient id="id0" gradientUnits="userSpaceOnUse" x1="283.772" y1="133.079" x2="248.783" y2="69.9094">
   <stop offset="0" style="stop-color:#ED3237"/>
   <stop offset="1" style="stop-color:#F58634"/>
  </linearGradient>
 </defs>
 <g id="Layer_x0020_1">
  <metadata id="CorelCorpID_0Corel-Layer"/>
  <g id="_172626592">
   <g>
    <path class="fil0" d="M43 150c7,3 8,-1 11,-5 17,-20 33,-41 50,-62 2,-2 7,-9 9,-10 3,-1 81,0 93,0 8,0 14,-1 17,2 3,3 5,6 8,10 3,3 6,7 8,11 1,0 1,1 3,3l39 48c3,3 4,4 9,3 5,-6 -3,-12 -10,-20 -3,-3 -5,-6 -8,-9 -12,-15 -29,-37 -42,-52 -4,-5 -2,-13 -2,-23 0,-11 0,-23 0,-34 0,-6 -1,-8 -5,-8l-111 0c-11,0 -8,3 -8,40 0,4 1,22 -1,25l-58 71c-3,4 -6,6 -3,11z"/>
    <path class="fil1" d="M86 162c36,0 74,0 110,0 6,0 10,-1 11,5l10 0c1,-6 6,-5 12,-5 6,0 11,-1 12,5l10 0c1,-5 3,-5 8,-5 4,0 9,0 13,0 9,0 18,0 27,0 -1,-2 -3,-3 -4,-5 -1,-1 -1,-2 -2,-3 -1,-1 -1,-2 -2,-3 -5,1 -6,0 -9,-3l-39 -48c-2,-2 -2,-3 -3,-3 -3,-2 -9,0 -13,0 -27,3 -50,10 -75,21 -17,7 -53,30 -65,45z"/>
    <path class="fil2" d="M43 150c-3,4 -6,7 -9,12l52 0c12,-15 48,-37 65,-45 25,-11 48,-18 75,-21 4,0 10,-2 13,0 -2,-4 -6,-8 -8,-11 -3,-4 -5,-7 -8,-10 -3,-3 -9,-2 -17,-2 -13,0 -91,-1 -93,0 -2,1 -7,8 -9,10 -17,20 -33,42 -50,62 -3,4 -4,8 -11,5z"/>
    <path class="fil0" d="M299 162c-9,0 -18,0 -27,0 -4,0 -9,0 -13,0 -5,0 -7,1 -8,5 1,7 11,5 19,5 8,0 16,0 24,0 19,0 26,1 26,21 0,9 0,19 0,28 0,8 -6,15 -13,15 -2,1 -181,1 -208,1 -23,0 -47,1 -70,0 -11,0 -15,-8 -15,-20 0,-36 -5,-45 25,-45l156 0c6,0 11,1 12,-5 -1,-6 -5,-5 -11,-5 -36,0 -74,0 -110,0l-52 0c-7,0 -10,0 -15,2 -4,2 -7,4 -10,8 -4,5 -5,9 -6,15l0 35c0,4 1,8 3,12 3,7 11,13 21,14 6,1 130,0 140,0 10,0 133,1 140,0 9,-1 17,-6 21,-14 2,-5 3,-7 3,-13l0 -3c0,-4 0,-7 0,-11l0 -18c0,-10 -3,-19 -15,-25 -5,-2 -9,-2 -16,-2z"/>
    <path class="fil3" d="M307 236c-5,-1 -267,0 -271,0 2,-4 4,-15 7,-17 -1,-3 -3,-3 -4,-6 -8,-15 6,-31 21,-27 6,2 8,5 12,9 5,-1 8,-2 14,-3 3,-3 7,-7 15,-7 8,0 12,4 15,7 3,0 13,-1 14,0 2,-1 3,-3 6,-5 3,-2 6,-2 9,-2 8,0 12,4 15,8 1,-1 0,-1 2,-1 0,0 2,0 2,0l38 0c0,3 -1,23 1,26 0,-6 0,-11 0,-17 0,-19 -5,-16 35,-16l50 0c6,0 10,0 10,7l22 0c0,-20 -7,-21 -26,-21 -8,0 -16,0 -24,0 -7,0 -17,2 -19,-5l-10 0c-1,6 -6,5 -12,5 -6,0 -11,1 -12,-5l-10 0c-1,6 -6,5 -12,5l-156 0c-30,0 -25,9 -25,45 0,11 4,19 15,20 22,1 47,0 70,0 27,0 207,1 208,-1z"/>
    <path class="fil4" d="M71 195c3,10 2,16 -5,22 -2,2 -7,4 -12,4 -6,0 -8,-3 -12,-4 -3,2 -6,13 -7,17 4,0 267,-1 271,0 7,0 13,-7 13,-15 0,-9 0,-19 0,-28l-22 0c0,6 0,11 0,17 0,4 1,11 -3,13 -3,1 -69,1 -80,1 -6,0 -10,1 -12,-4 -2,-3 -1,-23 -1,-26l-38 0c0,0 -2,0 -2,0 -2,0 -1,0 -2,1 3,7 5,12 0,20 -3,4 -8,9 -16,9 -11,0 -19,-10 -18,-20 0,-4 2,-6 3,-9 -2,-1 -12,-1 -14,0 3,7 5,13 1,20 -3,5 -8,9 -16,9 -8,0 -13,-5 -16,-10 -4,-8 -2,-13 1,-20 -5,0 -9,2 -14,3z"/>
    <polygon class="fil1" points="115,63 218,63 218,14 115,14 "/>
    <path class="fil5" d="M203 219c2,5 6,4 12,4 11,0 77,1 80,-1 4,-2 3,-9 3,-13 0,-6 0,-11 0,-17 0,-7 -4,-7 -10,-7l-50 0c-39,0 -35,-3 -35,16 0,6 0,11 0,17z"/>
    <polygon class="fil6" points="213,213 287,213 287,196 213,196 "/>
    <path class="fil0" d="M129 193c0,3 -2,6 -3,9 -1,10 7,20 18,20 8,0 13,-4 16,-9 5,-8 2,-13 0,-20 -4,-4 -7,-8 -15,-8 -4,0 -7,1 -9,2 -3,2 -4,4 -6,5z"/>
    <path class="fil0" d="M84 193c-3,7 -5,12 -1,20 2,5 8,10 16,10 8,0 14,-5 16,-9 4,-7 2,-13 -1,-20 -3,-3 -7,-7 -15,-7 -7,0 -12,4 -15,7z"/>
    <path class="fil0" d="M43 219c3,1 6,4 12,4 5,0 9,-2 12,-4 7,-6 8,-12 5,-22 -3,-4 -5,-8 -12,-9 -15,-4 -29,12 -21,27 2,3 3,3 4,6z"/>
    <path class="fil0" d="M224 283c0,12 10,12 10,21 0,6 -10,9 -10,20 0,3 2,5 4,6l2 0c2,-1 4,-2 4,-6 1,-6 5,-5 8,-12 8,-15 -8,-24 -8,-27 0,-4 0,-5 4,-9 16,-16 -2,-25 -4,-14 -2,10 -10,8 -10,22z"/>
    <path class="fil0" d="M89 283c0,12 10,12 10,21 0,6 -10,9 -10,20 0,3 2,5 4,6l2 0c2,-1 4,-2 4,-6 1,-4 1,-4 4,-7 17,-17 -4,-30 -4,-33 0,-4 0,-5 4,-9 2,-3 3,-2 4,-6 7,-14 -7,-17 -9,-8 -1,4 -1,4 -4,7 -4,3 -7,8 -7,15z"/>
    <path class="fil0" d="M269 281l0 4c0,11 10,8 10,20 0,5 -10,5 -10,20 0,2 2,3 4,4l2 0c2,0 4,-2 4,-5 2,-12 10,-8 10,-23 0,-4 -2,-8 -4,-10 -1,-2 -2,-3 -4,-4 -9,-9 8,-12 8,-26 0,-6 -8,-8 -10,-3 -2,4 1,3 -4,9 -1,1 -2,2 -3,4 -2,2 -4,5 -4,9z"/>
    <path class="fil0" d="M134 281l0 4c0,11 10,8 10,20 0,5 -10,5 -10,20 0,2 2,4 5,4l0 0c7,0 3,-6 8,-12 5,-5 7,-7 7,-16 0,-10 -10,-13 -10,-20 0,-6 10,-9 10,-20 0,-6 -8,-8 -10,-3 -2,4 1,3 -4,9 -3,3 -7,8 -7,13z"/>
    <path class="fil0" d="M44 283c0,14 17,18 8,26 -2,2 -2,2 -4,4 -7,9 -4,16 0,17l2 0c2,0 3,-2 4,-5 2,-8 1,-2 7,-12 3,-4 3,-6 3,-12 0,-9 -10,-12 -10,-17l0 -3c0,-5 10,-6 10,-19 0,-4 -4,-6 -7,-4 -4,2 -2,5 -4,8 -4,6 -9,7 -9,17z"/>
    <path class="fil0" d="M179 283c0,14 17,18 8,26 -12,12 -8,20 -4,21l2 0c2,0 3,-2 4,-5 2,-8 1,-2 7,-12 3,-4 3,-6 3,-12 0,-9 -10,-12 -10,-17l0 -3c0,-5 10,-6 10,-19 0,-4 -4,-6 -7,-4 -4,2 -2,5 -4,8 -4,6 -9,7 -9,17z"/>
    <path class="fil5" d="M217 167c1,6 6,5 12,5 6,0 11,1 12,-5 -1,-6 -6,-5 -12,-5 -6,0 -11,-1 -12,5z"/>
    <path class="fil7" d="M96 196c-9,4 -5,19 6,15 9,-3 5,-19 -6,-15z"/>
    <path class="fil7" d="M141 196c-11,4 -3,19 6,15 9,-4 4,-19 -6,-15z"/>
    <path class="fil7" d="M51 197c-11,5 -3,19 6,15 9,-4 4,-20 -6,-15z"/>
   </g>
   <g>
    <path class="fil8" d="M266 69l-6 0c-3,-6 -4,-9 -11,-6 -10,5 -5,6 -4,13 -3,2 -4,4 -7,6 -7,-2 -9,-4 -12,4 -4,10 1,8 6,11l0 10c-6,2 -9,4 -5,11 4,9 5,6 12,4 1,1 2,2 3,3 1,1 2,2 4,3 -2,8 -4,9 5,12 6,2 10,0 11,-6l10 0c3,5 2,10 11,5 2,-1 5,-2 6,-5 1,-3 -1,-5 -2,-8 2,-2 5,-4 6,-7 8,2 9,4 12,-4 3,-8 0,-9 -6,-11l0 -10c6,-4 9,-3 5,-12 -4,-8 -5,-6 -13,-3 -2,-3 -4,-4 -7,-6 2,-7 4,-9 -4,-12 -10,-4 -8,1 -12,6l-4 0zm0 17c9,0 16,7 16,16 0,9 -7,16 -16,16 -9,0 -16,-7 -16,-16 0,-9 7,-16 16,-16z"/>
    <circle class="fil9 str0" cx="267" cy="102" r="16"/>
   </g>
  </g>
 </g>
</svg>
