<?xml version="1.0" encoding="utf-8"?>
<!-- Generator: Adobe Illustrator 16.0.0, SVG Export Plug-In . SVG Version: 6.00 Build 0)  -->
<!DOCTYPE svg PUBLIC "-//W3C//DTD SVG 1.1//EN" "http://www.w3.org/Graphics/SVG/1.1/DTD/svg11.dtd">
<svg version="1.1" id="Layer_1" xmlns="http://www.w3.org/2000/svg" xmlns:xlink="http://www.w3.org/1999/xlink" x="0px" y="0px"
	 width="100px" height="100px" viewBox="0 0 100 100" enable-background="new 0 0 100 100" xml:space="preserve">
<g>
	<g>
		<defs>
			<rect id="SVGID_1_" x="1.001" y="0.999" width="98" height="98"/>
		</defs>
		<clipPath id="SVGID_2_">
			<use xlink:href="#SVGID_1_"  overflow="visible"/>
		</clipPath>
		<path clip-path="url(#SVGID_2_)" fill-rule="evenodd" clip-rule="evenodd" d="M43.368,5.796c-2.277,1.228-3.796,0.915-8.071,4.326
			c-4.413,3.523-7.407,8.679-8.402,14.421c-0.188,1.089-0.359,0.843-1.013,1.478c-1.346,1.306-0.895,3.31-0.895,6.236
			c0,2.937,3.629,2.704,5.116,2.704v1.352c-5.734,1.362-5.71,11.006,0,12.361c0,7.838,3.419,9.597,8.207,12.304
			c2.045,1.154,1.649,0.574,1.649,3.92c0,1.338-1.296,1.485-2.281,1.928l-9.225,3.924c-2.869,1.263-3.145,1.19-5.222,3.368
			c-1.196,1.254-2.413,4.003-2.413,6.426V94.26H10.207c-2.662,0-2.871,3.004-1.328,3.865c0.409,0.229,1.222,0.383,1.896,0.383
			h78.451c3.228,0,3.329-2.697,2.125-3.71c-0.345-0.293-1.001-0.49-1.555-0.538V69.728c2.083,0,6.252,0.603,6.252-1.543v-11.59
			c0-1.436-1.401-1.933-2.843-1.933H77.288c-1.771,0-2.843,0.718-2.843,2.513v10.236c0,3.034,2.845,2.316,6.443,2.316V94.26h-1.704
			V81.897c0-5.534-2.213-8.892-6.853-10.786c-2.094-0.855-4.01-1.761-6.142-2.626l-4.688-1.981c-0.94-0.375-0.779-0.367-1.461-0.832
			v-3.863c0.789-0.186,2.773-1.562,3.667-2.058c1.313-0.73,2.338-1.364,3.301-2.429c1.816-2.008,2.888-4.839,2.888-8.647
			c3.327-0.79,6.063-6.296,3.066-10.079c-0.68-0.855-1.893-2.004-3.066-2.283v-1.352c5.158,0,5.116-0.907,5.116-5.987
			c0-1.932-0.433-3.234-2.273-3.67c0-3.41-2.923-9.552-5.445-12.22c-0.718-0.762-1.427-1.511-2.181-2.219
			c-0.792-0.75-1.579-1.25-2.494-1.9c-2.925-2.08-3.786-1.9-5.987-2.977c0-5.335-2.251-4.442-9.475-4.442
			C43.699,1.545,43.368,3.246,43.368,5.796"/>
		<path clip-path="url(#SVGID_2_)" fill-rule="evenodd" clip-rule="evenodd" d="M1.492,67.854c0.036,0.953,0.959,1.874,1.892,1.874
			h18.572c0.951,0,1.894-0.959,1.894-1.93V59.3c0-1.914-4.201-4.86-3.874-6.439c0.091-0.447,0.349-1.215,0.486-1.651
			c1.36-4.362,1.481-3.09-1.366-7.736c-1.272-2.082,0.584-2.271,0.584-5.421c0-0.953-1.679-3.29-2.161-4.183
			c-0.726-1.344,0.646-3.417,0.646-5.088c0-1.009-2.281-4.167-2.843-5.022c2.307-4.444,2.427-4.115,1.111-7.698
			c-1.151-3.126-1.073-2.249-0.489-5.769c0.467-2.803,0.441-2.289-0.839-3.89c-0.68-0.855-1.908-2.538-3.005-2.538H3.384
			c-0.933,0-1.856,0.921-1.892,1.874V67.854z"/>
		<path clip-path="url(#SVGID_2_)" fill-rule="evenodd" clip-rule="evenodd" fill="#FABA9E" d="M65.776,34.912l-31.594-0.078
			c-0.217,2.038,0.554,4.484-1.531,5.06c-1.088,0.303-1.559,0.15-2.281,0.939c-0.537,0.588-0.85,1.481-0.513,2.486
			c0.744,2.217,2.959,1.057,3.912,2.584c0.658,1.055,0.173,4.153,0.65,5.891c0.513,1.877,1.439,2.991,2.726,3.811
			c1.336,0.852,2.722,1.581,4.091,2.391c10.039,5.938,7.521,5.729,17.388,0.048c1.353-0.777,2.861-1.597,4.09-2.398
			c4.481-2.929,2.37-7.902,3.409-9.654c0.967-1.637,3.074-0.361,3.922-2.576c0.337-0.883,0.113-1.836-0.343-2.46
			c-0.536-0.726-1.135-0.792-2.226-1.029C65.218,39.436,65.922,37.139,65.776,34.912"/>
		<path clip-path="url(#SVGID_2_)" fill-rule="evenodd" clip-rule="evenodd" fill="#F5CF49" d="M28.994,29.552v1.203l0.73,0.052
			l41.312-0.008l-0.096-1.573c-1.849-0.259-1.877-1.172-2.092-3.061c-0.299-2.61-1.3-5.601-2.636-7.732
			c-2.134-3.404-4.646-5.796-8.347-7.529c-1.394-0.654-2.272-0.832-3.754-1.384c-1.744-0.648-1.523-1.754-1.523-3.798h-5.253
			c0.012,2.071,0.181,3.15-1.54,3.708c-4.123,1.338-7.016,2.363-10.019,5.82c-1.685,1.94-2.885,3.509-4.014,6.532
			c-1.16,3.108-1.025,5.612-1.445,6.444C29.826,29.197,29.301,28.759,28.994,29.552"/>
		<path clip-path="url(#SVGID_2_)" fill-rule="evenodd" clip-rule="evenodd" fill="#113356" d="M54.457,82.527
			c-0.762,0.313-2.043,0.248-2.632,0.013c0.475,2.44-3.459,3.254-3.832,0.165l-2.504-0.098c-0.237,2.265-1.699,2.1-3.824,2.096
			c-1.776-0.004-3.976,0.393-4.704-1.108c-0.542-1.115-0.153-9.832-0.269-11.892l-3.617,1.485l-0.02,21.146h33.811l0.03-21.172
			l-3.595-1.468c-0.305,2.444,0.317,10.234-0.235,11.728c-0.608,1.653-2.71,1.278-4.538,1.278
			C56.118,84.705,54.734,85,54.457,82.527"/>
		<path clip-path="url(#SVGID_2_)" fill-rule="evenodd" clip-rule="evenodd" fill="#DEDBE0" d="M5.476,51.142l10.416,0.004
			c0.646,0,1.055-1.851,1.192-2.435c0.55-2.297-3.75-3.258-2.259-7.884c0.953-2.957,0.971-1.986-0.907-5.206
			c-1.681-2.873-0.373-2.945,0.002-5.974c0.144-1.158-2.069-3.527-2.624-4.689c-0.897-1.886,1.011-3.846,1.625-5.401
			c0.536-1.356-1.302-4.163-1.476-5.725c-0.083-0.768,0.269-2.468,0.405-3.273c0.351-2.058,0.116-1.348-0.66-2.642L5.474,7.91
			L5.476,51.142z"/>
		<path clip-path="url(#SVGID_2_)" fill-rule="evenodd" clip-rule="evenodd" fill="#DEDBE0" d="M45.489,82.607l2.504,0.098
			c0.176-1.182,0.576-1.906,1.831-1.998c1.23-0.089,2.053,0.67,2.001,1.833c0.589,0.235,1.87,0.301,2.632-0.013
			c0.534-2.36,2.406-1.83,4.77-1.852l0.065-10.737c-0.624-0.263-1.022-0.58-1.523-0.755c-4.711,4.119-11.831,4.021-15.461-0.059
			c-0.586,0.228-1.525,0.601-1.641,1.183l0.008,10.372C43.019,80.68,45.07,80.223,45.489,82.607"/>
		<path clip-path="url(#SVGID_2_)" fill-rule="evenodd" clip-rule="evenodd" fill="#F26450" d="M5.476,65.654l14.395,0.008
			c0.12-6.035,0.413-4.919-1.754-7.857c-0.546-0.74-1.481-2.176-2.225-2.63L5.474,55.177L5.476,65.654z"/>
		<polygon clip-path="url(#SVGID_2_)" fill-rule="evenodd" clip-rule="evenodd" fill="#113356" points="78.459,65.658 
			79.183,65.708 92.126,65.7 92.126,58.831 78.459,58.833 		"/>
		<path clip-path="url(#SVGID_2_)" fill-rule="evenodd" clip-rule="evenodd" d="M9.07,83.828c0.548,0.837,1.916,2.052,2.7,2.851
			c0.788,0.802,1.972,2.365,3.363,2.365c0.832,0,1.896-1.083,1.896-1.931c0-1.417-1.535-2.628-2.323-3.429
			c-0.803-0.819-2.233-2.09-2.795-2.945c3.998-2.728,1.118-7.084-2.227-3.625l-4.263,4.349c-3.092,3.112-0.255,4.762,1.187,4.316
			C7.734,85.433,8.195,84.426,9.07,83.828"/>
		<path clip-path="url(#SVGID_2_)" fill-rule="evenodd" clip-rule="evenodd" d="M88.659,20.668c0,1.539,1.234,2.085,1.894,3.09
			c-0.728,1.109-4.927,4.606-4.927,5.603c0,1.3,0.154,2.51,2.084,2.51c1.302,0,5.503-4.649,5.876-5.214
			c1.036,0.706,1.491,2.124,3.03,2.124c1.294,0,1.864-1.097,1.895-2.409v-0.113c-0.052-0.815-6.636-7.523-7.39-7.523
			C89.883,18.736,88.659,19.133,88.659,20.668"/>
		<path clip-path="url(#SVGID_2_)" fill-rule="evenodd" clip-rule="evenodd" fill="#DEDBE0" d="M24.823,94.295l4.289,0.04V74.974
			c-1.473,0.229-2.684,1.411-3.286,2.374c-1.051,1.675-1.007,2.783-1.003,4.937C24.829,86.288,24.823,90.292,24.823,94.295"/>
		<path clip-path="url(#SVGID_2_)" fill-rule="evenodd" clip-rule="evenodd" fill="#DEDBE0" d="M70.838,94.339l4.283,0.01
			c0-3.957-0.006-7.915,0-11.873c0.006-4.119-0.991-6.533-4.274-7.54L70.838,94.339z"/>
		<path clip-path="url(#SVGID_2_)" fill-rule="evenodd" clip-rule="evenodd" d="M44.735,12.892
			c-10.95,2.678-12.447,15.45-7.614,13.576c1.537-0.594,1.28-2.973,2.052-4.671c2.087-4.604,6.849-4.729,7.732-5.632
			C48.131,14.912,47.228,12.282,44.735,12.892"/>
		<path clip-path="url(#SVGID_2_)" fill-rule="evenodd" clip-rule="evenodd" d="M47.371,50.165c-3.581,1.531,0.73,7.989,4.785,5.146
			c1.075-0.752,2.536-3.066,1.194-4.644C52.384,49.53,47.83,49.967,47.371,50.165"/>
		<path clip-path="url(#SVGID_2_)" fill-rule="evenodd" clip-rule="evenodd" d="M7.924,59.244c-1.673,0.865-1.456,3.218,0.241,3.683
			c0.839,0.229,5.168,0.213,5.902-0.086c1.667-0.676,1.503-3.248-0.293-3.721C12.787,58.863,8.677,58.854,7.924,59.244"/>
		<path clip-path="url(#SVGID_2_)" fill-rule="evenodd" clip-rule="evenodd" fill="#E79751" d="M85.685,94.331V69.728
			c-1.065,0.04-0.8-0.467-0.788,2.319c0.028,6.914-0.125,14.513-0.029,21.273C84.885,94.526,84.693,94.281,85.685,94.331"/>
		<path clip-path="url(#SVGID_2_)" fill-rule="evenodd" clip-rule="evenodd" fill="#FABA9E" d="M55.938,64.343
			c-2.071,0.72-2.783,2.113-5.938,2.131c-3.098,0.02-3.939-1.384-6.029-2.146c0.008,1.495,1.011,2.072,2.03,2.722
			c1.047,0.67,2.378,1.145,3.804,1.169C52.424,68.269,56.028,66.518,55.938,64.343"/>
		<path clip-path="url(#SVGID_2_)" fill-rule="evenodd" clip-rule="evenodd" d="M56.346,40.775
			c-1.192,0.616-1.719,1.607-1.121,2.955c0.393,0.881,1.625,1.595,2.855,1.031C60.67,43.569,58.943,39.432,56.346,40.775"/>
		<path clip-path="url(#SVGID_2_)" fill-rule="evenodd" clip-rule="evenodd" d="M41.922,40.755
			c-0.542,0.261-0.826,0.371-1.143,1.053c-0.81,1.741,0.907,3.734,2.748,2.997C46.245,43.716,44.608,39.461,41.922,40.755"/>
		<path clip-path="url(#SVGID_2_)" fill-rule="evenodd" clip-rule="evenodd" d="M1.492,96.271c0.052,2.225,2.259,2.518,3.26,1.7
			c1.47-1.198,0.535-3.712-1.178-3.712c-1.066,0-2.045,0.799-2.082,1.868V96.271z"/>
		<path clip-path="url(#SVGID_2_)" fill-rule="evenodd" clip-rule="evenodd" d="M96.239,98.316c3.38,0,2.528-4.057,0.188-4.057
			C93.917,94.26,93.783,98.316,96.239,98.316"/>
		<path clip-path="url(#SVGID_2_)" fill-rule="evenodd" clip-rule="evenodd" d="M47.993,82.705c0.373,3.089,4.307,2.275,3.832-0.165
			c0.052-1.163-0.771-1.922-2.001-1.833C48.569,80.799,48.169,81.523,47.993,82.705"/>
	</g>
</g>
</svg>
