<?xml version="1.0" encoding="UTF-8"?>
<!DOCTYPE svg PUBLIC "-//W3C//DTD SVG 1.1//EN" "http://www.w3.org/Graphics/SVG/1.1/DTD/svg11.dtd">
<!-- Creator: CorelDRAW X5 -->
<svg xmlns="http://www.w3.org/2000/svg" xml:space="preserve" width="0.333331in" height="0.333331in" style="shape-rendering:geometricPrecision; text-rendering:geometricPrecision; image-rendering:optimizeQuality; fill-rule:evenodd; clip-rule:evenodd"
viewBox="0 0 333 333"
 xmlns:xlink="http://www.w3.org/1999/xlink">
 <defs>
  <style type="text/css">
   <![CDATA[
    .fil0 {fill:none}
    .fil1 {fill:black}
    .fil3 {fill:#338CD5}
    .fil5 {fill:#62A9E6}
    .fil7 {fill:#78563E}
    .fil4 {fill:#DEDEDD}
    .fil6 {fill:#F98500}
    .fil2 {fill:#FEC69D}
   ]]>
  </style>
 </defs>
 <g id="Layer_x0020_1">
  <metadata id="CorelCorpID_0Corel-Layer"/>
  <g id="_175670680">
   <rect class="fil0" width="333" height="333"/>
   <g>
    <path class="fil1" d="M90 302c0,25 -30,23 -33,3 -1,-6 0,-57 0,-67l6 1c0,14 -2,22 8,22l20 0 0 42zm11 -41c0,0 0,0 0,0 0,0 0,0 0,0 8,-5 3,-8 5,-16 0,1 18,16 21,20 -1,1 -5,7 -6,9 -4,5 -18,24 -21,27l0 -38zm187 -72c8,1 13,1 20,5 18,10 13,36 13,61l-33 0 0 -66zm-214 49l22 0 0 11 -22 0 0 -11zm187 -53l16 2 0 51 -16 0 0 -53zm-66 11c2,2 3,4 5,6 11,10 26,12 39,4 8,-5 7,-7 11,-10l0 42 -55 0 0 -42zm-11 -11l0 52 -16 0 0 -49 16 -3zm-74 46c1,-3 2,-5 3,-9 1,-7 -2,-10 5,-17 9,-9 25,-12 39,-14l0 47c-9,0 -9,1 -13,6 -2,3 -7,8 -8,11 -3,-2 -10,-9 -13,-12 -4,-4 -7,-7 -13,-12zm-48 -48c3,-1 17,-1 21,-1 22,0 19,-3 19,25 0,6 2,16 -3,19 -2,1 -18,1 -21,1 -22,0 -19,3 -19,-25 0,-7 -2,-16 4,-19zm183 -15c1,8 0,16 -4,22 -15,17 -43,9 -39,-22 14,5 30,5 43,0zm-170 -8l22 0 0 11 -22 0 0 -11zm-60 -71l11 0c0,26 -5,22 30,22 12,0 24,0 36,0 1,3 2,5 5,7 5,4 10,4 16,3 0,8 -1,10 3,16 8,12 29,8 30,-7 1,-9 0,-21 0,-30l1 3c1,1 1,2 2,3 1,2 2,4 4,5 4,4 9,6 15,6 0,13 5,28 13,37 2,3 6,7 9,8 0,15 7,8 -37,18 -22,5 -22,3 -40,15 0,-8 1,-11 -3,-17 -3,-5 -2,-10 -2,-19 0,-11 -3,-9 -16,-9 0,-15 2,-21 -13,-23 -8,-1 -59,-9 -64,-9l0 -28zm264 -5c14,1 15,21 0,22l0 -22zm-110 22c-15,-1 -14,-21 0,-22l0 22zm20 -16c2,-1 0,-1 3,-1l-1 1c1,13 14,11 16,4 1,-3 0,-6 -1,-8 13,-1 22,-1 35,0 0,3 -2,5 0,9 3,7 17,8 16,-6l11 0c1,31 2,71 -44,71 -47,0 -44,-41 -44,-71l9 0zm-152 -12l0 -11 99 0c0,15 0,29 0,44 0,5 1,17 -2,20 -2,2 -6,2 -8,0 -4,-4 1,-25 -3,-30 -7,-7 -9,6 -11,8 -2,2 -6,2 -8,0 -3,-3 -2,-25 -2,-31l-11 0 0 22 1 0 -56 0 0 -22zm237 -11c-1,19 -23,7 -51,7 -18,0 -39,7 -45,3 -3,-2 -6,-5 -6,-11l101 0zm-100 -11c0,-18 -2,-27 9,-37 10,-9 25,-7 40,-7 15,0 30,-2 40,7 11,10 9,19 9,37l-99 0zm-6 275l0 -82 110 0 0 82 11 0 0 -66 33 0 0 66 11 0c0,-19 0,-39 0,-58 0,-19 1,-40 0,-59 -1,-15 -12,-28 -26,-33 -7,-2 -18,-3 -25,-4 -4,-1 -8,-1 -13,-2 -4,-1 -10,-2 -13,-2l0 -10c3,-1 7,-6 9,-8 8,-8 13,-25 13,-38 18,0 28,-20 18,-35 -4,-6 -7,-6 -12,-9 2,-8 0,-9 -1,-14 -1,-17 4,-28 -8,-43 -14,-18 -33,-15 -52,-15 -20,0 -39,-3 -52,15 -5,7 -8,14 -8,26 0,5 0,11 0,16 0,3 -1,4 -1,7 0,3 0,6 1,8 -15,7 -12,10 -16,16 0,-32 3,-34 -10,-34l-88 0c-26,0 -23,-4 -23,22 -26,0 -22,0 -22,37 0,7 2,11 7,13 3,1 65,10 70,10l0 12c-19,0 -16,-2 -16,22 -19,0 -16,20 -16,30l0 92c0,9 -1,13 2,20 7,17 28,24 46,11 4,-3 17,-20 21,-25l37 -49c1,-2 1,-2 4,-2l0 82 11 0z"/>
    <path class="fil2" d="M215 128l-5 0 0 -11c12,0 14,0 25,-5l6 9c-7,4 -16,6 -25,6zm-27 -37c-1,-1 1,-1 -2,-1l-9 0c0,29 -3,71 44,71 45,0 45,-40 44,-71l-11 0c1,14 -13,13 -16,6 -1,-3 0,-6 0,-9 -13,-1 -22,-1 -35,0 0,3 2,5 1,8 -2,7 -15,9 -16,-4z"/>
    <path class="fil3" d="M254 260l11 0 0 11 -11 0 0 -11zm-77 0l11 0 0 11 -11 0 0 -11zm-11 71l15 0c-3,-3 -4,-3 -4,-9 0,-45 -5,-41 20,-41l49 0c7,0 18,-2 19,5 1,5 0,18 0,24 0,12 2,16 -4,21l15 0 0 -82 -110 0 0 82z"/>
    <path class="fil3" d="M172 57l99 0c0,-18 2,-27 -9,-37 -10,-9 -25,-7 -40,-7 -15,0 -30,-2 -40,7 -11,10 -9,19 -9,37z"/>
    <path class="fil1" d="M188 293l66 0 0 27 -66 0 0 -27zm-7 38l81 0c5,-5 4,-9 4,-21 0,-6 1,-19 0,-24 -1,-7 -12,-5 -19,-5l-49 0c-25,0 -20,-5 -20,41 0,6 1,6 4,9z"/>
    <path class="fil3" d="M35 79l55 0 11 0c0,6 -1,28 2,31 2,2 6,2 8,0 2,-2 4,-15 11,-8 5,5 -1,25 3,30 2,2 6,2 8,0 3,-3 2,-15 2,-20 0,-15 0,-29 0,-44l-99 0 0 11z"/>
    <polygon class="fil2" points="287,332 320,332 320,266 287,266 "/>
    <path class="fil4" d="M109 232c6,5 9,8 13,12 3,3 10,10 13,12 1,-3 6,-8 8,-11 4,-5 4,-6 13,-6l0 -47c-14,2 -30,5 -39,14 -7,7 -5,10 -5,17 0,4 -2,6 -3,9z"/>
    <path class="fil2" d="M90 302l0 -42 -20 0c-10,0 -8,-8 -8,-22l-6 -1c0,11 -1,61 0,67 3,20 33,22 33,-3z"/>
    <path class="fil4" d="M287 255l33 0c0,-25 5,-51 -13,-61 -6,-4 -12,-4 -20,-5l0 66z"/>
    <path class="fil2" d="M60 184c-5,3 -4,12 -4,19 0,28 -3,25 19,25 4,0 19,0 21,-1 5,-2 3,-13 3,-19 0,-28 3,-25 -19,-25 -4,0 -18,-1 -21,1z"/>
    <polygon class="fil5" points="188,321 254,321 254,293 188,293 "/>
    <path class="fil4" d="M194 238l55 0 0 -42c-4,3 -3,5 -11,10 -13,8 -28,6 -39,-4 -2,-2 -3,-3 -5,-6l0 42z"/>
    <polygon class="fil4" points="90,79 35,79 35,101 90,101 90,101 "/>
    <path class="fil2" d="M243 169c-14,5 -30,5 -43,0 -4,31 24,39 39,22 5,-5 5,-14 4,-22z"/>
    <path class="fil3" d="M221 75c28,0 50,12 51,-7l-101 0c0,5 2,9 6,11 6,3 27,-3 45,-3z"/>
    <polygon class="fil3" points="260,238 276,238 276,187 260,185 "/>
    <polygon class="fil3" points="167,189 167,238 183,238 183,186 "/>
    <path class="fil2" d="M101 261l0 38c3,-3 17,-21 21,-27 1,-2 6,-8 6,-9 -3,-4 -21,-18 -21,-20 -2,8 3,11 -5,16 0,0 0,0 0,0 0,0 0,0 0,0z"/>
    <path class="fil1" d="M215 128c10,0 18,-2 25,-6l-6 -9c-10,5 -13,5 -25,5l0 11 5 0z"/>
    <polygon class="fil6" points="73,172 95,172 95,161 73,161 "/>
    <polygon class="fil6" points="73,249 95,249 95,238 73,238 "/>
    <path class="fil2" d="M166 106l0 -22c-14,1 -15,21 0,22z"/>
    <path class="fil2" d="M276 106c15,-1 14,-21 0,-22l0 22z"/>
    <polygon class="fil1" points="254,271 265,271 265,260 254,260 "/>
    <polygon class="fil1" points="178,271 188,271 188,260 178,260 "/>
    <path class="fil7" d="M188 91l1 -1c-2,0 -1,0 -3,1 3,0 1,0 2,1z"/>
   </g>
  </g>
 </g>
</svg>
