<?xml version="1.0" encoding="UTF-8"?>
<!DOCTYPE svg PUBLIC "-//W3C//DTD SVG 1.1//EN" "http://www.w3.org/Graphics/SVG/1.1/DTD/svg11.dtd">
<!-- Creator: CorelDRAW X5 -->
<svg xmlns="http://www.w3.org/2000/svg" xml:space="preserve" width="0.333331in" height="0.333331in" style="shape-rendering:geometricPrecision; text-rendering:geometricPrecision; image-rendering:optimizeQuality; fill-rule:evenodd; clip-rule:evenodd"
viewBox="0 0 333 333"
 xmlns:xlink="http://www.w3.org/1999/xlink">
 <defs>
  <style type="text/css">
   <![CDATA[
    .fil0 {fill:none}
    .fil1 {fill:black}
    .fil5 {fill:#5A5C5F}
    .fil7 {fill:#70D5F9}
    .fil12 {fill:#87D146}
    .fil11 {fill:#9BE5F8}
    .fil8 {fill:#B498F9}
    .fil6 {fill:#C7D7E5}
    .fil2 {fill:#ECF2FB}
    .fil10 {fill:#F4C84C}
    .fil9 {fill:#F88EA5}
    .fil3 {fill:#F8CFB3}
    .fil4 {fill:#FC647E}
   ]]>
  </style>
 </defs>
 <g id="Layer_x0020_1">
  <metadata id="CorelCorpID_0Corel-Layer"/>
  <g id="_339701280">
   <rect class="fil0" width="333" height="333"/>
   <g>
    <path class="fil1" d="M65 98c-6,2 -18,21 -3,35 7,7 9,6 17,8 0,3 2,10 3,12 4,9 10,17 18,22 5,3 4,1 4,9 0,9 -8,11 -14,15 -12,6 -37,10 -45,13 -18,7 -13,27 -15,43 0,2 0,5 0,7l-1 21c0,3 -1,3 -1,6l-2 35c1,4 4,7 7,7l223 0c11,0 18,-14 13,-20 -2,-2 -3,-2 -5,-3l0 -89c0,-5 1,-10 -1,-14 -2,-4 -5,-5 -11,-5l-74 0c-5,0 -7,-2 -11,-4 -9,-4 -12,-6 -12,-19 0,-2 8,-5 13,-11 8,-9 10,-15 13,-28 6,-1 10,-1 16,-7 11,-11 8,-30 -2,-36 0,-11 1,-23 -2,-32 -2,-7 -5,-11 -12,-13 -4,-1 -3,-1 -3,-6 -4,-32 -63,-32 -87,-15 -15,11 -24,28 -24,47 0,6 0,12 0,18z"/>
    <path class="fil2" d="M121 212l0 92c0,4 0,4 4,4l128 0c4,0 4,0 4,-4l0 -92c0,-6 -3,-4 -18,-4l-114 0c-4,0 -4,1 -4,4z"/>
    <path class="fil3" d="M85 94l0 37c0,25 19,46 44,46 26,0 45,-20 45,-46l0 -37c0,-6 -1,-10 -4,-14 -9,-12 -11,8 -40,8 -11,0 -21,-4 -28,-9 -5,-3 -8,-5 -12,1 -3,4 -4,9 -4,14z"/>
    <path class="fil4" d="M34 288l26 0c0,-7 -1,-32 1,-36 2,-1 3,-1 5,0 2,5 1,62 1,74l44 0c-1,-3 -3,-6 -2,-10 1,-5 3,-5 7,-7l0 -72c-8,-4 -13,-5 -19,-11 -5,-5 -9,-10 -13,-17 -8,2 -17,4 -26,6 -10,2 -17,4 -20,12 -2,6 -4,50 -4,61z"/>
    <path class="fil1" d="M218 116l0 61c0,8 5,14 12,14l66 0c6,0 4,-14 4,-19 0,-7 -9,-6 -17,-6 -7,0 -15,0 -22,0 5,-7 25,-23 25,-28 0,-4 -12,-16 -15,-16 -6,0 -22,21 -28,25 0,-8 0,-16 0,-24 0,-16 0,-15 -16,-15 -6,0 -10,2 -10,8z"/>
    <path class="fil5" d="M72 94l7 -1c0,-11 7,-26 19,-23 6,1 12,11 32,12 6,0 12,-1 18,-3 5,-2 10,-7 14,-8 12,-3 19,11 20,23l7 1c1,-7 0,-22 -2,-28 -5,-14 -12,0 -14,-17 -3,-29 -56,-26 -77,-12 -4,3 -5,4 -9,8 -13,13 -14,27 -14,49z"/>
    <path class="fil1" d="M218 25c0,9 -2,18 8,18l74 0c9,0 8,-9 8,-18 0,-5 -3,-8 -8,-8l-74 0c-5,0 -8,3 -8,8z"/>
    <path class="fil1" d="M218 56l0 34c0,2 1,5 3,6 4,2 18,2 23,2 5,0 9,-2 9,-6l0 -35c0,-3 -3,-6 -6,-6l-22 0c-4,0 -6,3 -6,6z"/>
    <path class="fil6" d="M264 315l-149 0c0,7 4,10 11,10 41,1 86,0 127,0 7,0 11,-3 12,-10z"/>
    <path class="fil3" d="M101 201c3,5 8,13 14,14 0,-13 3,-13 16,-13 10,0 20,0 29,0 -3,-3 -5,-3 -8,-8 -2,-4 -3,-8 -3,-13 -11,3 -16,5 -29,2 -3,0 -7,-2 -9,-2 0,5 0,8 -3,12 -2,4 -5,4 -7,8z"/>
    <polygon class="fil7" points="225,36 301,36 301,24 225,24 "/>
    <path class="fil3" d="M60 325l0 -31 -27 0c0,4 -2,27 -1,29 1,3 7,2 13,2 5,0 11,0 15,0z"/>
    <polygon class="fil8" points="225,90 247,90 247,56 225,56 "/>
    <path class="fil3" d="M180 133c9,0 17,-8 17,-17 0,-9 -7,-17 -16,-17l0 33z"/>
    <path class="fil3" d="M78 133l0 -34c-22,1 -22,32 0,34z"/>
    <path class="fil1" d="M260 53c1,3 2,4 6,4l33 0c8,0 7,-7 2,-7l-38 0c-2,0 -2,2 -3,3z"/>
    <path class="fil1" d="M260 80c1,3 2,4 6,4l33 0c8,0 7,-7 2,-7l-38 0c-2,0 -2,2 -3,3z"/>
    <path class="fil1" d="M260 66c1,3 2,4 6,4l33 0c8,0 7,-7 2,-7l-38 0c-2,0 -2,2 -3,3z"/>
    <path class="fil1" d="M260 93c1,3 2,4 6,4l33 0c8,0 7,-7 2,-7l-38 0c-2,0 -2,2 -3,3z"/>
    <path class="fil4" d="M279 261l0 2c-11,0 -7,9 -3,9l3 0c0,3 0,7 4,7 5,0 4,-4 4,-7 4,0 7,0 7,-5 0,-3 -4,-4 -7,-4 0,-5 0,-6 -5,-6 -2,0 -3,2 -3,5z"/>
    <path class="fil1" d="M145 143c-6,-1 -7,8 -19,5 -4,-1 -6,-4 -8,-5 -9,-3 -3,15 16,11 3,-1 15,-5 11,-11z"/>
    <path class="fil9" d="M89 207c3,8 15,21 25,22l0 -6c-4,-4 -8,-3 -16,-13 -2,-2 -3,-4 -4,-6 -2,1 -4,2 -5,3z"/>
    <path class="fil10" d="M61 14c6,0 11,5 12,11l1 0c0,-5 6,-11 11,-11l0 -1c-5,0 -10,-6 -11,-11l-1 0c0,3 -2,6 -4,8 -4,3 -6,2 -8,5z"/>
    <path class="fil2" d="M240 185l0 -12c-6,0 -15,-1 -15,6 0,8 8,6 15,6z"/>
    <polygon class="fil11" points="281,185 294,185 294,173 281,173 "/>
    <path class="fil4" d="M225 127l12 0 0 -12c-3,-1 -9,-1 -12,0l0 12z"/>
    <path class="fil10" d="M263 138l8 8 9 -9 -8 -8c-2,2 -7,6 -9,9z"/>
    <path class="fil1" d="M177 265c3,2 13,1 19,1 6,0 7,-6 0,-6 -14,0 -21,-2 -19,5z"/>
    <polygon class="fil11" points="264,185 275,185 275,173 264,173 "/>
    <polygon class="fil4" points="225,145 237,145 237,134 225,134 "/>
    <polygon class="fil11" points="246,184 257,185 257,173 246,173 "/>
    <path class="fil10" d="M250 151l8 8 8 -8 -8 -8c-2,2 -6,5 -8,7z"/>
    <path class="fil1" d="M149 113c-2,1 -2,0 -3,3 -1,2 -1,4 0,6 1,3 5,5 9,3 6,-3 3,-15 -6,-11z"/>
    <path class="fil1" d="M106 113c-8,4 -2,15 5,11 7,-3 3,-16 -5,-11z"/>
    <path class="fil10" d="M235 166l14 0c3,0 3,-1 4,-2 -1,-2 -6,-7 -8,-8 -2,1 -9,8 -10,10z"/>
    <path class="fil4" d="M225 166c3,-2 5,-5 7,-7 2,-2 5,-4 5,-8l-2 0 -10 0 0 15z"/>
    <path class="fil7" d="M289 118c2,2 7,2 8,8l1 0c0,-3 1,-3 3,-5 2,-2 4,-1 5,-3 -4,0 -7,-3 -8,-8l-1 0c0,5 -4,7 -8,8z"/>
    <path class="fil10" d="M272 230c0,5 9,7 9,0 0,-7 -9,-5 -9,0z"/>
    <path class="fil12" d="M47 45c0,7 9,6 9,1 0,-7 -9,-5 -9,-1z"/>
   </g>
  </g>
 </g>
</svg>
