<?xml version="1.0" encoding="UTF-8"?>
<!DOCTYPE svg PUBLIC "-//W3C//DTD SVG 1.1//EN" "http://www.w3.org/Graphics/SVG/1.1/DTD/svg11.dtd">
<!-- Creator: CorelDRAW X5 -->
<svg xmlns="http://www.w3.org/2000/svg" xml:space="preserve" width="0.333331in" height="0.333331in" style="shape-rendering:geometricPrecision; text-rendering:geometricPrecision; image-rendering:optimizeQuality; fill-rule:evenodd; clip-rule:evenodd"
viewBox="0 0 333 333"
 xmlns:xlink="http://www.w3.org/1999/xlink">
 <defs>
  <style type="text/css">
   <![CDATA[
    .fil0 {fill:none}
    .fil1 {fill:black}
    .fil5 {fill:#AAB2BD}
    .fil3 {fill:#B17946}
    .fil6 {fill:#CCD1D9}
    .fil7 {fill:#ED7183}
    .fil4 {fill:#EFCFB3}
    .fil2 {fill:#FAD670}
   ]]>
  </style>
 </defs>
 <g id="Layer_x0020_1">
  <metadata id="CorelCorpID_0Corel-Layer"/>
  <g id="_341122848">
   <rect class="fil0" width="333" height="333"/>
   <g>
    <path class="fil1" d="M129 300c-19,0 -35,-4 -50,-11 -12,-6 -18,-11 -27,-18 -3,-3 -4,-5 -7,-8 0,18 0,40 0,58l85 0 0 -21zm53 -95l-10 0c-4,14 -18,27 -33,30l0 12c24,-1 42,-18 43,-42zm-53 41c0,-23 -5,-34 -18,-44 -11,-9 -25,-8 -39,-8 -6,0 -10,-1 -14,2 -4,3 -10,11 -12,18 -6,16 -1,35 10,47 4,4 13,10 18,13 28,17 69,21 100,5 25,-12 47,-38 50,-75l-32 0c-1,30 -24,54 -56,53 -20,-1 -35,-11 -44,-24 -5,-8 -7,-18 -23,-18l0 -11c34,1 22,33 59,41zm53 -62c-5,0 -4,0 -4,2l-2 8 6 0 0 -11zm43 11c0,-10 3,-32 -16,-32 -19,0 -16,22 -16,32l32 0zm-57 -14c-4,-1 -7,-8 -7,-11l0 -44 -11 0 0 13c0,18 -17,34 -35,34l-8 0 0 15c5,0 16,10 19,14 4,5 11,16 11,23 2,-1 4,-1 6,-2 2,-1 4,-2 6,-4 8,-6 12,-14 14,-23 1,-4 3,-11 3,-15zm153 -80l-11 2 0 3 0 63 0 3 11 2 0 -72zm-21 4l-32 5 0 55 32 5 0 -65zm-43 48l-21 0 0 11 21 0 0 -11zm-53 -1c0,-14 0,-28 0,-42 0,-10 -2,-10 -11,-10 -25,0 -21,-6 -21,43 0,29 -3,31 11,31 1,-6 4,-10 8,-14 2,-2 3,-3 6,-4 1,-1 2,-1 4,-2 3,-1 2,0 3,-2zm21 -42l-11 0 0 40 0 3c6,1 7,3 11,5l0 -3 0 -45zm32 21l-21 0 0 11 21 0 0 -11zm-117 5l-10 0c2,4 4,8 8,9l1 -9zm117 -26l-21 0 0 11 21 0 0 -11zm-117 -42l-34 0c-12,0 -17,3 -24,8 -3,2 -5,5 -8,8 -1,2 -4,9 -6,10 -10,0 -19,-2 -23,6 -4,8 3,15 12,15l9 0 0 69c16,0 17,-1 32,1l0 -16c-5,-2 -13,-10 -15,-15 4,-1 5,-4 9,-5 3,6 9,11 18,13 11,2 17,-3 23,-7 -2,-3 -6,-4 -10,-10 -4,-6 -4,-11 -4,-19l21 0 0 -11c7,0 14,1 21,0 2,-9 -21,-13 -21,-37l0 -11zm-78 16c1,-4 7,-11 10,-13 4,-4 8,-6 14,-9 14,-6 46,-4 65,-4 7,0 14,0 16,-7 2,-13 -7,-27 -11,-34 -7,2 -11,5 -20,7 -19,4 -57,-1 -76,3 -26,5 -46,28 -46,58 0,11 0,18 4,29 8,21 19,28 39,40l0 -28c-21,-1 -30,-25 -12,-39 5,-4 12,-3 19,-4zm115 -38l0 5c0,8 -9,17 -17,17l-9 0c0,9 -1,16 4,23 2,2 6,6 8,8 2,-5 7,-9 13,-9l24 0c3,0 7,2 9,4 1,1 2,2 3,4 1,2 1,3 3,3 13,0 42,1 53,-1 3,-1 6,-1 10,-2l40 -7c8,-1 13,4 13,9l0 75c0,5 -7,9 -10,9 -4,0 -11,-2 -16,-2 -6,-1 -43,-8 -47,-8l-23 0c0,27 2,46 -10,70 -4,8 -8,15 -14,22l-6 6c-1,1 -2,1 -3,3 -16,14 -31,22 -52,25 -2,0 -8,1 -11,1l0 32 -106 0 0 -104c0,-9 4,-19 7,-25 2,-3 4,-6 7,-9 1,-1 1,-1 2,-2 7,-7 6,1 6,-24 0,-2 -5,-5 -9,-7 -17,-10 -31,-20 -39,-40 -7,-17 -6,-24 -6,-42 0,-21 14,-44 32,-54 36,-21 70,-4 104,-13 10,-3 12,-6 19,-10 8,12 20,22 20,44z"/>
    <path class="fil2" d="M129 246c-36,-8 -24,-40 -59,-41l0 11c15,1 17,11 23,18 9,13 24,23 44,24 31,1 55,-23 56,-53l32 0c-2,37 -25,63 -50,75 -31,16 -72,11 -100,-5 -5,-3 -14,-9 -18,-13 -11,-12 -16,-31 -10,-47 3,-7 8,-15 12,-18 4,-3 7,-2 14,-2 14,0 27,-1 39,8 13,10 18,21 18,44z"/>
    <path class="fil3" d="M62 83c-7,0 -14,0 -19,4 -18,14 -9,38 12,39l0 28c-20,-12 -31,-19 -39,-40 -4,-11 -4,-18 -4,-29 0,-31 21,-53 46,-58 20,-4 57,1 76,-3 9,-2 13,-5 20,-7 5,7 14,21 11,34 -1,7 -8,7 -16,7 -19,0 -51,-2 -65,4 -6,3 -10,5 -14,9 -2,2 -8,9 -10,13z"/>
    <path class="fil4" d="M129 83l-11 0 0 21 11 0 0 -21zm11 -5c0,24 23,28 21,37 -7,1 -14,0 -21,0l0 11 -21 0c0,8 0,13 4,19 4,7 8,7 10,10 -6,4 -12,9 -23,7 -9,-2 -15,-7 -18,-13 -4,1 -6,4 -9,5 2,5 10,13 15,15l0 16c-15,-1 -16,-1 -32,-1l0 -69 -9 0c-8,0 -16,-6 -12,-15 4,-8 13,-6 23,-6 2,-1 4,-8 6,-10 2,-4 4,-6 8,-8 7,-5 13,-8 24,-8l34 0 0 11z"/>
    <path class="fil2" d="M129 321l-85 0c0,-18 0,-41 0,-58 3,3 4,5 7,8 9,8 15,13 27,18 15,7 31,11 50,11l0 21z"/>
    <path class="fil5" d="M204 151c-1,2 0,1 -3,2 -1,1 -2,1 -4,2 -3,1 -4,3 -6,4 -4,3 -6,7 -8,14 -14,0 -11,-2 -11,-31 0,-49 -5,-43 21,-43 10,0 11,0 11,10 0,14 0,28 0,42z"/>
    <polygon class="fil6" points="300,168 268,163 268,109 300,103 "/>
    <path class="fil4" d="M225 194l-32 0c0,-9 -3,-32 16,-32 19,0 16,22 16,32z"/>
    <polygon class="fil5" points="321,172 310,170 310,168 310,104 310,102 321,100 "/>
    <path class="fil2" d="M140 247l0 -12c15,-3 29,-16 33,-30l10 0c-1,24 -18,42 -43,42z"/>
    <path class="fil6" d="M225 154l0 3c-4,-2 -5,-3 -11,-5l0 -3 0 -40 11 0 0 45z"/>
    <polygon class="fil4" points="257,162 236,162 236,152 257,152 "/>
    <polygon class="fil4" points="257,141 236,141 236,131 257,131 "/>
    <polygon class="fil4" points="257,120 236,120 236,109 257,109 "/>
    <polygon class="fil1" points="129,104 119,104 119,83 129,83 "/>
    <path class="fil7" d="M139 145c-5,-1 -7,-4 -8,-9l10 0 -1 9z"/>
    <path class="fil4" d="M183 194l-6 0 2 -8c1,-2 -1,-2 4,-2l0 11z"/>
   </g>
  </g>
 </g>
</svg>
