<?xml version="1.0" encoding="UTF-8"?>
<!DOCTYPE svg PUBLIC "-//W3C//DTD SVG 1.1//EN" "http://www.w3.org/Graphics/SVG/1.1/DTD/svg11.dtd">
<!-- Creator: CorelDRAW X5 -->
<svg xmlns="http://www.w3.org/2000/svg" xml:space="preserve" width="0.333331in" height="0.333331in" style="shape-rendering:geometricPrecision; text-rendering:geometricPrecision; image-rendering:optimizeQuality; fill-rule:evenodd; clip-rule:evenodd"
viewBox="0 0 333 333"
 xmlns:xlink="http://www.w3.org/1999/xlink">
 <defs>
  <style type="text/css">
   <![CDATA[
    .str0 {stroke:#ED3237;stroke-width:6.94488}
    .fil0 {fill:none}
    .fil1 {fill:black}
    .fil2 {fill:#4CBAE9}
    .fil3 {fill:#56545B}
    .fil4 {fill:#EFE5DD}
    .fil5 {fill:url(#id0)}
   ]]>
  </style>
  <linearGradient id="id0" gradientUnits="userSpaceOnUse" x1="292.457" y1="279.429" x2="254.252" y2="210.449">
   <stop offset="0" style="stop-color:#ED3237"/>
   <stop offset="1" style="stop-color:#F58634"/>
  </linearGradient>
 </defs>
 <g id="Layer_x0020_1">
  <metadata id="CorelCorpID_0Corel-Layer"/>
  <g id="_173207896">
   <rect class="fil0" width="333" height="333"/>
   <rect class="fil0" width="333" height="333"/>
   <path class="fil1" d="M11 88c0,9 4,15 9,20 5,5 12,9 19,9 0,21 -1,41 4,62 4,15 11,30 20,43 6,8 15,18 22,24 3,2 6,5 9,7 19,13 45,23 70,23 22,0 41,-3 58,-12 7,-4 13,-7 20,-11l9 -7c20,-15 36,-43 42,-67 5,-21 4,-40 4,-62 4,0 9,-2 11,-3 4,-2 5,-3 8,-6 4,-4 9,-11 9,-20l0 -39c0,-2 -3,-5 -5,-5l-302 0c-2,0 -5,3 -5,5l0 39z"/>
   <path class="fil2" d="M51 146c0,27 8,49 21,68 6,8 10,13 17,19l10 8c1,-4 0,-37 0,-44 1,-71 90,-93 124,-36 17,27 7,64 10,80l9 -8c2,-2 3,-3 5,-4 21,-20 34,-52 34,-83l1 -29 -233 0 0 29z"/>
   <path class="fil3" d="M23 85c0,13 8,20 20,20l248 0c10,0 16,-5 19,-12 -29,0 -61,0 -90,0 -5,0 -9,0 -10,-5 -1,-5 3,-7 8,-7l93 0 0 -24 -288 0 0 29z"/>
   <path class="fil4" d="M112 249c2,4 19,9 24,10 19,6 42,6 61,0 5,-1 22,-7 24,-10 0,-13 0,-27 0,-40 0,-14 0,-24 -5,-36 -20,-42 -79,-42 -99,0 -6,12 -5,21 -5,35 0,14 0,27 0,41z"/>
   <path class="fil1" d="M161 154c-22,3 -40,22 -37,48 3,21 23,40 48,37 21,-3 40,-23 37,-48 -3,-21 -23,-40 -48,-37z"/>
   <path class="fil2" d="M163 166c-15,2 -29,16 -26,34 2,15 16,29 34,26 15,-2 29,-16 26,-34 -2,-15 -16,-29 -34,-26z"/>
   <path class="fil1" d="M163 178c-24,5 -16,41 7,36 9,-2 16,-11 14,-22 -2,-9 -10,-16 -21,-14z"/>
   <path class="fil4" d="M165 191c-8,3 -4,14 4,11 7,-2 4,-14 -4,-11z"/>
   <path class="fil1" d="M189 81c-2,1 -2,0 -3,3 -2,5 3,10 8,8 7,-2 3,-14 -4,-11z"/>
   <path class="fil5" d="M273 209l-6 0c-3,-6 -4,-10 -12,-6 -11,5 -6,7 -4,14 -3,2 -4,4 -7,7 -8,-2 -10,-5 -13,5 -4,11 1,8 7,12l0 11c-7,2 -9,5 -6,12 5,10 6,6 13,4 1,1 2,2 3,4 1,1 3,2 4,3 -2,8 -4,10 5,13 7,3 11,0 12,-7l11 0c4,5 3,10 13,6 3,-1 5,-2 6,-5 1,-4 -1,-6 -2,-9 2,-2 5,-4 7,-8 9,2 10,5 14,-5 3,-8 0,-10 -7,-12l0 -11c6,-4 10,-3 6,-13 -4,-9 -6,-6 -14,-4 -2,-3 -4,-5 -7,-7 2,-7 5,-10 -4,-13 -11,-4 -9,1 -13,7l-4 0zm0 19c10,0 18,8 18,18 0,10 -8,18 -18,18 -10,0 -18,-8 -18,-18 0,-10 8,-18 18,-18z"/>
   <circle class="fil0 str0" cx="274" cy="245" r="18"/>
  </g>
 </g>
</svg>
