<?xml version="1.0" encoding="UTF-8"?>
<!DOCTYPE svg PUBLIC "-//W3C//DTD SVG 1.1//EN" "http://www.w3.org/Graphics/SVG/1.1/DTD/svg11.dtd">
<!-- Creator: CorelDRAW X5 -->
<svg xmlns="http://www.w3.org/2000/svg" xml:space="preserve" width="0.333331in" height="0.333331in" style="shape-rendering:geometricPrecision; text-rendering:geometricPrecision; image-rendering:optimizeQuality; fill-rule:evenodd; clip-rule:evenodd"
viewBox="0 0 333 333"
 xmlns:xlink="http://www.w3.org/1999/xlink">
 <defs>
  <style type="text/css">
   <![CDATA[
    .str0 {stroke:#ED3237;stroke-width:6.94488}
    .fil0 {fill:none}
    .fil10 {fill:#FEFEFE}
    .fil3 {fill:black}
    .fil8 {fill:#195684}
    .fil6 {fill:#30A7FF}
    .fil5 {fill:#41739F}
    .fil7 {fill:#52D5FE}
    .fil2 {fill:#5689B0}
    .fil4 {fill:#ACC6C4}
    .fil1 {fill:#C3E6E4}
    .fil9 {fill:url(#id0)}
   ]]>
  </style>
  <linearGradient id="id0" gradientUnits="userSpaceOnUse" x1="273.685" y1="217.571" x2="237.992" y2="152.587">
   <stop offset="0" style="stop-color:#ED3237"/>
   <stop offset="1" style="stop-color:#F58634"/>
  </linearGradient>
 </defs>
 <g id="Layer_x0020_1">
  <metadata id="CorelCorpID_0Corel-Layer"/>
  <g id="_341127600">
   <rect class="fil0" width="333" height="333"/>
   <g>
    <g>
     <path class="fil1" d="M80 216c-2,8 -11,15 -15,20 -2,2 -8,7 -9,9 -2,6 3,11 -5,12l0 13c7,1 5,7 5,19 0,13 -2,17 7,17 16,0 32,0 48,0 31,0 63,1 95,0 3,-6 1,-35 1,-43 0,-20 1,-127 -1,-131l-125 0c0,2 0,80 0,83 0,2 0,1 -1,2z"/>
     <path class="fil2" d="M204 120c1,-7 2,-103 0,-109 -17,0 -143,-1 -148,1 -1,4 -1,11 -1,16 0,4 0,4 2,7 26,25 22,17 22,52 0,11 0,22 0,33l124 0z"/>
     <path class="fil3" d="M50 256c8,-1 3,-6 5,-12 1,-2 7,-7 9,-9 5,-5 13,-11 15,-20l0 -85c5,-1 60,0 70,0 10,0 65,-1 69,1 2,1 2,2 2,5l0 39c0,6 -1,9 5,10 6,-1 5,-5 5,-12l0 -34c0,-8 1,-9 -3,-14 1,-2 1,-3 2,-5 1,-3 1,-31 1,-37 0,-6 1,-10 -5,-10 -7,1 -5,8 -5,21 0,31 3,25 -17,25l-124 0c0,-11 0,-22 0,-33 0,-35 3,-27 -22,-52 -2,-2 -2,-2 -2,-7 0,-5 0,-12 1,-16 5,-3 131,-1 148,-1 5,0 12,-1 16,1 1,4 1,32 1,40 0,5 0,8 5,8 6,-1 5,-7 5,-19 0,-6 1,-29 -1,-34 -2,-5 -6,-6 -10,-7l-18 0 -142 0c-17,1 -13,20 -13,33l0 82c0,6 2,6 3,10 -3,5 -3,6 -3,14l0 103c0,7 -2,12 5,13z"/>
     <path class="fil3" d="M204 305c-31,1 -63,0 -95,0 -16,0 -32,0 -48,0 -8,0 -7,-4 -7,-17 0,-12 2,-18 -5,-19 -6,1 -5,4 -5,10 0,6 -1,24 1,28 1,3 4,7 8,7 0,4 0,8 1,11 2,4 5,6 10,7l22 0 119 0c4,0 7,0 7,0 3,-1 6,-4 7,-6 1,-3 1,-7 1,-12 4,0 7,-5 8,-8 2,-5 1,-83 1,-96 0,-7 2,-11 -5,-12 -6,1 -5,5 -5,11l0 80c0,18 2,16 -16,16z"/>
     <path class="fil4" d="M80 216c1,-1 0,0 1,-2 1,-2 0,-81 0,-83l125 0c2,4 1,111 1,131 0,8 1,37 -1,43 18,0 16,2 16,-16l0 -80c0,-6 -1,-10 5,-11l0 -13c-6,-1 -5,-4 -5,-10l0 -39c0,-3 0,-4 -2,-5 -4,-2 -59,-1 -69,-1 -10,0 -65,-1 -70,0l0 85z"/>
     <path class="fil5" d="M204 120c19,0 17,5 17,-25 0,-13 -2,-20 5,-21l0 -13c-5,-1 -5,-3 -5,-8 0,-8 1,-36 -1,-40 -4,-2 -10,-1 -16,-1 2,6 1,102 0,109z"/>
     <path class="fil6" d="M70 214l0 -84 -8 0c-5,0 -6,2 -6,7 0,27 -1,68 0,92 3,-2 5,-5 8,-7 2,-2 6,-5 7,-8z"/>
     <path class="fil5" d="M65 318c0,4 0,4 4,4l139 0c4,0 4,0 4,-7l-146 0 0 3z"/>
     <path class="fil7" d="M70 120l0 -54c0,-5 -1,-6 -3,-8 -3,-3 -8,-9 -11,-11 -1,15 0,47 0,65 0,11 4,8 15,8z"/>
     <path class="fil3" d="M183 145c-5,2 -4,8 0,9 2,1 14,1 16,0 4,-1 4,-8 -1,-9 -2,-1 -13,0 -15,0z"/>
     <path class="fil8" d="M70 214c2,-3 1,-36 1,-42 0,-12 1,-31 0,-42l-7 -1 -2 1 8 0 0 84z"/>
    </g>
    <g>
     <path class="fil9" d="M256 151l-6 0c-3,-6 -4,-9 -12,-6 -10,5 -5,7 -4,13 -3,2 -4,4 -7,7 -7,-2 -9,-4 -12,4 -4,10 1,8 6,12l0 10c-6,2 -9,5 -6,12 4,9 5,6 13,4 1,1 2,2 3,3 1,1 2,2 4,3 -2,8 -4,9 5,12 7,2 10,0 11,-7l10 0c4,5 3,10 12,6 3,-1 5,-2 6,-5 1,-3 -1,-6 -2,-8 2,-2 5,-4 6,-7 8,2 9,4 13,-4 3,-8 0,-9 -7,-11l0 -10c6,-4 9,-3 5,-12 -4,-9 -5,-6 -13,-4 -2,-3 -4,-4 -7,-7 2,-7 4,-9 -4,-12 -11,-4 -8,1 -12,6l-4 0zm0 17c9,0 17,7 17,17 0,9 -7,17 -17,17 -9,0 -17,-7 -17,-17 0,-9 7,-17 17,-17z"/>
     <circle class="fil10 str0" cx="256" cy="185" r="17"/>
    </g>
   </g>
  </g>
 </g>
</svg>
