<?xml version="1.0" encoding="UTF-8"?>
<!DOCTYPE svg PUBLIC "-//W3C//DTD SVG 1.1//EN" "http://www.w3.org/Graphics/SVG/1.1/DTD/svg11.dtd">
<!-- Creator: CorelDRAW X5 -->
<svg xmlns="http://www.w3.org/2000/svg" xml:space="preserve" width="0.333331in" height="0.333331in" style="shape-rendering:geometricPrecision; text-rendering:geometricPrecision; image-rendering:optimizeQuality; fill-rule:evenodd; clip-rule:evenodd"
viewBox="0 0 333 333"
 xmlns:xlink="http://www.w3.org/1999/xlink">
 <defs>
  <style type="text/css">
   <![CDATA[
    .fil0 {fill:none}
    .fil1 {fill:black}
    .fil10 {fill:#696C72}
    .fil6 {fill:#8A9BB2}
    .fil8 {fill:#CB2027}
    .fil5 {fill:#F6C403}
    .fil9 {fill:#FE3051}
    .fil2 {fill:#FEE9AB}
    .fil7 {fill:#FF4F23}
    .fil3 {fill:#FF7956}
    .fil4 {fill:#FFE477}
   ]]>
  </style>
 </defs>
 <g id="Layer_x0020_1">
  <metadata id="CorelCorpID_0Corel-Layer"/>
  <g id="_341217792">
   <rect class="fil0" width="333" height="333"/>
   <g>
    <path class="fil1" d="M188 194c39,-1 49,-17 65,-26 12,6 24,25 65,26 0,16 0,32 0,48 0,15 2,30 -5,42 -7,11 -16,14 -28,20 -5,2 -30,15 -32,15 -2,0 -29,-13 -33,-15 -33,-17 -32,-23 -32,-63 0,-16 0,-32 0,-47zm5 -11c-18,1 -16,-2 -16,22l-92 0 0 11 92 0 0 22 -92 0 0 11 92 0 0 22 -92 0 0 11 96 0c3,8 6,11 10,16l-154 0 0 -231c4,0 23,-1 26,0 3,1 0,0 2,2 3,3 1,3 7,3 22,1 72,0 99,0 3,0 7,0 9,-1 3,-1 2,-1 3,-2 0,0 0,0 0,-1l11 -2 16 0 0 113 -17 2zm-117 -147c5,-2 12,-1 17,-1 8,0 7,-2 9,-8 3,-8 10,-14 21,-14 11,1 16,7 20,16 3,6 5,6 12,6 19,0 16,-2 16,27l-98 0c0,-8 -2,-21 2,-26zm138 10c6,0 12,-1 16,2 2,5 2,110 1,123l-10 5c-2,-9 -1,-76 -1,-94 0,-8 3,-23 -5,-25l-33 0 0 -11 31 0zm-198 273c-3,-6 -1,-207 -1,-242 0,-26 -3,-31 10,-31 13,0 26,0 39,0l0 11c-9,0 -31,-2 -37,2 -3,3 -1,163 -1,189 0,8 -2,57 2,60 3,3 136,1 158,1 17,0 24,-1 41,11 -44,2 -112,0 -161,0 -9,0 -46,2 -51,-2zm223 7c5,2 11,7 17,5 3,-1 12,-6 15,-7 22,-10 44,-17 53,-38 7,-17 4,-66 5,-87 0,-10 2,-15 -8,-15 -8,0 -14,0 -21,-2 -13,-3 -23,-8 -31,-14 -4,-3 -10,-9 -13,-10 -6,-3 -9,3 -14,5 -2,-30 0,-64 0,-94 0,-42 -6,-32 -61,-33 -4,-12 -12,-11 -26,-11 -4,-1 -1,0 -4,-4 -1,-2 -1,-3 -2,-4 -6,-8 -15,-13 -25,-14 -15,-1 -28,10 -31,22 -15,0 -23,-1 -28,11 -13,0 -25,0 -38,0 -13,0 -21,3 -23,14 -1,8 0,221 0,225 0,33 -6,57 18,57 24,1 49,0 74,0l112 0c22,0 18,2 31,-6z"/>
    <path class="fil2" d="M53 271l22 0 0 11 -22 0 0 -11zm0 -33l22 0 0 11 -22 0 0 -11zm0 -33l22 0 0 11 -22 0 0 -11zm33 -33l81 0 0 11 -81 0 0 -11zm-33 0l22 0 0 11 -22 0 0 -11zm54 -66c0,-21 -4,-22 16,-22 20,0 16,1 16,22 6,0 16,-2 21,2 2,5 2,26 -1,30 -5,2 -13,1 -20,1 0,7 2,16 -2,21 -4,2 -24,2 -28,0 -4,-5 -2,-14 -2,-21 -6,0 -16,2 -21,-2 -2,-5 -2,-25 1,-30 5,-2 13,-1 20,-1zm87 77l0 -115 -11 2c0,0 0,0 0,1 -1,2 0,1 -3,2 -2,1 -7,1 -9,1 -27,0 -77,1 -99,0 -5,0 -4,0 -7,-3 -2,-2 1,-1 -2,-2 -2,-1 -22,0 -26,0l0 231 154 0c-3,-6 -7,-8 -10,-16l-96 0 0 -11 92 0 0 -22 -92 0 0 -11 92 0 0 -22 -92 0 0 -11 92 0c0,-24 -2,-21 16,-22z"/>
    <path class="fil3" d="M16 318c5,4 42,2 51,2 49,0 116,2 161,0 -17,-12 -25,-11 -41,-11 -22,0 -155,1 -158,-1 -4,-3 -2,-53 -2,-60 0,-26 -1,-186 1,-189 6,-5 28,-2 37,-2l0 -11c-13,0 -26,0 -39,0 -13,0 -10,4 -10,31 0,35 -1,236 1,242z"/>
    <path class="fil4" d="M249 293c7,-2 23,-10 27,-15 6,-8 6,-25 4,-38 -9,6 -30,33 -38,36 -5,-2 -16,-14 -20,-18l7 -8 13 12c4,-2 36,-35 38,-38l0 -15c-11,-4 -19,-9 -27,-14 -10,7 -28,16 -43,18 0,61 -5,59 19,70 7,3 13,7 20,9z"/>
    <path class="fil5" d="M200 268c-1,-9 -1,-49 0,-58 1,-6 2,-5 8,-6 11,-2 22,-6 32,-12 6,-3 12,-10 18,-7 6,3 11,8 18,11 34,15 32,0 32,27 0,14 3,44 -3,55 -7,12 -21,15 -35,23 -20,10 -15,7 -40,-4 -14,-6 -28,-11 -30,-28zm-11 -74c0,16 0,32 0,47 0,40 -1,46 32,63 4,2 31,15 33,15 2,0 27,-12 32,-15 12,-6 21,-9 28,-20 7,-12 5,-26 5,-42 0,-16 0,-32 0,-48 -41,-1 -53,-20 -65,-26 -16,8 -26,25 -65,26z"/>
    <path class="fil1" d="M281 209l16 4c0,71 7,57 -36,78 -6,3 -6,4 -11,1 -7,-2 -13,-6 -20,-9 -24,-11 -19,-9 -19,-70 15,-2 33,-11 43,-18 8,5 17,10 27,14zm-81 58c2,17 17,22 30,28 24,11 19,14 40,4 14,-7 28,-11 35,-23 6,-10 3,-41 3,-55 0,-27 2,-12 -32,-27 -8,-3 -13,-8 -18,-11 -6,-3 -13,4 -18,7 -10,6 -21,9 -32,12 -6,1 -7,0 -8,6 -1,9 -1,49 0,58z"/>
    <path class="fil1" d="M123 95l6 0c0,25 -3,22 22,22l0 11c-25,0 -22,-3 -22,22l-6 0 -5 0c0,-25 3,-22 -22,-22l0 -11c25,0 22,3 22,-22l5 0zm-16 11c-6,0 -14,-1 -20,1 -3,4 -3,24 -1,30 5,4 14,2 21,2 0,7 -2,16 2,21 4,2 24,2 28,0 4,-5 2,-14 2,-21 6,0 14,1 20,-1 3,-4 3,-25 1,-30 -5,-4 -14,-2 -21,-2 0,-21 4,-22 -16,-22 -20,0 -16,1 -16,22z"/>
    <path class="fil6" d="M119 19c21,-6 28,25 9,31 -19,6 -31,-24 -9,-31zm-43 17c-5,6 -2,19 -2,26l98 0c0,-29 3,-27 -16,-27 -7,0 -9,1 -12,-6 -4,-9 -8,-15 -20,-16 -11,-1 -18,6 -21,14 -2,6 -1,8 -9,8 -6,0 -13,-1 -17,1z"/>
    <polygon class="fil5" points="194,183 210,180 210,68 194,68 "/>
    <path class="fil7" d="M216 57c9,2 5,17 5,25 0,18 -1,85 1,94l10 -5c1,-13 1,-118 -1,-123 -4,-3 -10,-2 -16,-2l1 11z"/>
    <path class="fil5" d="M281 224c3,-1 5,6 9,6 -2,2 -3,3 -5,5 -2,2 -3,3 -4,5 2,12 2,30 -4,38 -4,5 -19,13 -27,15 5,3 6,2 11,-1 43,-21 37,-7 36,-78l-16 -4 0 15z"/>
    <polygon class="fil1" points="85,183 167,183 167,172 85,172 "/>
    <path class="fil1" d="M281 224c-2,3 -34,36 -38,38l-13 -12 -7 8c4,4 14,16 20,18 8,-2 29,-30 38,-36 1,-2 2,-3 4,-5 2,-2 3,-3 5,-5 -3,-1 -5,-8 -9,-6z"/>
    <path class="fil1" d="M121 30c6,-3 11,6 5,9 -7,4 -11,-6 -5,-9zm-2 -11c-22,7 -11,37 9,31 19,-6 12,-37 -9,-31z"/>
    <path class="fil8" d="M123 150l6 0c0,-25 -3,-22 22,-22l0 -11c-24,0 -22,3 -22,-22l-6 0 0 55z"/>
    <path class="fil9" d="M123 150l0 -55 -5 0c0,25 3,22 -22,22l0 11c24,0 22,-3 22,22l5 0z"/>
    <polygon class="fil3" points="216,57 214,46 183,46 183,57 "/>
    <polygon class="fil1" points="53,183 75,183 75,172 53,172 "/>
    <polygon class="fil1" points="53,249 75,249 75,238 53,238 "/>
    <polygon class="fil1" points="53,282 75,282 75,271 53,271 "/>
    <polygon class="fil1" points="53,216 75,216 75,205 53,205 "/>
    <path class="fil10" d="M121 30c-7,3 -2,13 5,9 6,-3 1,-12 -5,-9z"/>
   </g>
  </g>
 </g>
</svg>
