<?xml version="1.0" encoding="UTF-8"?>
<!DOCTYPE svg PUBLIC "-//W3C//DTD SVG 1.1//EN" "http://www.w3.org/Graphics/SVG/1.1/DTD/svg11.dtd">
<!-- Creator: CorelDRAW X5 -->
<svg xmlns="http://www.w3.org/2000/svg" xml:space="preserve" width="0.333331in" height="0.333331in" style="shape-rendering:geometricPrecision; text-rendering:geometricPrecision; image-rendering:optimizeQuality; fill-rule:evenodd; clip-rule:evenodd"
viewBox="0 0 333 333"
 xmlns:xlink="http://www.w3.org/1999/xlink">
 <defs>
  <style type="text/css">
   <![CDATA[
    .fil0 {fill:none}
    .fil1 {fill:black}
    .fil7 {fill:#4F92D0}
    .fil8 {fill:#797979}
    .fil2 {fill:#9AEEFB}
    .fil3 {fill:#ADADAD}
    .fil4 {fill:#F5D24E}
    .fil6 {fill:whitesmoke}
    .fil5 {fill:#F95454}
   ]]>
  </style>
 </defs>
 <g id="Layer_x0020_1">
  <metadata id="CorelCorpID_0Corel-Layer"/>
  <g id="_346874104">
   <rect class="fil0" width="333" height="333"/>
   <g>
    <path class="fil1" d="M89 311l12 0 0 4 0 2 0 4 -4 0 -4 0 -4 0 -1 -10zm-61 10c-2,-13 3,-10 23,-10 20,0 29,-4 28,10l-51 0zm84 -10l22 0c5,14 -10,11 -22,10l0 -10zm-37 -129l62 1c1,21 1,39 0,60 -1,20 -2,39 -4,58l-21 0 0 -103 -10 1 0 102 -21 0 -6 -118zm-17 118c-6,-31 -14,-62 -21,-92 -6,-27 -7,-18 2,-31 8,-13 14,-23 20,-36 2,-3 2,-7 5,-9 1,15 0,30 0,44 0,27 2,56 4,83 1,13 3,29 2,42l-12 0zm17 -139l62 0 0 10 -62 0 0 -10zm118 0c4,5 12,16 4,21 -9,5 -16,-12 -17,-15l12 -6zm-161 5c0,3 -9,20 -16,16 -7,-4 2,-16 5,-22l11 6zm80 -104c6,-2 10,-6 17,-3 8,3 23,9 27,16 10,16 10,35 16,48 4,9 12,19 15,28 -3,3 -9,6 -13,7 -4,-9 -10,-18 -14,-28 -3,-7 -9,-23 -13,-28 -14,-2 -11,8 -11,18 0,10 0,19 0,29l-24 0 0 -88zm-86 90c2,-10 11,-20 15,-31 4,-12 9,-38 17,-49 3,-4 9,-5 14,-7 12,-6 16,-9 24,-5 3,2 6,2 7,4l0 87 -27 0c0,-11 2,-40 -2,-47l-6 -1c-5,5 -16,32 -22,42 -2,5 -5,9 -7,14 -4,-1 -8,-4 -12,-6zm97 -117c-2,22 -30,24 -34,0l34 0zm-32 -10c3,-18 29,-16 31,0l-31 0zm-8 24c-7,2 -19,8 -26,11 -8,4 -12,12 -16,22 -6,15 -10,44 -20,54l-10 -42 -10 2c1,11 13,52 11,58 -3,9 -18,25 -4,36 4,3 9,4 15,4l24 107c-29,0 -30,3 -30,31 9,1 71,0 85,0 12,0 31,2 38,-4 3,-3 5,-10 3,-16 -3,-8 -2,-10 -1,-19 1,-25 5,-57 4,-82 -1,-26 -3,-59 -1,-84 3,4 4,10 7,15 6,13 23,49 36,52 7,2 13,-2 17,-5 10,-11 1,-22 -5,-32 -19,-35 -17,-23 -27,-62 -3,-10 -9,-25 -14,-30 -3,-2 -25,-13 -30,-15 1,-5 3,-9 4,-16l17 0 0 -10 -19 0c-2,-3 -3,-7 -6,-10 -2,-3 -4,-5 -8,-7 -14,-9 -32,-1 -39,16 -5,13 0,17 2,28z"/>
    <path class="fil2" d="M270 105l10 0 0 10 -10 0 0 -10zm20 -5l4 0 3 0 4 0 0 10c-12,0 -10,2 -10,-10zm-10 -21l10 0 0 10 -10 0 0 -10zm10 -20l4 0 3 0 4 0 0 10 -6 0 -1 0c-4,0 -3,-5 -3,-10zm8 -32c-5,3 -15,15 -20,20 -8,8 -4,3 -4,13 0,6 -4,10 -8,13 2,6 3,1 -5,17 -3,6 -5,11 -9,17 -7,14 -31,-4 -35,-8 -3,-4 -22,-28 -8,-35 5,-3 11,-6 17,-9 3,-1 6,-3 8,-4 1,-1 3,-2 5,-2 4,0 1,0 4,1 2,-3 6,-7 12,-7 11,-1 6,4 13,-4 5,-6 15,-14 19,-19 -10,-9 -35,-10 -49,-5 -39,13 -56,58 -31,95 23,34 75,34 99,2 8,-11 15,-28 12,-47 -2,-15 -13,-34 -22,-38z"/>
    <path class="fil1" d="M217 73l23 -11 17 16 -11 23c-13,0 -28,-16 -28,-28zm35 -14c2,-1 6,-8 11,-4 5,4 -1,9 -4,11l-7 -7zm46 -31c9,4 20,23 22,38 3,19 -4,36 -12,47 -24,32 -76,33 -99,-2 -25,-37 -7,-82 31,-95 14,-5 39,-4 49,5 -4,5 -13,13 -19,19 -8,8 -3,3 -13,4 -6,1 -10,4 -12,7 -4,-1 -1,-2 -4,-1 -2,0 -3,1 -5,2 -3,1 -5,3 -8,4 -6,3 -12,6 -17,9 -14,7 5,31 8,35 4,4 27,22 35,8 3,-6 6,-12 9,-17 8,-17 7,-11 5,-17 3,-2 7,-6 8,-13 0,-10 -4,-5 4,-13 5,-5 15,-17 20,-20zm-49 -24c-36,5 -68,38 -62,81 5,36 38,67 81,61 40,-5 67,-43 62,-81 -5,-36 -38,-68 -81,-62z"/>
    <path class="fil3" d="M80 300l21 0 0 -102 10 -1 0 103 21 0c2,-20 2,-39 4,-58 2,-21 1,-39 0,-60l-62 -1 6 118z"/>
    <path class="fil1" d="M173 254l61 0c0,8 -3,63 -4,66 -1,1 -5,1 -7,1l-41 0c-7,0 -5,-3 -5,-10l42 0 0 -10c-7,0 -14,0 -21,0 -4,0 -7,0 -11,0 -2,0 -4,0 -6,0 -2,0 -4,0 -5,-1l-3 -45zm6 -11c1,-11 12,-20 25,-20 12,0 24,9 25,21l-50 0zm-16 1l6 87 71 0 6 -87 -6 0c-4,-18 -17,-32 -39,-31 -14,1 -25,10 -30,22 -1,2 -1,5 -2,7 -3,5 -1,1 -6,3z"/>
    <path class="fil4" d="M26 152c4,2 8,5 12,6 2,-5 5,-9 7,-14 5,-10 17,-37 22,-42l6 1c3,7 2,37 2,47l27 0 0 -87c-1,-2 -3,-3 -7,-4 -8,-4 -12,0 -24,5 -5,2 -11,4 -14,7 -8,11 -13,36 -17,49 -3,11 -12,21 -15,31z"/>
    <path class="fil4" d="M122 84l15 0 0 7 0 3 -4 0 -4 0 -8 0 0 -10zm-10 -22l0 88 24 0c0,-10 0,-19 0,-29 0,-11 -2,-20 11,-18 3,5 10,21 13,28 4,10 10,19 14,28 4,-1 10,-4 13,-7 -3,-9 -11,-19 -15,-28 -6,-14 -6,-32 -16,-48 -4,-7 -20,-12 -27,-16 -7,-3 -11,1 -17,3z"/>
    <path class="fil5" d="M218 300l0 10 -42 0c0,8 -2,10 5,10l41 0c1,0 6,0 7,-1 2,-3 5,-58 4,-66l-61 0 3 45c2,1 3,1 5,1 2,0 4,0 6,0 4,0 7,0 11,0 7,0 14,0 21,0z"/>
    <path class="fil4" d="M217 73c1,12 16,28 28,28l11 -23 -17 -16 -23 11z"/>
    <path class="fil6" d="M178 244l50 0c-1,-11 -13,-21 -25,-21 -13,0 -23,9 -25,20z"/>
    <polygon class="fil7" points="74,172 136,172 136,162 75,161 "/>
    <path class="fil6" d="M28 321l51 0c1,-14 -8,-10 -28,-10 -20,0 -25,-2 -23,10z"/>
    <path class="fil6" d="M123 35l-34 0c3,24 31,22 34,0z"/>
    <path class="fil5" d="M91 25l31 0c-2,-16 -28,-18 -31,0z"/>
    <path class="fil7" d="M180 167c1,2 8,20 17,15 8,-5 -1,-16 -4,-21l-12 6z"/>
    <path class="fil7" d="M32 166l-11 -6c-3,6 -12,18 -5,22 7,4 16,-13 16,-16z"/>
    <path class="fil8" d="M112 321c12,0 27,4 22,-10l-22 0 0 10z"/>
    <polygon class="fil1" points="122,94 130,94 134,94 137,94 137,91 137,85 122,84 "/>
    <polygon class="fil8" points="90,321 93,321 97,321 101,321 102,317 102,315 101,311 89,311 "/>
    <path class="fil1" d="M291 59c0,5 -2,10 3,10l1 0 6 0 0 -10 -4 0 -3 0 -4 0z"/>
    <path class="fil1" d="M291 100c0,12 -2,10 10,10l0 -10 -4 0 -3 0 -4 0z"/>
    <polygon class="fil1" points="280,89 290,89 290,79 280,79 "/>
    <polygon class="fil1" points="270,115 280,115 280,105 270,105 "/>
    <path class="fil7" d="M253 58l7 7c3,-2 9,-7 4,-11 -5,-4 -8,3 -11,4z"/>
   </g>
  </g>
 </g>
</svg>
