<?xml version="1.0" encoding="UTF-8"?>
<!DOCTYPE svg PUBLIC "-//W3C//DTD SVG 1.1//EN" "http://www.w3.org/Graphics/SVG/1.1/DTD/svg11.dtd">
<!-- Creator: CorelDRAW X5 -->
<svg xmlns="http://www.w3.org/2000/svg" xml:space="preserve" width="0.333331in" height="0.333331in" style="shape-rendering:geometricPrecision; text-rendering:geometricPrecision; image-rendering:optimizeQuality; fill-rule:evenodd; clip-rule:evenodd"
viewBox="0 0 333 333"
 xmlns:xlink="http://www.w3.org/1999/xlink">
 <defs>
  <style type="text/css">
   <![CDATA[
    .str0 {stroke:#ED3237;stroke-width:6.94488}
    .str1 {stroke:#201E1E;stroke-width:10.4173}
    .fil0 {fill:none}
    .fil2 {fill:#201E1E}
    .fil8 {fill:#FEFEFE}
    .fil5 {fill:#586B74}
    .fil3 {fill:#798B97}
    .fil6 {fill:#89BAD3}
    .fil4 {fill:#C8EFFD}
    .fil1 {fill:#DEF4FC}
    .fil7 {fill:url(#id0)}
   ]]>
  </style>
  <linearGradient id="id0" gradientUnits="userSpaceOnUse" x1="310.268" y1="130.083" x2="278.657" y2="72.5433">
   <stop offset="0" style="stop-color:#ED3237"/>
   <stop offset="1" style="stop-color:#F58634"/>
  </linearGradient>
 </defs>
 <g id="Layer_x0020_1">
  <metadata id="CorelCorpID_0Corel-Layer"/>
  <g id="_341231736">
   <rect class="fil0" width="333" height="333"/>
   <path class="fil1" d="M258 269l-171 0c-5,0 -6,0 -8,3l-1 2 -12 0c-1,-5 -4,-5 -9,-5l-44 0 0 -193c0,-8 -1,-61 1,-64 1,-1 0,-1 2,-1l11 0 231 0c1,7 1,119 1,129 0,43 0,86 0,129z"/>
   <path class="fil2" d="M274 85c-5,-4 -5,0 -5,-15 0,-65 4,-59 -12,-59l-231 0 -11 0c-2,0 -1,0 -2,1 -2,2 -1,56 -1,64l0 193 44 0c5,0 8,0 9,5 -1,6 -4,5 -10,5l-43 0c-1,4 -1,40 1,41 2,2 9,1 14,1 76,0 155,1 230,0 2,0 4,0 7,0 5,0 4,-1 4,-2 1,-2 1,-37 0,-42l-187 0c-3,-1 -4,-2 -3,-6 2,-3 3,-3 8,-3l171 0 11 0 0 -156c0,-17 -1,-13 5,-17 5,2 5,2 5,14 0,27 1,200 0,208 -1,9 -6,12 -12,13l-252 0c-7,-1 -11,-3 -13,-13 -1,-8 0,-222 0,-227 0,-12 -1,-69 0,-76 1,-11 6,-13 14,-14l252 0c3,1 6,2 8,5 5,7 3,35 3,45 0,4 0,25 0,28 -1,4 -2,4 -5,5z"/>
   <path class="fil3" d="M82 279c3,2 37,1 43,1 16,0 127,-1 133,0 0,10 1,33 0,42 -75,1 -154,0 -230,0 -5,0 -12,1 -14,-1 -1,-2 -1,-37 -1,-41l43 0c6,0 9,1 10,-5l12 0 1 -2c0,4 0,5 3,6z"/>
   <path class="fil2" d="M114 159c2,-1 8,-10 13,-5 5,5 -4,10 -5,13 12,11 16,35 9,54 -3,8 -6,11 -8,15 2,2 9,7 5,12 -5,5 -10,-4 -13,-5 -12,14 -42,17 -61,5 -2,-2 -5,-4 -7,-5 -2,2 -7,9 -12,5 -5,-5 3,-10 5,-12 -1,-2 -3,-4 -5,-7 -8,-15 -10,-31 -4,-47 3,-8 5,-9 9,-15 -2,-2 -10,-8 -6,-12 4,-5 11,3 12,5 2,-1 5,-3 7,-5 21,-12 43,-9 62,4z"/>
   <path class="fil2" d="M236 37c2,-2 8,-10 12,-5 5,5 -4,10 -5,12 1,2 3,5 5,7 10,16 10,39 0,55 -2,3 -4,5 -5,7 2,2 10,8 5,12 -5,5 -9,-4 -12,-5 -8,7 -20,13 -34,13 -13,0 -28,-6 -35,-13 -3,1 -8,10 -12,5 -5,-5 4,-10 5,-12 -14,-16 -16,-42 -5,-61 2,-3 4,-5 5,-7 -2,-3 -10,-8 -5,-12 5,-5 10,3 12,5 2,-1 5,-3 7,-5 17,-10 37,-10 54,0 3,2 5,4 7,5z"/>
   <path class="fil2" d="M114 37c3,-1 8,-10 13,-5 4,5 -4,10 -5,12 1,2 3,4 5,7 10,17 10,38 0,55 -2,3 -4,5 -5,8 2,2 9,7 5,11 -5,5 -10,-3 -12,-5 -2,1 -4,3 -7,5 -9,5 -17,8 -28,8 -18,0 -24,-6 -35,-12 -2,2 -8,10 -12,5 -4,-5 4,-9 5,-12 -1,-2 -3,-4 -5,-7 -8,-14 -10,-31 -4,-47 3,-7 5,-10 9,-15 -2,-3 -10,-7 -5,-12 4,-5 11,3 12,5 6,-2 14,-12 34,-12 18,0 24,6 35,12z"/>
   <path class="fil2" d="M236 159c2,-2 7,-9 12,-6 6,4 -3,11 -5,12 1,2 5,7 8,15 5,12 5,27 1,39 -3,7 -6,10 -9,15 2,3 10,8 5,12 -4,4 -10,-3 -11,-5 -3,1 -4,3 -7,5 -8,5 -18,8 -28,8 -21,0 -30,-11 -35,-13 -1,2 -7,9 -11,5 -5,-4 3,-10 5,-12 -1,-3 -5,-6 -8,-15 -12,-31 7,-51 9,-55 -3,-2 -10,-8 -5,-12 5,-4 9,3 12,6 6,-3 13,-12 34,-12 10,0 19,3 27,7 3,2 5,4 7,5z"/>
   <path class="fil3" d="M208 157c2,2 7,4 12,10 3,3 3,3 2,4 -2,3 -4,2 -3,9 5,4 5,2 10,0 3,5 5,14 5,21 0,9 -2,14 -5,21 -3,-2 -2,-4 -8,-3 -6,7 0,7 2,12 -3,3 -4,5 -7,8 -2,2 -7,5 -8,6 -14,2 -27,-2 -35,-9 1,-3 4,-5 7,-7 4,-4 3,-5 0,-9 -4,-2 -11,6 -14,9 -12,-10 -13,-41 0,-55 2,1 0,0 2,1 3,3 9,12 13,6 5,-5 -4,-8 -8,-15 2,-3 10,-6 14,-8 7,-2 13,-2 20,-2z"/>
   <path class="fil3" d="M87 35c2,2 6,4 8,6 3,3 5,5 7,7 -3,4 -8,5 -2,11 4,1 5,0 7,-2 1,0 1,-1 3,3 1,2 1,3 1,5 3,14 1,21 -3,33 -2,-1 -6,-6 -9,0 -3,5 2,7 4,9 -2,4 -8,9 -12,12 -4,3 -4,2 -4,2l-1 1c-10,2 -28,-3 -33,-10 3,-2 11,-9 9,-14 -4,-3 -5,-4 -9,0 -2,2 -4,5 -7,7 -9,-8 -12,-28 -6,-43l5 -9c1,-2 2,-2 3,-3 3,3 9,11 13,9 3,-4 4,-5 0,-9 -2,-2 -6,-5 -7,-7 7,-6 22,-12 34,-9z"/>
   <path class="fil3" d="M88 157c1,2 6,5 8,6 3,2 4,4 6,7 -1,3 -6,4 -4,9 2,6 9,0 9,0 6,6 6,26 2,37 -1,4 -1,3 -3,4 -2,-2 -7,-4 -9,0 -2,4 2,6 4,8 -1,4 -8,9 -12,12 -3,2 -2,1 -4,2l-2 1c-7,1 -13,0 -19,-2 -4,-1 -11,-5 -14,-8 2,-3 13,-10 8,-15 -5,-5 -12,6 -15,8 -5,-5 -9,-17 -9,-27 0,-16 6,-21 9,-28 4,2 10,13 15,8 6,-5 -6,-12 -7,-15l1 -1c0,0 0,0 0,0 8,-6 23,-10 33,-7z"/>
   <path class="fil3" d="M208 35c2,2 14,8 16,14 -1,2 -5,4 -4,9 2,4 6,2 9,0 6,3 6,23 4,32 0,2 -2,9 -4,8 -7,-5 -13,1 -5,9 -1,7 -13,12 -16,15 -6,1 -13,0 -19,-1 -3,-1 -10,-4 -13,-6l-2 -2c2,-3 13,-10 8,-15 -5,-5 -12,6 -15,8 -2,-1 -3,-3 -4,-5 -1,-2 -2,-4 -3,-6 -7,-18 -1,-31 7,-44 5,3 10,14 16,8 4,-5 -6,-12 -8,-15 7,-7 21,-11 33,-9z"/>
   <path class="fil4" d="M274 85l0 12c-6,4 -5,0 -5,17l0 156 -11 0c0,-43 0,-86 0,-129 0,-10 1,-122 -1,-129 16,0 12,-6 12,59 0,15 -1,11 5,15z"/>
   <path class="fil2" d="M85 181c27,7 17,46 -9,40 -10,-2 -19,-12 -16,-25 2,-10 12,-19 25,-16z"/>
   <path class="fil2" d="M85 59c10,2 19,12 16,25 -6,27 -46,17 -40,-9 2,-10 12,-18 24,-15z"/>
   <path class="fil2" d="M206 59c27,7 17,46 -9,40 -10,-2 -19,-12 -16,-25 2,-9 12,-18 24,-15z"/>
   <path class="fil2" d="M207 181c26,7 16,46 -10,40 -10,-2 -18,-13 -15,-25 2,-10 13,-18 25,-15z"/>
   <path class="fil2" d="M174 286c20,6 10,36 -9,30 -20,-6 -11,-36 9,-30z"/>
   <path class="fil2" d="M232 286c7,2 13,10 10,20 -6,19 -36,11 -30,-9 2,-7 10,-13 20,-10z"/>
   <path class="fil2" d="M116 286c20,6 11,36 -9,30 -7,-2 -13,-10 -11,-20 2,-7 10,-13 20,-10z"/>
   <path class="fil2" d="M57 285c22,5 14,35 -6,31 -20,-5 -13,-35 6,-31z"/>
   <path class="fil5" d="M257 322c2,-9 0,-31 0,-42 -5,-1 -117,0 -133,0 -6,0 -40,1 -43,-1l187 0c1,4 1,40 0,42 0,0 0,1 -4,2 -2,0 -4,0 -7,0z"/>
   <path class="fil5" d="M108 100c4,-12 6,-19 3,-33 0,-2 -1,-3 -1,-5 -2,-4 -1,-4 -3,-3 2,-3 5,-5 7,-7 6,4 10,17 10,27 0,11 -4,22 -9,28 -2,-1 -1,-1 -4,-3 -1,-1 -2,-2 -3,-3z"/>
   <path class="fil5" d="M229 99c2,1 4,-6 4,-8 2,-9 1,-30 -4,-32 2,-2 5,-5 7,-7 9,8 13,28 7,43 -2,6 -5,10 -6,12 -3,-1 -6,-5 -8,-7z"/>
   <path class="fil5" d="M230 222c3,-8 5,-12 5,-21 0,-7 -2,-16 -5,-21l0 -1c1,-2 4,-5 6,-6 17,19 8,49 0,55l-6 -6z"/>
   <path class="fil5" d="M108 221c1,-1 1,0 3,-4 4,-11 4,-31 -2,-37 2,-3 4,-5 6,-7l2 2c1,1 1,2 2,3 4,7 6,13 6,22 0,6 -1,11 -3,16 -2,6 -4,8 -7,12 -3,-1 -6,-5 -7,-7z"/>
   <path class="fil6" d="M205 190c13,5 7,25 -7,21 -14,-4 -8,-26 7,-21z"/>
   <path class="fil6" d="M83 69c14,4 8,25 -6,21 -5,-2 -9,-7 -7,-14 1,-5 7,-9 14,-7z"/>
   <path class="fil6" d="M84 190c14,6 6,25 -7,21 -13,-4 -6,-26 7,-21z"/>
   <path class="fil6" d="M205 69c14,5 7,25 -6,21 -5,-1 -9,-7 -7,-14 2,-5 7,-9 14,-7z"/>
   <path class="fil4" d="M172 295c6,3 3,14 -5,11 -7,-3 -3,-15 5,-11z"/>
   <path class="fil4" d="M230 295c6,3 3,14 -5,11 -7,-3 -3,-15 5,-11z"/>
   <path class="fil4" d="M115 296c1,1 2,1 3,3 0,2 0,4 -1,5 -1,2 -5,3 -8,2 -6,-3 -2,-15 6,-10z"/>
   <path class="fil4" d="M56 295c9,3 4,14 -4,11 -7,-3 -3,-14 4,-11z"/>
   <path class="fil5" d="M207 123c4,-3 15,-8 16,-15 2,2 4,3 5,6 -3,1 -6,4 -10,5 -4,2 -8,3 -12,3z"/>
   <path class="fil5" d="M209 244c1,-2 6,-4 8,-6 3,-3 4,-5 7,-8 2,1 4,3 4,5 -5,5 -12,8 -20,9z"/>
   <path class="fil5" d="M86 123l1 -1c0,0 -1,1 4,-2 4,-3 10,-7 12,-12 2,1 4,3 5,5 -3,4 -15,9 -22,10z"/>
   <path class="fil5" d="M85 245l2 -1c2,-1 2,0 4,-2 4,-2 11,-8 12,-12 2,1 4,3 5,5 -4,5 -15,9 -23,10z"/>
   <path class="fil5" d="M103 49c-2,-3 -4,-5 -7,-7 -2,-2 -6,-4 -8,-6 7,1 17,5 20,9 -1,2 -3,3 -4,5z"/>
   <path class="fil5" d="M223 171c0,-2 1,-1 -2,-4 -5,-6 -10,-8 -12,-10 9,2 14,4 20,9 -1,2 -4,4 -6,5z"/>
   <path class="fil5" d="M223 49c-2,-7 -14,-12 -16,-14 8,1 16,5 21,9l-5 5z"/>
   <path class="fil5" d="M102 170c-2,-3 -3,-5 -6,-7 -2,-2 -7,-5 -8,-6 4,0 8,2 11,3 3,1 7,3 8,6 -2,2 -3,3 -5,4z"/>
   <path class="fil7" d="M294 71l-5 0c-3,-5 -3,-8 -10,-5 -9,4 -5,6 -3,12 -3,2 -4,4 -6,6 -6,-1 -8,-4 -11,4 -3,9 1,7 6,10l0 9c-6,2 -8,4 -5,10 4,8 5,5 11,3 1,1 2,2 3,3 1,1 2,2 3,3 -2,7 -4,8 4,11 6,2 9,0 10,-6l9 0c3,4 2,9 10,5 2,-1 5,-2 5,-4 1,-3 -1,-5 -2,-7 2,-2 4,-4 6,-6 7,2 8,4 11,-4 3,-7 0,-8 -6,-10l0 -9c5,-3 8,-3 5,-11 -3,-8 -5,-5 -11,-3 -2,-2 -4,-4 -6,-6 2,-6 4,-8 -4,-11 -10,-3 -7,1 -10,6l-3 0zm0 15c8,0 15,7 15,15 0,8 -7,15 -15,15 -8,0 -15,-7 -15,-15 0,-8 7,-15 15,-15z"/>
   <circle class="fil8 str0" cx="295" cy="101" r="15"/>
   <path class="fil0 str1" d="M273 177c0,0 46,-31 52,8 6,38 -30,114 -30,149"/>
  </g>
 </g>
</svg>
