<?xml version="1.0" encoding="UTF-8"?>
<!DOCTYPE svg PUBLIC "-//W3C//DTD SVG 1.1//EN" "http://www.w3.org/Graphics/SVG/1.1/DTD/svg11.dtd">
<!-- Creator: CorelDRAW X5 -->
<svg xmlns="http://www.w3.org/2000/svg" xml:space="preserve" width="0.333331in" height="0.333331in" style="shape-rendering:geometricPrecision; text-rendering:geometricPrecision; image-rendering:optimizeQuality; fill-rule:evenodd; clip-rule:evenodd"
viewBox="0 0 333 333"
 xmlns:xlink="http://www.w3.org/1999/xlink">
 <defs>
  <style type="text/css">
   <![CDATA[
    .fil0 {fill:none}
    .fil1 {fill:black}
    .fil6 {fill:#77B560}
    .fil3 {fill:#92C480}
    .fil4 {fill:#9E9E9E}
    .fil2 {fill:#B2B2B2}
    .fil7 {fill:#BF8D5B}
    .fil5 {fill:#F7D8A4}
   ]]>
  </style>
 </defs>
 <g id="Layer_x0020_1">
  <metadata id="CorelCorpID_0Corel-Layer"/>
  <g id="_340853808">
   <rect class="fil0" width="333" height="333"/>
   <g>
    <path class="fil1" d="M38 35c0,10 1,15 8,24 2,2 5,5 8,6 3,2 4,2 7,3l3 1c-15,0 -8,1 -15,3 -2,-2 -6,-8 -10,-8l-26 0c-3,0 -5,2 -5,5l0 103c0,6 7,5 13,5 6,0 12,0 18,0 3,12 3,19 13,31 2,2 4,4 5,6 3,3 2,3 2,9l0 88c0,20 -5,17 37,17 19,0 19,-31 0,-31 0,-5 3,-25 4,-31 1,-5 2,-11 2,-15 1,-5 2,-12 2,-16 3,1 14,4 17,5 0,4 2,7 3,11l10 33c1,4 2,7 3,11 4,15 3,7 3,25 0,5 0,9 5,9l32 0c17,0 20,-28 2,-31 -4,-1 -3,1 -4,-2l-16 -70c-1,-4 -1,-7 -3,-11 -2,-5 -9,-8 -16,-11 -5,-3 -33,-17 -36,-18l0 -43 48 0c7,0 11,-5 13,-9l94 24c0,8 1,6 -3,8 -2,1 -3,1 -4,3 -5,6 -4,12 -4,21 0,3 2,5 5,5l21 0c7,0 5,-8 5,-17 0,-7 -5,-11 -10,-14 0,-18 5,-14 -32,-23 -21,-5 -46,-12 -67,-17 -7,-2 -3,-1 -7,-7 -2,-2 -6,-5 -9,-5 -12,-2 -32,2 -40,-2 -3,-2 -6,-3 -9,-5 0,-12 2,-29 -15,-34 -4,-1 -11,-1 -16,-1l0 -1c12,0 26,-14 26,-29 0,-13 -5,-23 -17,-29 -8,-4 -19,-4 -28,0 -9,5 -17,15 -17,25z"/>
    <path class="fil2" d="M48 169c0,18 8,32 18,39 14,10 24,11 42,16 5,1 20,4 22,7 2,2 6,18 7,21 3,9 12,37 13,44l15 0c-4,-20 -13,-53 -18,-76 -1,-5 -5,-5 -14,-10 -5,-3 -10,-5 -15,-8 -5,-3 -28,-14 -31,-16l4 -9 3 1 0 -12 -46 0 0 3z"/>
    <path class="fil1" d="M280 258c0,9 2,7 3,12 -2,1 -1,1 -3,2 -2,-2 -4,-7 -6,-10l-9 5c0,3 3,7 4,9 2,4 3,4 7,6 -1,2 -1,6 -1,9l-10 0 0 10 12 0c0,2 0,2 1,3 -8,2 -12,12 -12,15l9 5c7,-11 0,-6 10,-12 4,3 5,4 12,4 4,0 7,-1 10,-4 3,1 0,0 2,1 6,3 4,2 8,11l9 -5c0,-4 -4,-14 -12,-15 0,-1 1,-1 1,-3l12 0 0 -10 -10 0c0,-3 0,-7 -1,-9 4,-1 6,-3 7,-6 1,-2 4,-6 4,-9l-9 -5c-3,4 -3,7 -6,10 -2,-1 -1,-1 -3,-2 1,-5 3,-2 3,-12 0,-8 -7,-14 -17,-14 -7,0 -14,7 -14,14z"/>
    <path class="fil1" d="M213 258c0,9 2,7 3,12 -2,1 -1,1 -3,2 -2,-2 -2,-2 -3,-5 -1,-2 -2,-3 -3,-5l-9 5c0,3 3,7 4,9 2,4 3,4 7,6 -1,2 -1,6 -1,9l-10 0 0 10 12 0c0,2 0,2 1,3 -3,1 -6,3 -8,6 -1,2 -4,7 -4,10l9 5c2,-3 2,-5 4,-7 1,-2 0,-1 3,-3 1,-1 3,-1 4,-2 4,3 5,4 12,4 4,0 7,-1 10,-4 7,2 7,5 10,12l9 -5c0,-4 -4,-14 -12,-15 0,-1 1,-1 1,-3l12 0 0 -10 -10 0c0,-3 0,-7 -1,-9 7,-2 11,-12 11,-15l-9 -5c-1,2 -2,3 -3,5 -1,2 -1,3 -3,5 -2,-1 -1,-1 -3,-2 1,-5 3,-2 3,-12 0,-8 -7,-14 -17,-14 -7,0 -14,7 -14,14z"/>
    <path class="fil3" d="M48 156l46 0 0 -17c-1,-2 -14,-9 -17,-11 -7,-4 -12,-6 -14,-15 -2,-9 4,-16 9,-19 10,-5 14,1 21,3 0,-15 0,-19 -16,-19 -11,0 -26,-3 -30,7 -2,4 -1,61 -1,71z"/>
    <path class="fil4" d="M17 167l21 0 0 -75c0,-7 2,-8 3,-13 -8,-5 1,-4 -23,-4l0 93z"/>
    <path class="fil4" d="M69 295l16 0 9 -65c-7,-1 -20,-5 -25,-8l0 73z"/>
    <path class="fil5" d="M65 18c-28,7 -17,46 9,40 10,-2 18,-12 15,-25 -2,-10 -12,-18 -24,-15z"/>
    <path class="fil6" d="M79 104c-3,1 -6,4 -4,9 1,3 4,4 7,6 25,14 14,12 43,12 5,0 24,1 28,0 3,-1 6,-5 3,-8 -3,-4 -28,-1 -39,-2 -7,-1 -32,-18 -37,-16z"/>
    <path class="fil7" d="M226 276c-4,1 -5,3 -7,7 -1,3 -2,7 -1,11 1,6 5,15 13,12 13,-5 8,-35 -5,-30z"/>
    <path class="fil7" d="M293 276c-14,5 -8,35 5,30 13,-5 8,-35 -5,-30z"/>
    <path class="fil4" d="M151 316l24 0c10,0 10,-10 0,-10l-24 0 0 10z"/>
    <path class="fil2" d="M69 316l24 0c10,0 10,-10 0,-10l-24 0 0 10z"/>
    <polygon class="fil1" points="276,206 287,217 294,210 284,199 "/>
    <polygon class="fil1" points="292,222 302,232 310,225 299,214 "/>
    <polygon class="fil1" points="307,237 318,248 325,241 315,230 "/>
    <polygon class="fil1" points="230,209 237,217 248,206 241,199 "/>
    <polygon class="fil1" points="215,225 222,232 232,222 225,214 "/>
    <polygon class="fil1" points="199,240 206,248 217,237 210,230 "/>
    <polygon class="fil1" points="259,213 270,213 270,203 259,203 "/>
    <polygon class="fil1" points="259,234 270,234 270,223 259,223 "/>
    <polygon class="fil1" points="259,254 270,254 270,244 259,244 "/>
    <path class="fil7" d="M227 255c-7,3 -2,12 4,9 6,-3 2,-12 -4,-9z"/>
    <path class="fil7" d="M294 255c-7,3 -2,12 4,9 6,-3 2,-12 -4,-9z"/>
   </g>
  </g>
 </g>
</svg>
