<?xml version="1.0" encoding="UTF-8"?>
<!DOCTYPE svg PUBLIC "-//W3C//DTD SVG 1.1//EN" "http://www.w3.org/Graphics/SVG/1.1/DTD/svg11.dtd">
<!-- Creator: CorelDRAW X5 -->
<svg xmlns="http://www.w3.org/2000/svg" xml:space="preserve" width="0.333331in" height="0.333331in" style="shape-rendering:geometricPrecision; text-rendering:geometricPrecision; image-rendering:optimizeQuality; fill-rule:evenodd; clip-rule:evenodd"
viewBox="0 0 333 333"
 xmlns:xlink="http://www.w3.org/1999/xlink">
 <defs>
  <style type="text/css">
   <![CDATA[
    .str0 {stroke:#ED3237;stroke-width:6.94488}
    .fil0 {fill:none}
    .fil5 {fill:#0098DA}
    .fil4 {fill:#00AFEF}
    .fil2 {fill:#201E1E}
    .fil1 {fill:#6B809B}
    .fil7 {fill:#FEFEFE}
    .fil3 {fill:#E5F3F5}
    .fil6 {fill:url(#id0)}
   ]]>
  </style>
  <linearGradient id="id0" gradientUnits="userSpaceOnUse" x1="71.1732" y1="118.52" x2="35.4803" y2="53.5354">
   <stop offset="0" style="stop-color:#ED3237"/>
   <stop offset="1" style="stop-color:#F58634"/>
  </linearGradient>
 </defs>
 <g id="Layer_x0020_1">
  <metadata id="CorelCorpID_0Corel-Layer"/>
  <g id="_339711192">
   <rect class="fil0" width="333" height="333"/>
   <g>
    <g>
     <path class="fil1" d="M220 7l-12 0c-2,3 -2,5 -7,5 -5,0 -4,-3 -6,-5l-11 0 0 6 -147 0c3,68 8,136 12,203l5 77c0,8 -1,6 12,14 6,4 11,7 17,11 4,3 6,2 12,2l139 0c7,0 7,1 12,-2 5,-4 11,-7 16,-11 13,-9 11,-5 12,-16 5,-93 12,-186 17,-279l-70 0 0 -6z"/>
     <path class="fil2" d="M59 31c-6,3 -3,12 -2,24l13 163c1,8 1,20 2,28 1,5 4,6 9,6l60 0c9,0 9,-2 9,6 0,5 -1,25 1,28 3,3 23,3 26,0 3,-3 2,-21 2,-27 0,-10 -5,-8 22,-8 10,0 21,0 31,0 29,0 24,5 27,-32l13 -164c1,-7 4,-22 -2,-25 -3,-2 -83,-1 -91,-1 -13,0 -117,-1 -121,1z"/>
     <path class="fil3" d="M75 144l9 -2 0 -4 0 -2c7,-1 15,-7 20,-11 3,-2 6,-5 10,-2 13,8 18,21 40,5 15,-11 8,-5 29,6 14,7 22,-5 30,-10 8,-5 15,10 30,13l0 2 0 4c3,1 6,2 9,1l8 -101 -194 0 8 102z"/>
     <path class="fil4" d="M84 138l0 4 -9 2 7 96 59 0c0,-8 -1,-19 0,-27 1,-5 5,-10 9,-12 2,-1 4,-1 6,-2 -2,-2 -7,-3 -10,-4 -6,-2 -18,-4 -20,-8 -1,-4 2,-7 6,-7 3,0 18,5 22,6 11,3 14,1 14,14 23,0 18,21 18,40l59 0 8 -98c-3,1 -6,0 -9,-1l0 -4 -1 9c-12,-1 -19,-8 -26,-12 -4,4 -16,12 -26,13 -11,0 -20,-8 -27,-12 -6,4 -16,12 -27,12 -9,0 -22,-8 -26,-13 -8,4 -14,11 -26,13l-1 -9z"/>
     <path class="fil2" d="M220 7l0 6 70 0c-4,92 -11,186 -17,279 -1,11 2,7 -12,16 -6,4 -11,7 -16,11 -5,3 -5,2 -12,2l-139 0c-6,0 -8,1 -12,-2 -6,-4 -11,-7 -17,-11 -14,-9 -12,-6 -12,-14l-5 -77c-4,-68 -9,-136 -12,-203l147 0 0 -6 0 -6 -150 0c-5,0 -7,0 -9,4 -1,3 0,9 0,12l17 274c2,20 -5,11 36,38 6,4 12,3 22,3l138 0c6,0 7,0 10,-2l30 -19c7,-4 7,-6 7,-18l11 0c0,7 -1,14 3,17 3,1 6,1 8,-1 2,-2 1,-5 1,-9 0,-21 2,-18 -22,-18 0,-4 1,-6 1,-11 24,0 21,3 21,-18 0,-2 1,-14 -8,-10 -5,2 -3,9 -3,17l-9 0c0,-6 1,-15 1,-20 1,-7 0,-14 1,-21 1,-13 2,-28 3,-41l2 -41c0,-6 1,-15 1,-21 0,-7 0,-15 1,-21l4 -72c1,-19 3,-18 -13,-18l-69 0 0 6z"/>
     <path class="fil5" d="M84 138l1 9c13,-1 18,-9 26,-13 4,4 17,12 26,13 11,0 20,-8 27,-12 7,4 16,12 27,12 9,0 22,-8 26,-13 8,4 14,11 26,12l1 -9 0 -2c-15,-3 -22,-18 -30,-13 -9,5 -17,17 -30,10 -21,-10 -14,-17 -29,-6 -22,16 -27,4 -40,-5 -5,-3 -8,0 -10,2 -5,4 -13,9 -20,11l0 2z"/>
     <path class="fil3" d="M153 217c0,9 0,17 0,26 7,1 12,1 20,0 1,-8 1,-22 0,-30 -7,-1 -7,-1 -15,-1 -5,0 -5,0 -5,5z"/>
     <polygon class="fil3" points="161,277 167,277 167,255 161,255 "/>
     <path class="fil2" d="M195 8c2,3 1,5 6,5 5,0 5,-3 7,-5 -1,-3 -2,-6 -6,-6 -5,0 -6,3 -7,6z"/>
     <path class="fil3" d="M111 204c-6,4 0,10 5,7 5,-3 0,-10 -5,-7z"/>
     <path class="fil3" d="M220 166c4,4 10,1 8,-4 -1,-3 -9,-4 -8,4z"/>
     <path class="fil3" d="M208 201c-6,3 -1,9 3,7 5,-2 2,-10 -3,-7z"/>
    </g>
    <g>
     <path class="fil6" d="M53 52l-6 0c-3,-6 -4,-9 -12,-6 -10,5 -5,7 -4,13 -3,2 -4,4 -7,7 -7,-2 -9,-4 -12,4 -4,10 1,8 6,12l0 10c-6,2 -9,5 -6,12 4,9 5,6 13,4 1,1 2,2 3,3 1,1 2,2 4,3 -2,8 -4,9 5,12 7,2 10,0 11,-7l10 0c4,5 3,10 12,6 3,-1 5,-2 6,-5 1,-3 -1,-6 -2,-8 2,-2 5,-4 6,-7 8,2 9,4 13,-4 3,-8 0,-9 -7,-11l0 -10c6,-4 9,-3 5,-12 -4,-9 -5,-6 -13,-4 -2,-3 -4,-4 -7,-7 2,-7 4,-9 -4,-12 -11,-4 -8,1 -12,6l-4 0zm0 17c9,0 17,7 17,17 0,9 -7,17 -17,17 -9,0 -17,-7 -17,-17 0,-9 7,-17 17,-17z"/>
     <circle class="fil7 str0" cx="54" cy="86" r="17"/>
    </g>
   </g>
  </g>
 </g>
</svg>
