<?xml version="1.0" encoding="UTF-8"?>
<!DOCTYPE svg PUBLIC "-//W3C//DTD SVG 1.1//EN" "http://www.w3.org/Graphics/SVG/1.1/DTD/svg11.dtd">
<!-- Creator: CorelDRAW X5 -->
<svg xmlns="http://www.w3.org/2000/svg" xml:space="preserve" width="0.333331in" height="0.333331in" style="shape-rendering:geometricPrecision; text-rendering:geometricPrecision; image-rendering:optimizeQuality; fill-rule:evenodd; clip-rule:evenodd"
viewBox="0 0 333 333"
 xmlns:xlink="http://www.w3.org/1999/xlink">
 <defs>
  <style type="text/css">
   <![CDATA[
    .fil0 {fill:black}
    .fil3 {fill:#5F5F5F}
    .fil6 {fill:#6BC148}
    .fil2 {fill:#929292}
    .fil4 {fill:#CCCCCC}
    .fil5 {fill:#D24034}
    .fil1 {fill:#F1F1F1}
   ]]>
  </style>
 </defs>
 <g id="Layer_x0020_1">
  <metadata id="CorelCorpID_0Corel-Layer"/>
  <g id="_340058000">
   <path class="fil0" d="M3 30l0 295c0,3 2,5 5,5l295 0c6,0 5,-6 5,-12 0,-27 -1,-187 0,-189l8 -10c10,-15 13,-26 13,-45 0,-10 -3,-21 -7,-28 -12,-24 -36,-42 -64,-42 -21,0 -35,4 -50,17 -1,1 -4,4 -5,4 -3,2 -162,1 -189,1 -6,0 -13,-1 -13,5z"/>
   <polygon class="fil1" points="56,319 125,319 125,119 56,119 "/>
   <path class="fil1" d="M135 319l68 0 0 -188c0,-5 -1,-3 -4,-6 -3,-3 -3,-6 -6,-6l-59 0 0 200z"/>
   <path class="fil2" d="M14 319l11 0 0 -225c0,-9 6,-7 13,-7l146 0c-3,-24 2,-34 12,-53l-3 0 -179 0 0 285z"/>
   <path class="fil2" d="M235 148l0 172 63 0 0 -182c-10,5 -15,9 -28,12 -14,3 -22,1 -35,-2z"/>
   <path class="fil1" d="M196 60l3 10c3,8 5,14 10,20 1,2 1,2 3,3 5,7 18,21 24,23 0,-14 5,-13 5,-19 0,-6 0,-17 0,-24 -16,-9 -20,-29 -11,-43 2,-3 13,-15 19,-11 5,3 1,17 3,21 0,0 2,2 2,2 2,2 0,1 3,2 5,-3 5,-7 5,-11 0,-5 -1,-12 2,-14 7,-5 30,15 22,37 -1,4 -3,8 -6,10 -1,1 -2,3 -4,4 -6,5 -5,-1 -5,20 0,9 -1,7 3,13 7,12 -2,23 -2,24 1,2 -1,1 2,1 1,2 13,1 16,0 9,-7 13,-9 19,-20 31,-51 -19,-114 -77,-92 -14,5 -25,16 -32,28 -2,3 -6,10 -5,14z"/>
   <path class="fil0" d="M235 117c2,9 6,14 13,17 4,2 9,2 14,1 7,-2 7,-4 10,-6 0,-1 9,-12 2,-24 -4,-6 -3,-4 -3,-13 0,-21 -1,-15 5,-20 2,-1 3,-3 4,-4 2,-2 4,-6 6,-10 8,-22 -15,-42 -22,-37 -3,2 -2,9 -2,14 0,4 0,8 -5,11 -2,-1 -1,0 -3,-2 0,0 -2,-2 -2,-2 -3,-4 2,-17 -3,-21 -6,-4 -17,8 -19,11 -9,14 -5,34 11,43 1,6 0,17 0,24 0,6 -6,5 -5,19z"/>
   <path class="fil3" d="M35 319l11 0 0 -204c0,-8 4,-7 11,-7 19,0 125,1 133,0l-4 -10 -3 0 -148 0 0 221z"/>
   <path class="fil0" d="M249 172c-5,2 -3,6 -3,11 0,8 0,55 0,58 1,4 5,4 10,4 36,0 32,6 32,-26 0,-4 0,-41 0,-43 -1,-4 -5,-4 -10,-4 -5,0 -25,-1 -28,1z"/>
   <path class="fil3" d="M214 319l11 0 0 -176c-4,-1 -7,-4 -10,-6l0 182z"/>
   <path class="fil1" d="M291 130c-3,0 -14,2 -16,0 -3,0 -1,1 -2,-1 -3,2 -4,4 -10,6 -5,1 -9,1 -14,-1 -7,-3 -12,-8 -13,-17 -7,-3 -20,-17 -24,-23 -1,-1 -1,-2 -3,-3 -4,-7 -7,-13 -10,-20l-3 -10c-3,4 -3,16 -3,21 2,40 42,68 81,57 7,-2 11,-5 17,-7z"/>
   <path class="fil4" d="M251 72l0 28c0,7 -6,6 -5,14 1,12 20,12 21,0 1,-8 -5,-7 -5,-15l0 -28c0,-6 2,-5 6,-8 11,-7 12,-24 4,-30 0,10 1,9 -5,15 -2,2 -8,8 -11,8 -3,0 -9,-6 -11,-8 -6,-6 -5,-4 -5,-15 -7,6 -8,22 4,29 4,3 7,2 7,8z"/>
   <polygon class="fil4" points="256,235 277,235 277,182 256,182 "/>
   <path class="fil0" d="M97 46c-3,1 -14,17 -17,20 -11,14 10,11 20,11 13,0 26,2 14,-13 -3,-4 -5,-7 -8,-11 -2,-3 -5,-9 -10,-8z"/>
   <path class="fil0" d="M144 46c-8,4 1,12 8,22 9,12 10,12 19,0 5,-7 17,-19 9,-22 -2,-1 -34,-1 -36,0z"/>
   <polygon class="fil0" points="262,204 272,204 272,193 262,193 "/>
   <polygon class="fil0" points="262,225 272,225 272,214 262,214 "/>
   <path class="fil5" d="M161 63c2,-2 3,-4 5,-6l-2 0 -5 0 -2 0c2,2 3,4 5,6z"/>
   <path class="fil6" d="M93 66l2 0 5 0 2 0c-2,-2 -3,-4 -5,-6 -2,2 -3,4 -5,6z"/>
  </g>
 </g>
</svg>
