<?xml version="1.0" encoding="UTF-8"?>
<!DOCTYPE svg PUBLIC "-//W3C//DTD SVG 1.1//EN" "http://www.w3.org/Graphics/SVG/1.1/DTD/svg11.dtd">
<!-- Creator: CorelDRAW X5 -->
<svg xmlns="http://www.w3.org/2000/svg" xml:space="preserve" width="0.333331in" height="0.333331in" style="shape-rendering:geometricPrecision; text-rendering:geometricPrecision; image-rendering:optimizeQuality; fill-rule:evenodd; clip-rule:evenodd"
viewBox="0 0 333 333"
 xmlns:xlink="http://www.w3.org/1999/xlink">
 <defs>
  <style type="text/css">
   <![CDATA[
    .fil0 {fill:none}
    .fil1 {fill:#313131}
    .fil5 {fill:#48CAE4}
    .fil6 {fill:#636874}
    .fil4 {fill:#939899}
    .fil3 {fill:#ACE6F2}
    .fil2 {fill:#CFD6D8}
    .fil9 {fill:#E53935}
    .fil7 {fill:#E7F0F1}
    .fil8 {fill:#EF5350}
    .fil10 {fill:#FEC300}
    .fil12 {fill:#FF7272}
    .fil11 {fill:#FFE900}
   ]]>
  </style>
 </defs>
 <g id="Layer_x0020_1">
  <metadata id="CorelCorpID_0Corel-Layer"/>
  <g id="_339704352">
   <rect class="fil0" width="333" height="333"/>
   <g>
    <path class="fil1" d="M7 117c10,-2 2,-14 10,-23 6,-6 18,-5 28,-5 17,0 35,0 52,0 11,0 42,-2 50,2 6,3 8,9 8,18l0 78c0,12 -3,20 -15,22l-13 -22c-3,-3 -4,-9 -8,-10 -5,-2 -9,5 -11,7 -2,2 -4,4 -6,7 -6,7 -12,13 -18,19 -14,0 -27,0 -41,0 -14,0 -25,2 -30,-10 -3,-6 -1,-47 -1,-58 0,-7 2,-13 -5,-14 -6,0 -6,4 -5,10l0 47c0,13 0,19 6,26 5,6 11,10 21,10l0 55c-26,0 -28,-2 -27,10 0,16 -3,32 14,42 9,5 21,3 34,3 7,0 13,1 13,-5 -2,-11 -25,-2 -38,-6 -14,-4 -12,-17 -12,-32l22 0 93 0c0,12 2,11 14,11l49 0c11,0 14,1 14,-11l115 0c0,7 1,16 -1,22 -3,9 -10,11 -22,11 -71,0 -143,0 -214,0 -6,0 -10,0 -11,5 0,7 8,5 16,5l198 0c18,0 27,2 36,-8 10,-10 8,-16 8,-36 0,-11 1,-12 -10,-12 -7,0 -15,0 -22,0 1,-1 7,-5 9,-7 19,-17 29,-47 20,-74 -1,-4 -4,-10 -9,-7 -6,3 -2,9 -1,15 1,6 2,12 1,19 -1,10 -6,25 -12,30 -3,6 -12,13 -18,16 -20,12 -46,11 -65,-2 -5,-4 -5,-4 -9,-8 -27,-26 -21,-72 8,-91 11,-9 32,-14 50,-10 30,8 28,25 40,21 6,-5 -3,-13 -6,-15 -6,-5 -4,-1 -4,-22 0,-15 -1,-8 3,-16 4,-7 2,-21 2,-31 0,-9 1,-45 -1,-50 -1,-3 -3,-5 -6,-7 -6,-4 -14,-3 -24,-3 -5,0 -7,1 -7,6 1,8 11,5 19,5 11,0 8,7 8,17 0,16 0,33 0,49 0,14 -3,11 -36,11 -56,0 -52,5 -52,-18l0 -47c0,-11 0,-12 11,-12 7,0 15,0 22,0 7,0 15,2 16,-5 0,-6 -5,-6 -12,-5 -7,0 -29,0 -34,0 -4,0 -9,3 -11,6 -3,4 -3,6 -3,14l0 52 -33 0c0,-10 -4,-15 -9,-20 -6,-6 -11,-7 -23,-7l-89 0c-9,0 -21,-1 -28,2 -12,5 -17,15 -17,27 0,6 0,9 6,10z"/>
    <path class="fil1" d="M48 123c-17,0 -25,3 -25,21 0,5 -1,18 1,22 3,9 9,9 10,12 0,6 -2,19 3,21 5,2 12,-7 15,-10 3,-3 10,-11 14,-12 7,-1 18,1 24,-1 8,-4 10,-9 10,-21 5,0 5,2 11,8 2,2 12,13 15,14 3,1 5,-1 6,-3 1,-3 1,-15 1,-19 2,-3 7,-2 10,-11 2,-5 1,-14 1,-20 0,-9 0,-24 -16,-25 -13,-1 -28,0 -41,0 -15,0 -19,7 -19,22l-19 0z"/>
    <path class="fil1" d="M57 7l0 55c0,3 2,5 5,5l77 0c3,0 5,-2 5,-5l0 -55c0,-3 -2,-5 -5,-5l-77 0c-3,0 -5,2 -5,5z"/>
    <path class="fil2" d="M189 205c-1,1 -1,0 -2,2 -1,-2 -8,-7 -10,-8l0 -83 -11 0c0,21 0,41 0,62 0,16 2,26 -10,36 -3,2 -8,4 -10,6 3,4 6,9 8,13 9,15 -9,10 -41,20 5,5 13,10 10,22 12,0 15,-2 15,11l55 0c0,-16 5,-9 27,-11 -2,-2 -5,-4 -7,-6 -3,-2 -4,-4 -7,-6 -3,-3 -8,-10 -11,-15 -7,-14 -9,-26 -7,-44z"/>
    <path class="fil3" d="M225 167c-1,7 -3,11 -3,18 5,-3 9,-5 17,-3 12,3 16,15 12,27 -3,9 -3,9 2,15 5,5 5,6 14,3 6,-2 11,-3 18,0 4,2 8,6 10,11 2,8 0,12 -3,17 7,-1 12,-2 17,-3 5,-5 11,-20 12,-30 1,-6 0,-13 -1,-19 -1,-6 -5,-12 1,-15 -2,-4 -3,-7 -5,-10 -11,4 -10,-13 -40,-21 -18,-4 -39,0 -50,10z"/>
    <path class="fil4" d="M38 300c1,1 1,1 2,3 2,1 3,3 6,4 1,0 2,1 3,2 4,1 4,0 4,0 -3,-5 -1,-11 5,-9 2,0 4,2 4,5 0,3 -1,4 -3,5 2,1 207,1 209,0 -2,-2 -3,-3 -3,-6 0,-2 3,-4 5,-4 6,0 7,6 2,10 2,1 15,1 17,0 -2,-2 -3,-3 -3,-6 0,-2 3,-4 5,-4 6,0 7,6 2,10 2,1 20,1 24,1 2,-6 1,-15 1,-22l-115 0c0,12 -2,11 -14,11l-49 0c-11,0 -14,1 -14,-11l-93 0c0,6 2,8 3,12z"/>
    <path class="fil5" d="M7 117l0 11c7,1 5,8 5,14 0,12 -1,52 1,58 5,11 16,10 30,10 14,0 27,0 41,0 5,-7 11,-12 18,-19 2,-2 5,-4 6,-7 -5,-1 -17,-5 -19,-8 -6,3 -17,1 -24,1 -4,0 -11,9 -14,12 -2,2 -10,12 -15,10 -5,-2 -3,-15 -3,-21 -2,-3 -8,-3 -10,-12 -1,-4 -1,-17 -1,-22 0,-18 8,-21 25,-21l-2 -11c-6,0 -17,2 -17,-6 0,-7 10,-5 16,-5l0 -11c-11,0 -22,-2 -28,5 -9,9 0,21 -10,23z"/>
    <path class="fil1" d="M222 185c-7,6 -11,20 -9,34 3,20 25,41 44,45 14,2 27,-1 34,-9 3,-5 5,-9 3,-17 -2,-5 -5,-9 -10,-11 -6,-3 -11,-2 -18,0 -9,3 -9,3 -14,-3 -6,-6 -5,-5 -2,-15 4,-13 0,-24 -12,-27 -7,-2 -12,0 -17,3z"/>
    <path class="fil6" d="M62 326l11 0c1,-6 5,-5 11,-5 71,0 143,0 214,0 12,0 18,-2 22,-11 -4,0 -22,1 -24,-1l-5 0c-2,1 -16,1 -17,0l-5 0c-2,1 -207,1 -209,0 -3,1 -3,0 -6,-1 0,0 0,2 -4,0 -1,0 -3,-1 -3,-2 -3,-2 -3,-3 -6,-4 0,7 -7,9 -10,5 -3,-4 1,-11 8,-7 -2,-5 -3,-6 -3,-12l-22 0c0,15 -2,28 12,32 13,4 36,-5 38,6z"/>
    <path class="fil3" d="M46 101c5,0 11,0 11,5 0,5 -5,5 -10,6l2 11 19 0c0,-15 4,-22 19,-22 13,0 28,0 41,0 17,1 16,15 16,25 0,6 1,15 -1,20 -3,8 -8,7 -10,11 0,4 1,16 -1,19 -1,2 -3,4 -6,3 -3,-1 -13,-12 -15,-14 -6,-6 -6,-8 -11,-8 0,12 -2,17 -10,21 2,3 14,8 19,8 2,-2 6,-9 11,-7 4,1 5,7 8,10 6,1 21,0 27,0l0 -78c0,-9 -2,-15 -8,-18 -8,-4 -38,-2 -50,-2 -17,0 -35,0 -52,0l0 11z"/>
    <path class="fil7" d="M189 205c10,-52 62,-74 103,-53l0 -19c-18,0 -37,0 -55,0 -18,0 -37,3 -38,-16l-22 0 0 83c2,1 9,6 10,8 1,-3 1,-2 2,-2z"/>
    <path class="fil1" d="M224 63c-4,5 -2,11 -2,19 0,27 -3,24 19,24 6,0 16,1 22,0 3,-2 3,-2 4,-5 1,-2 0,0 1,-2 2,2 14,8 17,7 6,-2 4,-15 4,-22 0,-6 2,-20 -4,-22 -3,-1 -15,5 -17,7 -1,-2 0,-6 -6,-7 -3,-1 -33,-1 -37,1z"/>
    <path class="fil5" d="M308 252c-6,1 -11,2 -17,3 -7,8 -21,11 -34,9 -19,-3 -41,-25 -44,-45 -2,-14 2,-27 9,-34 1,-7 2,-11 3,-18 -29,19 -35,65 -8,91 4,4 3,4 9,8 19,13 44,14 65,2 6,-4 15,-11 18,-16z"/>
    <path class="fil8" d="M222 46c0,7 1,11 2,17 4,-1 34,-1 37,-1 5,1 4,5 6,7 3,-2 14,-8 17,-7 6,2 4,15 4,22 0,6 2,20 -4,22 -3,1 -15,-5 -17,-7 -1,2 0,0 -1,2 -1,3 0,3 -4,5l3 2c1,1 3,1 4,1 3,1 6,1 8,2 7,1 14,1 21,1 0,-16 0,-33 0,-49 0,-9 2,-16 -8,-17 -8,0 -18,2 -19,-5l-11 0c-1,7 -9,5 -16,5 -7,0 -15,0 -22,0z"/>
    <path class="fil9" d="M299 112c-7,0 -14,0 -21,-1 -3,0 -6,-1 -8,-2 -1,0 -3,-1 -4,-1l-3 -2c-6,1 -16,0 -22,0 -21,0 -19,3 -19,-24 0,-8 -1,-14 2,-19 -1,-6 -2,-11 -2,-17 -11,0 -11,2 -11,12l0 47c0,23 -4,18 52,18 32,0 36,3 36,-11z"/>
    <path class="fil10" d="M68 57l66 0 0 -37c-2,1 -20,17 -24,20 -10,8 -8,8 -18,0 -3,-2 -6,-4 -8,-7l-16 -13 0 37z"/>
    <path class="fil2" d="M40 276l50 0 -8 -7c-3,-3 -5,0 -11,0 -18,-1 -25,-22 -16,-35 5,-6 11,-8 17,-12l-33 0 0 55z"/>
    <path class="fil10" d="M76 167c-1,-1 -3,-2 -4,-3 -6,-6 -18,-22 -19,-30 -21,0 -18,-1 -19,20 0,7 -1,11 5,13 7,2 5,6 6,14 3,-2 8,-8 11,-10 5,-5 10,-3 19,-3z"/>
    <path class="fil11" d="M93 218c3,7 20,12 32,12 4,0 10,0 13,-3l-20 -35c-1,1 -24,24 -24,26z"/>
    <path class="fil11" d="M223 206c2,2 6,25 30,39 3,2 5,3 8,4 2,1 7,2 8,3 6,-1 12,-3 14,-7 3,-6 -2,-12 -8,-11 -11,1 -16,11 -30,-3 -11,-11 -9,-12 -5,-29 2,-7 -2,-12 -9,-11 -5,1 -7,8 -8,14z"/>
    <path class="fil8" d="M134 134c-11,0 -19,0 -28,-5 -6,-4 -12,-9 -14,-17 -11,0 -13,-1 -13,11 17,0 22,5 22,22 15,0 11,7 22,14 0,-6 -1,-12 4,-14 7,-2 7,-3 7,-11z"/>
    <path class="fil10" d="M138 227c-3,2 -9,3 -13,3 -12,0 -29,-5 -32,-12 -2,1 -2,2 -4,3 -1,2 -2,2 -4,3 1,4 10,19 12,22l44 -10 -5 -9z"/>
    <path class="fil12" d="M134 134c0,-5 0,-11 0,-16 0,-6 -4,-6 -10,-6 -11,0 -22,0 -32,0 2,8 8,14 14,17 8,5 17,5 28,5z"/>
    <path class="fil1" d="M261 174c-2,1 -3,4 -2,7 3,5 11,-1 23,10 10,8 8,19 10,23 2,5 16,6 8,-15 -2,-6 -5,-10 -8,-14 -8,-8 -24,-16 -31,-12z"/>
    <path class="fil11" d="M90 161c0,-5 0,-10 0,-15 0,-5 1,-10 -3,-12 -3,-2 -24,-1 -29,-1 2,13 17,26 31,27z"/>
    <path class="fil11" d="M89 23c1,1 11,9 12,10 2,-1 4,-3 6,-5l6 -5c4,-4 8,-6 12,-10l-36 0 1 10z"/>
    <path class="fil5" d="M156 189c-7,0 -22,1 -27,0l13 22c12,-2 15,-10 15,-22z"/>
    <path class="fil10" d="M269 253c-2,-2 -6,-3 -8,-3 -3,-1 -5,-2 -8,-4 -24,-14 -28,-37 -30,-39 -4,15 7,27 13,33 6,6 18,17 33,14z"/>
    <path class="fil12" d="M62 248c2,2 7,5 12,4 4,0 10,-3 11,-6 -2,-4 -6,-11 -9,-15 -7,3 -15,7 -15,16z"/>
    <path class="fil10" d="M76 167c7,0 13,1 14,-6 -14,-1 -29,-14 -31,-27l-5 0c1,8 13,24 19,30 1,1 3,2 4,3z"/>
    <path class="fil1" d="M263 196c-3,1 -5,2 -4,7 1,4 3,3 7,4 6,2 2,13 11,10 10,-3 -2,-25 -14,-21z"/>
    <path class="fil1" d="M47 112c5,0 10,0 10,-6 0,-6 -6,-5 -11,-5 -6,0 -16,-2 -16,5 0,7 11,5 17,6z"/>
    <path class="fil11" d="M255 90l0 -17 -17 0c0,10 7,16 17,17z"/>
    <path class="fil10" d="M233 83c4,2 7,9 12,12l10 0 0 -5c-10,0 -16,-7 -17,-17l-5 0 0 10z"/>
    <path class="fil10" d="M94 261c2,4 4,5 7,7 3,3 4,4 11,4l1 -1c0,0 0,0 0,-1 -2,-4 -4,-4 -7,-6 -3,-2 -4,-4 -7,-6 -3,1 -5,1 -6,3z"/>
    <path class="fil8" d="M62 248c1,6 5,10 12,10 4,0 12,-5 14,-7l-2 -4c-1,3 -7,5 -11,6 -5,0 -10,-2 -12,-4z"/>
    <path class="fil1" d="M53 308c3,1 3,1 6,1 2,-1 3,-3 3,-5 0,-2 -2,-4 -4,-5 -6,-1 -8,4 -5,9z"/>
    <path class="fil1" d="M40 302c-1,-2 -1,-2 -2,-3 -6,-3 -11,3 -8,7 3,5 10,3 10,-5z"/>
    <path class="fil1" d="M269 309l5 0c5,-4 3,-10 -2,-10 -3,0 -5,2 -5,4 -1,3 1,5 3,6z"/>
    <path class="fil1" d="M291 309l5 0c5,-4 3,-10 -2,-10 -3,0 -5,2 -5,4 -1,3 1,5 3,6z"/>
    <path class="fil10" d="M113 270c0,0 0,0 0,1l-1 1c-7,0 -7,0 -11,-4 -3,-3 -5,-3 -7,-7 -6,2 -2,2 7,11 8,8 13,4 12,-2z"/>
    <path class="fil11" d="M268 81c1,4 5,7 9,9l0 -13 -9 4z"/>
    <path class="fil10" d="M244 95c-5,-3 -8,-10 -12,-12l0 12 12 0z"/>
    <path class="fil10" d="M89 23l-1 -10 -11 0c4,4 7,6 11,10z"/>
    <path class="fil10" d="M277 90c-4,-2 -8,-4 -9,-9l-2 1 0 5 10 5c1,-1 0,1 1,-2z"/>
   </g>
  </g>
 </g>
</svg>
