<?xml version="1.0" encoding="UTF-8"?>
<!DOCTYPE svg PUBLIC "-//W3C//DTD SVG 1.1//EN" "http://www.w3.org/Graphics/SVG/1.1/DTD/svg11.dtd">
<!-- Creator: CorelDRAW X5 -->
<svg xmlns="http://www.w3.org/2000/svg" xml:space="preserve" width="0.333331in" height="0.333331in" style="shape-rendering:geometricPrecision; text-rendering:geometricPrecision; image-rendering:optimizeQuality; fill-rule:evenodd; clip-rule:evenodd"
viewBox="0 0 333 333"
 xmlns:xlink="http://www.w3.org/1999/xlink">
 <defs>
  <style type="text/css">
   <![CDATA[
    .str0 {stroke:#ED3237;stroke-width:6.94488}
    .fil0 {fill:none}
    .fil12 {fill:#FEFEFE}
    .fil1 {fill:black}
    .fil10 {fill:#00687C}
    .fil8 {fill:#01D0FB}
    .fil9 {fill:#08A9F0}
    .fil5 {fill:#3DC6EF}
    .fil4 {fill:#447D98}
    .fil2 {fill:#548DB4}
    .fil7 {fill:#A0DCF3}
    .fil3 {fill:#C8EAF9}
    .fil6 {fill:#F37C7A}
    .fil11 {fill:url(#id0)}
   ]]>
  </style>
  <linearGradient id="id0" gradientUnits="userSpaceOnUse" x1="90.8858" y1="85.4567" x2="63.2362" y2="35.126">
   <stop offset="0" style="stop-color:#ED3237"/>
   <stop offset="1" style="stop-color:#F58634"/>
  </linearGradient>
 </defs>
 <g id="Layer_x0020_1">
  <metadata id="CorelCorpID_0Corel-Layer"/>
  <g id="_340830576">
   <rect class="fil0" width="333" height="333"/>
   <g>
    <g>
     <path class="fil1" d="M214 260c3,-2 3,-3 3,-8l0 -155c0,-4 0,-5 -3,-7 -23,-1 -46,0 -69,0 -23,0 -45,0 -68,0 -58,0 -50,-4 -50,18l0 136c0,19 -2,17 17,17l101 0c22,0 47,1 68,0z"/>
     <path class="fil2" d="M53 73c-1,5 -1,9 -1,15l153 0c2,0 6,0 8,0 2,0 1,0 2,1 3,2 3,3 3,7l0 155c0,5 0,6 -3,8 -1,1 -1,1 -5,1l-158 0c0,5 -1,10 1,14l181 0c1,-7 0,-119 0,-139 0,-5 -2,-15 5,-15 6,0 5,9 5,15 0,18 -1,134 0,140l67 0c11,0 12,1 12,-11l0 -180c0,-11 1,-12 -11,-12l-68 0c0,7 0,14 0,21 0,6 2,16 -5,16 -7,0 -5,-10 -5,-16 0,-7 0,-14 0,-22l-142 0c-7,0 -14,2 -16,-5l-11 0c-1,6 -6,5 -12,5z"/>
     <path class="fil3" d="M52 220l24 0c-1,-3 -3,-5 -4,-9 -1,-4 -1,-7 -2,-11 -4,-23 -7,-19 39,-19 5,0 7,0 7,5l11 0c1,-7 7,-5 20,-5 32,0 31,-4 27,19 -1,3 -1,7 -2,10 -1,5 -2,6 -4,9l39 0 0 -122 -156 0 0 122z"/>
     <path class="fil1" d="M76 68c1,7 9,5 16,5l142 0c0,7 0,14 0,22 0,5 -2,16 5,16 6,0 5,-11 5,-16 0,-7 0,-14 0,-21l68 0c12,0 11,0 11,12l0 180c0,11 -1,11 -12,11l-67 0c-1,-6 0,-121 0,-140 0,-5 2,-14 -5,-15 -7,0 -5,9 -5,15 0,19 1,132 0,139 -1,2 0,1 -7,1 -65,-1 -132,0 -197,0 -3,0 -12,0 -14,0 -5,-1 -4,-6 -4,-10l0 -175c0,-18 -2,-17 12,-17 10,0 19,0 29,0 6,0 11,1 12,-5 0,-7 -7,-5 -14,-5 -7,0 -33,-1 -38,1 -5,1 -9,5 -10,10 0,1 0,4 0,10l0 188c0,15 12,15 23,15 1,8 3,12 8,16 5,4 11,4 20,4 10,0 14,1 20,-3 5,-3 8,-8 8,-16l173 0c0,8 3,12 7,16 6,4 10,4 20,4 13,0 26,0 28,-19 8,0 18,1 22,-9 0,-1 1,-2 1,-4l0 -26 0 -158 0 -12c-1,-5 -2,-9 -9,-12 -7,-3 -21,-1 -30,-1l-206 0c-6,0 -11,-1 -11,5z"/>
     <path class="fil4" d="M234 275l-181 0c-2,-4 -1,-10 -1,-14l158 0c4,0 4,0 5,-1 -22,1 -46,0 -68,0l-101 0c-19,0 -17,2 -17,-17l0 -136c0,-22 -7,-18 50,-18 23,0 45,0 68,0 23,0 46,-1 69,0 -1,-1 0,0 -2,-1 -2,-1 -6,0 -8,0l-153 0c0,-6 0,-10 1,-15 -10,0 -19,0 -29,0 -14,0 -12,-1 -12,17l0 175c0,4 -1,9 4,10 2,1 11,0 14,0 65,0 132,-1 197,0 7,0 6,1 7,-1z"/>
     <polygon class="fil5" points="208,250 208,230 52,230 52,250 "/>
     <path class="fil1" d="M262 96l0 54c0,5 2,7 7,7l28 0c5,0 7,-2 7,-7l0 -54c0,-5 -2,-7 -7,-7l-29 0c-5,0 -6,2 -6,7z"/>
     <path class="fil6" d="M128 187l-11 0c-1,7 -7,5 -17,5 -7,0 -14,0 -22,0 0,7 2,22 9,27 6,4 26,2 35,2 22,0 39,4 42,-13 1,-4 2,-12 2,-16 -9,0 -24,0 -32,0 -4,0 -5,-1 -6,-5z"/>
     <polygon class="fil7" points="52,220 52,99 37,99 37,220 "/>
     <path class="fil1" d="M278 170c-27,7 -18,47 10,41 10,-2 18,-13 15,-25 -2,-10 -13,-19 -25,-15z"/>
     <polygon class="fil8" points="294,99 272,99 272,147 294,147 "/>
     <path class="fil1" d="M137 116c-4,1 -8,7 -9,11 -2,9 5,14 10,20 6,6 -5,7 -4,13 2,13 26,-6 9,-22 -4,-3 -9,-6 -4,-12 2,-2 4,-3 4,-7 0,-2 -3,-4 -6,-4z"/>
     <path class="fil1" d="M105 117c-9,6 -12,16 -2,26 6,5 8,7 3,12 -6,6 -1,12 4,9 3,-1 7,-7 8,-12 1,-10 -8,-15 -11,-19 -4,-6 7,-7 5,-14 -1,-3 -4,-4 -7,-2z"/>
     <path class="fil9" d="M208 250l-156 0 0 -19 156 0 -170 0 0 20c18,0 167,1 171,0z"/>
     <path class="fil3" d="M279 180c-14,5 -6,26 8,21 13,-5 6,-26 -8,-21z"/>
     <path class="fil1" d="M265 227c-4,1 -5,5 -2,8 2,2 8,1 12,1 4,0 23,0 26,0 3,-1 4,-6 1,-8 -3,-2 -36,-1 -36,-1z"/>
     <path class="fil1" d="M269 260l28 0c9,0 9,-10 0,-10l-29 0c-8,0 -9,10 1,10z"/>
     <path class="fil4" d="M45 295l16 0c7,0 10,-2 10,-10l-35 0 -1 0c0,7 3,10 10,10z"/>
     <path class="fil4" d="M273 295l15 0c7,0 10,-3 10,-10l-35 0c0,7 3,10 10,10z"/>
     <path class="fil10" d="M294 99l0 48 -22 0 0 -48c0,0 0,0 0,0 0,1 0,-1 0,5 0,9 -1,39 0,43l23 0c0,0 1,-42 0,-47 0,-3 0,-1 -1,-2z"/>
    </g>
    <g>
     <path class="fil11" d="M77 34l-4 0c-2,-5 -3,-7 -9,-4 -8,4 -4,5 -3,10 -2,1 -3,3 -5,5 -6,-1 -7,-3 -9,3 -3,8 1,6 5,9l0 8c-5,1 -7,4 -4,9 3,7 4,4 10,3 1,1 1,2 3,3 1,1 2,1 3,3 -1,6 -3,7 4,10 5,2 8,0 8,-5l8 0c3,4 2,8 9,4 2,-1 4,-2 4,-4 1,-3 -1,-4 -2,-6 2,-2 4,-3 5,-6 6,1 7,3 10,-3 2,-6 0,-7 -5,-9l0 -8c5,-3 7,-2 4,-9 -3,-7 -4,-5 -10,-3 -1,-2 -3,-3 -5,-5 1,-5 3,-7 -3,-10 -8,-3 -6,1 -9,5l-3 0zm0 14c7,0 13,6 13,13 0,7 -6,13 -13,13 -7,0 -13,-6 -13,-13 0,-7 6,-13 13,-13z"/>
     <circle class="fil12 str0" cx="77" cy="60" r="13"/>
    </g>
   </g>
  </g>
 </g>
</svg>
