<?xml version="1.0" encoding="UTF-8"?>
<!DOCTYPE svg PUBLIC "-//W3C//DTD SVG 1.1//EN" "http://www.w3.org/Graphics/SVG/1.1/DTD/svg11.dtd">
<!-- Creator: CorelDRAW X5 -->
<svg xmlns="http://www.w3.org/2000/svg" xml:space="preserve" width="0.333331in" height="0.333331in" style="shape-rendering:geometricPrecision; text-rendering:geometricPrecision; image-rendering:optimizeQuality; fill-rule:evenodd; clip-rule:evenodd"
viewBox="0 0 333 333"
 xmlns:xlink="http://www.w3.org/1999/xlink">
 <defs>
  <style type="text/css">
   <![CDATA[
    .fil0 {fill:black}
    .fil9 {fill:#5D6972}
    .fil2 {fill:#79828A}
    .fil7 {fill:#80BACE}
    .fil5 {fill:#A6CFE0}
    .fil4 {fill:#EAAC47}
    .fil1 {fill:#F7C25E}
    .fil6 {fill:#F8B894}
    .fil3 {fill:#FED2B5}
    .fil8 {fill:#FFFEFD}
   ]]>
  </style>
 </defs>
 <g id="Layer_x0020_1">
  <metadata id="CorelCorpID_0Corel-Layer"/>
  <g id="_176218472">
   <path class="fil0" d="M85 202c-8,1 -5,9 -5,20 0,8 0,17 0,25l-11 0 0 -81 11 0c0,5 0,10 0,15 0,6 0,9 5,10 6,0 5,-4 5,-10 0,-5 0,-11 0,-16 9,-5 11,-8 11,-18 0,-8 4,-10 10,-19l31 -43c2,-3 5,-7 1,-10 -3,-3 -15,-9 -19,-11 -34,-16 -77,-14 -109,5 -3,2 -7,4 -9,6 -6,5 1,11 7,18l34 47c2,2 1,3 1,6 0,10 1,14 11,19l0 83c-8,4 -11,7 -11,16 0,7 -1,21 1,25 2,5 5,6 10,9 0,8 0,15 0,23 0,6 1,8 5,8l23 0c6,-1 5,-6 5,-31 14,0 27,0 41,0 17,0 25,2 35,-5 0,8 0,15 0,23 0,11 -1,13 10,13l140 0c6,0 10,0 11,0 3,-1 3,-4 3,-9l0 -105c0,-17 -3,-23 -13,-35 -3,-3 -10,-9 -15,-10 0,-19 0,-39 0,-58 0,-17 2,-44 -1,-58 -8,-39 -51,-63 -95,-49 -20,7 -39,26 -43,47 -3,15 -2,40 -2,57 0,20 0,39 0,59 -4,2 -8,4 -11,7 -7,5 -12,14 -14,22 -3,8 -2,44 -1,53 0,6 1,5 -14,5 -7,0 -13,0 -20,0 -4,-6 -3,-6 -10,-10l0 -38c0,-5 0,-8 -5,-8z"/>
   <path class="fil1" d="M286 244c0,-2 -8,-17 -10,-19 -4,4 -8,4 -16,3 -3,0 -9,-4 -2,-10l-64 0c-3,8 -6,8 -5,19 1,16 8,35 20,47 24,24 44,27 78,27l0 -66z"/>
   <path class="fil2" d="M258 73c1,2 1,1 2,2 6,-4 7,0 14,0 6,0 11,0 18,1 0,-21 -4,-32 -16,-44 -9,-9 -24,-18 -44,-18 -20,0 -35,9 -44,18 -12,12 -16,23 -16,44 10,-2 41,-1 54,-1 11,0 15,0 21,-6 2,-2 4,-5 8,-4 5,1 3,6 2,8z"/>
   <path class="fil3" d="M199 85c0,16 4,30 17,40 13,9 31,15 46,9 2,-1 6,-6 7,-8 2,-3 4,-7 5,-11 2,-8 1,-21 1,-30 -8,0 -19,-1 -16,-10 -1,-1 -1,0 -2,-2 -3,2 -6,5 -10,8 -4,2 -8,4 -13,4 -11,0 -24,0 -35,0z"/>
   <path class="fil4" d="M286 244l0 66c-34,0 -54,-3 -78,-27 -11,-12 -19,-30 -20,-47 0,-11 2,-11 5,-19 -3,0 -3,3 -6,8 -11,21 -10,13 -10,35 0,20 0,39 0,59l109 0 0 -67c0,-2 0,-3 0,-4 0,-1 0,-3 -1,-5z"/>
   <path class="fil1" d="M28 75c0,2 3,5 5,9 12,16 20,27 41,35 5,2 21,7 26,5 1,0 1,-1 2,-2 6,-9 26,-36 29,-41 -3,-2 -11,-6 -15,-8 -2,3 -5,9 -7,12 -2,4 -4,11 -10,9 -9,-3 3,-15 6,-25 -8,-3 -17,-4 -26,-5 -1,14 3,30 -6,30 -9,0 -5,-17 -6,-30 -9,1 -18,2 -26,5 4,10 15,22 7,25 -6,2 -8,-5 -10,-8 -2,-3 -5,-10 -7,-13l-3 2z"/>
   <path class="fil5" d="M295 238l24 0c0,-23 4,-42 -18,-56 -6,-4 -12,-5 -20,-5 0,7 -1,32 1,36 4,8 10,17 13,25z"/>
   <path class="fil3" d="M69 258c1,8 7,13 12,16 7,5 15,4 25,4 19,0 40,1 59,0 2,-4 1,-24 1,-30l-22 0c0,26 6,20 -46,20 -5,0 -8,0 -9,-4 -2,-8 -6,-6 -21,-6z"/>
   <path class="fil4" d="M101 125c-5,2 -21,-3 -26,-5 -20,-8 -29,-19 -41,-35 -3,-4 -6,-7 -5,-9 -3,1 -9,4 -12,6l39 55 38 0 8 -11z"/>
   <path class="fil6" d="M165 279c-19,1 -40,0 -59,0 -10,0 -18,0 -25,-4 -5,-3 -11,-9 -12,-16 -8,0 -12,-1 -12,8 0,27 -6,23 37,23 14,0 27,0 41,0 14,0 27,1 30,-10z"/>
   <path class="fil6" d="M263 134c-15,6 -34,0 -46,-9 -13,-10 -17,-24 -17,-40l-11 0c0,22 -3,39 19,54 13,9 30,10 45,3 3,-2 9,-5 11,-8z"/>
   <path class="fil2" d="M286 106c-1,25 -17,43 -38,49 0,6 -1,12 5,12 2,-3 4,-10 14,-10 7,0 12,5 13,10l11 1 0 -63 -5 1z"/>
   <path class="fil2" d="M172 168l11 -1c2,-5 6,-10 13,-10 9,0 11,7 14,10 7,0 6,-7 5,-12 -20,-5 -37,-24 -38,-49l-5 -1 0 63z"/>
   <path class="fil6" d="M318 248l0 59c-11,-5 -10,-12 -10,-25 0,-11 0,-23 0,-34l-11 0 0 71 22 0c0,0 1,-66 0,-69l-1 -2z"/>
   <path class="fil5" d="M157 187c-1,8 -4,24 2,30 3,4 12,6 17,-2 2,-3 2,-2 6,-3l1 -1 0 -34c-10,0 -23,5 -26,10z"/>
   <path class="fil2" d="M85 202l0 -10c-6,-1 -5,-5 -5,-10 0,-5 0,-10 0,-15l-11 0 0 81 11 0c0,-8 0,-17 0,-25 0,-11 -2,-19 5,-20z"/>
   <path class="fil7" d="M182 212c-4,2 -4,0 -6,3 -6,8 -14,5 -17,2 -5,-6 -3,-21 -2,-30 -3,2 -6,6 -8,9 -2,4 -3,7 -4,12 -1,8 0,22 0,31l24 0 13 -26z"/>
   <path class="fil3" d="M213 177c7,13 31,13 37,0 -5,-3 -7,-2 -10,-7 -3,-5 -3,-8 -3,-14l-11 0c0,17 -5,16 -13,20z"/>
   <path class="fil5" d="M210 208l44 0 0 -18c-6,3 -10,8 -22,8 -6,0 -12,-2 -17,-5 -2,-1 -3,-2 -4,-3l0 18z"/>
   <path class="fil3" d="M318 248l-10 0c0,11 0,23 0,34 0,13 -1,20 10,25l0 -59z"/>
   <polygon class="fil2" points="69,303 69,306 69,320 79,320 79,306 79,303 79,299 69,299 "/>
   <path class="fil1" d="M265 171l0 36 5 0c0,-11 1,-31 0,-40 -4,-1 -5,0 -5,4z"/>
   <path class="fil1" d="M194 171l0 36 5 0c0,-12 1,-31 0,-40 -4,-1 -5,0 -5,4z"/>
   <path class="fil2" d="M70 156c4,0 12,0 16,0 5,-1 5,-5 5,-10l-22 0c0,5 0,6 1,10z"/>
   <path class="fil8" d="M276 225l-3 -7 -15 0c-7,6 -2,10 2,10 9,1 12,0 16,-3z"/>
   <path class="fil0" d="M208 91c-7,3 -4,18 4,14 6,-2 4,-18 -4,-14z"/>
   <path class="fil0" d="M252 91c-7,3 -4,18 4,14 6,-2 4,-18 -4,-14z"/>
   <path class="fil9" d="M70 156c-1,-4 -1,-5 -1,-10l-11 0c0,10 2,10 12,10z"/>
   <path class="fil6" d="M177 95l0 -10c-7,1 -7,9 0,10z"/>
   <path class="fil3" d="M286 95c7,-1 7,-9 0,-10l0 10z"/>
  </g>
 </g>
</svg>
