<?xml version="1.0" encoding="UTF-8"?>
<!DOCTYPE svg PUBLIC "-//W3C//DTD SVG 1.1//EN" "http://www.w3.org/Graphics/SVG/1.1/DTD/svg11.dtd">
<!-- Creator: CorelDRAW X5 -->
<svg xmlns="http://www.w3.org/2000/svg" xml:space="preserve" width="0.333331in" height="0.333331in" style="shape-rendering:geometricPrecision; text-rendering:geometricPrecision; image-rendering:optimizeQuality; fill-rule:evenodd; clip-rule:evenodd"
viewBox="0 0 333 333"
 xmlns:xlink="http://www.w3.org/1999/xlink">
 <defs>
  <style type="text/css">
   <![CDATA[
    .fil0 {fill:none}
    .fil2 {fill:black}
    .fil1 {fill:#30C0FE}
    .fil5 {fill:#45426C}
    .fil3 {fill:#6D81A5}
    .fil8 {fill:#C7B9BF}
    .fil7 {fill:#E08F38}
    .fil6 {fill:#ECE6E8}
    .fil4 {fill:#FCCA70}
   ]]>
  </style>
 </defs>
 <g id="Layer_x0020_1">
  <metadata id="CorelCorpID_0Corel-Layer"/>
  <g id="_339713016">
   <rect class="fil0" width="333" height="333"/>
   <g>
    <path class="fil1" d="M37 182l0 11 15 -13c-3,-3 -6,-5 -6,-11 -1,-10 9,-18 19,-15 5,1 8,5 12,6l20 -34c-4,-12 -16,-15 1,-27 3,-2 5,-4 8,-6 24,-20 22,-21 35,-13 23,13 21,8 16,35 -1,7 -2,19 -4,24 -3,9 -13,7 -22,7l-20 35c8,3 17,9 16,19 -1,11 -11,14 -21,11l-1 11 12 0c1,-6 10,-4 19,-4l168 0c1,-5 0,-88 0,-102 0,-5 -1,-9 5,-10l0 -10c-9,-1 -3,-17 -5,-33l-262 0c-1,7 0,93 0,109 0,5 1,10 -5,11z"/>
    <path class="fil2" d="M18 202c5,-1 5,-3 5,-9l0 -122c0,-6 -1,-22 2,-25 3,-2 45,-1 53,-1 72,0 144,0 217,0 32,0 28,-5 28,27l0 135c0,6 1,22 -2,25 -3,2 -45,1 -53,1l-135 0c-15,0 -21,-2 -22,5 2,6 7,5 18,5 7,0 15,0 22,0l0 25c-7,1 -11,2 -11,7 2,3 3,4 8,3 11,-2 23,-1 35,-1 12,0 30,3 41,6l11 2c2,1 2,-1 2,4l-13 0 -113 0c0,-5 0,-3 2,-4 6,-3 17,0 18,-9 -3,-6 -6,-4 -12,-3 -10,2 -20,2 -17,18 1,6 4,7 11,7l125 0c10,0 10,-11 8,-17 -2,-7 -10,-6 -19,-8 -6,-1 -26,-6 -30,-6l0 -25 117 0c7,0 14,0 18,-8 1,-2 2,-4 2,-6l0 -179c0,-3 0,-4 -2,-7 -4,-8 -12,-8 -19,-8 -43,0 -281,-1 -286,0 -6,1 -12,7 -12,15 -1,32 0,71 0,104l0 39c0,6 -1,8 5,9z"/>
    <path class="fil2" d="M37 192c-4,5 -8,8 -10,10l-9 11c-1,2 -3,4 -4,6 -4,7 -7,11 -10,19 -1,4 -2,8 -3,12l0 6c0,5 2,9 4,13 5,8 13,14 21,18 7,3 14,7 22,7 6,0 4,0 7,-3l0 -3c-1,-7 -10,-3 -15,-7 -6,0 -20,-10 -23,-13 -7,-7 -9,-16 -5,-27 7,-22 23,-37 39,-51 4,-3 20,-12 7,-20 -4,-3 -4,-10 2,-10 3,0 45,25 46,26 4,1 12,5 9,11 -3,5 -10,1 -13,-2 -4,-1 -12,-7 -14,-7 -3,0 -6,2 -5,5 0,3 3,3 5,5l7 4c-1,23 -11,56 -27,73 -3,3 -6,4 -4,10 5,5 10,-2 13,-5 9,-11 19,-30 22,-44l4 -18 1 -11c10,3 20,-1 21,-11 1,-11 -8,-16 -16,-19l20 -35c9,0 20,2 22,-7 2,-6 3,-18 4,-24 4,-27 7,-22 -16,-35 -13,-8 -11,-7 -35,13 -3,2 -5,4 -8,6 -16,13 -5,16 -1,27l-20 34c-5,-1 -7,-5 -12,-6 -10,-2 -19,5 -19,15 0,6 3,8 6,11l-15 13z"/>
    <path class="fil3" d="M18 202l0 12 9 -11c2,-2 6,-6 10,-10l0 -11c-5,-1 -5,-4 -5,-10l0 -101c0,-22 -2,-19 39,-19l231 0c15,0 11,9 11,32 0,6 1,9 -5,10l0 10c7,1 5,6 5,16 0,14 1,97 -1,102 -3,5 -10,4 -16,4l-164 0c-7,0 -15,2 -16,-5l-12 0 -4 18 10 0c2,-7 7,-5 22,-5l135 0c8,0 50,1 53,-1 3,-3 2,-20 2,-25l0 -135c0,-32 4,-27 -28,-27 -72,0 -144,0 -217,0 -8,0 -50,-1 -53,1 -3,3 -2,19 -2,25l0 122c0,6 0,8 -5,9z"/>
    <path class="fil4" d="M41 284c13,-2 26,-22 32,-34 4,-8 17,-41 15,-50 -2,-2 -4,-2 -5,-5 0,-3 2,-6 5,-5 3,0 11,6 14,7 2,-3 5,-5 4,-9 -1,-1 -43,-26 -46,-26 -6,0 -7,7 -2,10 13,9 -2,17 -7,20 -17,14 -32,29 -39,51 -4,12 -2,21 5,27 3,3 17,13 23,13z"/>
    <path class="fil2" d="M204 82c-10,0 -11,-8 -20,7 -7,13 -2,12 4,20 -2,8 -13,5 -4,20 2,3 4,7 7,9 4,2 8,-1 13,-1 5,12 1,13 19,13 12,0 8,-7 12,-13 5,0 8,3 13,1 3,-1 12,-14 10,-20 -2,-4 -5,-5 -7,-9 2,-3 9,-6 7,-13 -1,-3 -6,-12 -8,-14 -7,-6 -14,5 -16,-2 -3,-12 -4,-11 -18,-11 -11,0 -8,7 -12,13z"/>
    <path class="fil2" d="M37 182c6,-1 5,-6 5,-11 0,-16 -1,-102 0,-109l262 0c2,16 -4,31 5,33 6,-1 5,-4 5,-10 0,-23 4,-32 -11,-32l-231 0c-41,0 -39,-3 -39,19l0 101c0,6 0,8 5,10z"/>
    <path class="fil2" d="M116 220c1,7 9,5 16,5l164 0c7,0 14,1 16,-4 2,-4 1,-87 1,-102 0,-9 2,-14 -5,-16 -5,1 -5,4 -5,10 0,14 1,96 0,102l-168 0c-10,0 -18,-2 -19,4z"/>
    <path class="fil5" d="M195 90l-4 7c3,5 7,4 7,12 0,5 -2,7 -7,11 1,2 3,6 4,8 7,-1 7,-4 14,0 3,2 3,2 4,5 1,2 1,5 2,7l8 0c2,-6 1,-9 6,-12 6,-4 8,-1 15,0 1,-3 3,-4 4,-7 -16,-12 -2,-21 0,-23 -1,-3 -2,-5 -5,-7 -5,2 -9,3 -13,0 -6,-4 -3,-5 -6,-12l-8 0c-1,6 -1,9 -6,12 -7,4 -8,1 -14,0z"/>
    <path class="fil6" d="M96 170c2,-1 11,-17 12,-20 5,-9 8,-16 14,-17 14,-2 11,0 18,-29 1,-4 3,-9 2,-13l-13 -8 -31 26c6,14 13,10 2,29 -2,4 -14,24 -15,27l10 6z"/>
    <path class="fil3" d="M129 277c0,9 -12,6 -18,9 -2,1 -2,-1 -2,4l113 0 0 -6c-11,-4 -29,-6 -41,-6 -11,0 -24,-1 -35,1 -5,1 -5,0 -8,-3 -2,0 -7,1 -9,2z"/>
    <path class="fil7" d="M41 284c4,4 13,-1 15,7 3,-1 7,-2 9,-4 -2,-6 1,-7 4,-10 16,-17 26,-50 27,-73l-7 -4c2,9 -12,42 -15,50 -6,12 -19,32 -32,34z"/>
    <path class="fil2" d="M216 93c-22,6 -13,36 7,32 8,-2 15,-10 12,-20 -2,-8 -10,-15 -20,-12z"/>
    <path class="fil8" d="M96 170l7 4c4,-9 10,-17 15,-26 8,-15 7,-14 27,-14l6 -40 -7 -4c1,4 -1,9 -2,13 -7,30 -5,28 -18,29 -7,1 -9,8 -14,17 -2,3 -10,19 -12,20z"/>
    <path class="fil2" d="M71 223c-4,2 -17,27 -20,33 -4,6 -1,12 5,9 2,-1 17,-27 20,-33 3,-6 0,-11 -5,-9z"/>
    <path class="fil2" d="M53 212c-3,1 -17,26 -20,33 -5,8 2,11 5,9 2,-1 17,-27 20,-33 3,-6 0,-11 -5,-9z"/>
    <path class="fil6" d="M186 253c-4,-1 -23,-1 -27,0l0 15 27 0 0 -15z"/>
    <path class="fil8" d="M159 253c4,0 23,-1 27,0l0 -10 -27 0 0 10z"/>
    <path class="fil1" d="M217 103c-9,4 -3,15 5,12 8,-3 3,-16 -5,-12z"/>
    <path class="fil7" d="M103 197c3,3 10,7 13,2 3,-6 -6,-10 -9,-11 2,4 -2,6 -4,9z"/>
    <path class="fil2" d="M155 185c-6,4 0,12 6,8 5,-3 0,-12 -6,-8z"/>
    <path class="fil2" d="M218 175c-1,0 -5,1 -3,7 1,3 3,4 7,3 5,-2 4,-12 -3,-10z"/>
    <path class="fil2" d="M177 185c-6,3 -1,12 6,8 5,-3 2,-12 -6,-8z"/>
    <path class="fil2" d="M199 185c-4,2 -3,6 -1,7 1,2 6,2 8,1 5,-3 1,-12 -6,-8z"/>
    <path class="fil2" d="M134 185c-5,3 -2,11 5,8 6,-2 1,-12 -5,-8z"/>
    <path class="fil2" d="M218 153c-3,1 -4,3 -3,7 1,2 3,4 6,2 5,-2 2,-12 -4,-9z"/>
    <path class="fil5" d="M223 289l13 0c0,-5 0,-3 -2,-4l-11 -2 0 6z"/>
   </g>
  </g>
 </g>
</svg>
