<?xml version="1.0" encoding="UTF-8"?>
<!DOCTYPE svg PUBLIC "-//W3C//DTD SVG 1.1//EN" "http://www.w3.org/Graphics/SVG/1.1/DTD/svg11.dtd">
<!-- Creator: CorelDRAW X5 -->
<svg xmlns="http://www.w3.org/2000/svg" xml:space="preserve" width="0.333331in" height="0.333331in" style="shape-rendering:geometricPrecision; text-rendering:geometricPrecision; image-rendering:optimizeQuality; fill-rule:evenodd; clip-rule:evenodd"
viewBox="0 0 333 333"
 xmlns:xlink="http://www.w3.org/1999/xlink">
 <defs>
  <style type="text/css">
   <![CDATA[
    .fil0 {fill:none}
    .fil1 {fill:black}
    .fil8 {fill:#114996}
    .fil6 {fill:#1860B5}
    .fil5 {fill:#996521}
    .fil9 {fill:#E5C47A}
    .fil10 {fill:#E8A395}
    .fil11 {fill:#EEB8AB}
    .fil4 {fill:#F9AF3B}
    .fil7 {fill:#F9CF23}
    .fil3 {fill:#FEDB80}
    .fil2 {fill:#FEDFD2}
   ]]>
  </style>
 </defs>
 <g id="Layer_x0020_1">
  <metadata id="CorelCorpID_0Corel-Layer"/>
  <g id="_173687504">
   <rect class="fil0" width="333" height="333"/>
   <g>
    <path class="fil1" d="M115 58c0,3 1,3 1,6 -7,1 -12,3 -18,6l-5 -5 -7 7 4 5c-1,2 -2,3 -3,5 -4,6 -6,11 -7,18 -7,1 -5,9 -5,17 -5,1 -10,8 -10,14 0,8 0,10 6,16 4,4 7,4 14,4 4,15 4,17 14,28 1,1 2,1 2,2 0,18 1,17 -4,18l-39 9c-24,6 -27,27 -33,49l-12 43c-1,4 -6,20 -6,22 0,3 2,5 5,5l232 0c8,0 4,-11 3,-16l-7 -33c-1,-7 -3,-15 -5,-22 -4,-17 -4,-40 -32,-48l-38 -8c-6,-1 -5,2 -5,-18 0,-3 0,0 1,-2 5,-6 9,-9 12,-19 1,-3 1,-6 2,-9 7,0 10,-1 14,-4 14,-13 3,-29 -4,-30 0,-8 2,-17 -5,-17 -4,-15 -3,-12 -11,-23l5 -4 -8 -7 -5 5c-4,-2 -12,-6 -18,-6 2,-13 2,-11 -25,-11 -3,0 -5,2 -5,5z"/>
    <path class="fil1" d="M203 64c0,5 6,7 12,10l28 15c2,1 13,7 14,8 -1,3 -16,36 -18,41 -2,4 -11,19 -1,19 4,0 20,-15 23,-17l60 -49c6,-4 6,-9 0,-11 -2,-1 -5,-2 -7,-3l-36 -13c-3,-1 -5,-2 -8,-3 1,-2 1,-4 2,-6l11 -36c1,-3 2,-4 2,-7 0,-5 -4,-5 -6,-5 -1,0 -8,5 -10,6l-58 42c-4,3 -8,5 -8,9z"/>
    <path class="fil1" d="M270 192c-3,0 -5,2 -5,5 0,21 -3,28 8,42 3,4 12,9 18,9l0 6c-10,2 -14,5 -21,11 -17,17 -13,46 10,58 6,3 10,4 16,4l0 -10c-9,-2 -11,-1 -19,-9 -5,-5 -7,-12 -6,-21 2,-11 10,-20 21,-21 11,-2 10,-1 10,-17 6,0 14,-5 18,-9 11,-13 8,-22 8,-42 0,-3 -2,-5 -5,-5l0 -26 -10 0 0 26 -10 0 0 -26 -10 0 0 26 -10 0 0 -26 -10 0 0 26z"/>
    <path class="fil2" d="M94 144c0,21 15,38 36,38 21,0 36,-17 36,-38l0 -19 -72 0 0 19z"/>
    <path class="fil3" d="M69 298c4,2 6,4 10,6 0,-8 -2,-12 5,-14 5,-2 9,-4 14,-6 6,-2 9,-4 16,-4 6,0 36,0 39,0 4,1 11,4 14,6 18,7 15,4 15,25l10 0 0 -95 -10 -3c-1,8 1,49 -1,53 -2,4 -6,3 -10,3l-81 0c-4,0 -9,1 -11,-3 -2,-3 0,-45 -1,-53l-10 2 0 82z"/>
    <path class="fil4" d="M89 212l0 47 83 0 0 -47c-1,-2 -8,-3 -11,-3 -2,3 -3,11 -10,16 -13,10 -27,10 -39,0 -7,-6 -8,-13 -11,-16 -3,0 -10,1 -11,3z"/>
    <path class="fil4" d="M203 311c5,0 31,1 33,-1 0,-5 -4,-20 -5,-26 -2,-9 -9,-45 -11,-51 -3,-6 -9,-13 -17,-15l0 92z"/>
    <path class="fil5" d="M58 288c-6,-5 -11,-15 -14,-25 -4,-14 -2,-21 0,-34 -1,1 -2,2 -3,4 -1,2 -1,3 -2,5 -4,17 -19,67 -21,78l40 0 0 -28z"/>
    <path class="fil6" d="M89 309c7,1 11,2 19,2 7,0 14,0 21,0 14,0 28,0 43,0 0,-15 3,-10 -17,-19 -7,-3 -16,-2 -24,-2 -26,0 -16,-1 -37,7 -5,2 -4,1 -4,11z"/>
    <path class="fil7" d="M258 129l16 -20c3,-3 6,-7 8,-10 3,-3 5,-6 8,-9 -7,-5 -44,-21 -51,-26 4,-6 9,-11 14,-17l11 -13c4,-5 3,-3 2,-4 -3,1 -20,14 -24,17 -4,3 -21,15 -24,17 2,2 39,22 44,25 12,6 7,8 -4,33 -2,4 -4,9 -5,12 2,-2 3,-2 5,-4z"/>
    <path class="fil7" d="M106 77c1,3 1,1 2,4l-7 7 -3 -3c-4,2 -7,9 -8,15l82 0c-2,-7 -4,-10 -8,-15 -1,1 -2,2 -3,3l-7 -7c1,-2 1,-1 2,-3 -4,-2 -7,-3 -12,-4 -4,5 2,10 -12,10 -10,0 -10,-1 -12,-10 -6,0 -8,2 -13,3z"/>
    <path class="fil4" d="M266 29c0,1 1,0 -2,4l-11 13c-5,6 -9,12 -14,17 7,5 44,21 51,26 -2,3 -5,6 -8,9 -3,3 -5,7 -8,10l-16 20c2,-1 11,-8 13,-10 9,-8 33,-26 39,-32l-2 -1c-6,-3 -37,-13 -43,-15 -4,-1 -7,-3 -6,-8 2,-10 8,-25 11,-36l-5 3z"/>
    <path class="fil2" d="M151 192c-4,0 -12,1 -15,0l-11 0c-5,0 -10,0 -15,0 0,8 0,16 4,21 3,4 9,8 17,8 8,0 13,-4 17,-8 4,-5 4,-13 4,-21z"/>
    <path class="fil4" d="M44 229c-2,14 -4,20 0,34 3,10 8,20 14,25l0 -70c-6,1 -13,6 -14,10z"/>
    <path class="fil4" d="M295 239c9,0 15,-5 18,-10 4,-7 3,-17 3,-26l-21 0 0 36z"/>
    <path class="fil7" d="M295 239l0 -36 -21 0c0,9 -1,19 3,26 3,6 9,10 18,10z"/>
    <polygon class="fil7" points="84,115 177,115 177,110 84,110 "/>
    <path class="fil8" d="M172 311c-14,0 -28,0 -43,0 -7,0 -14,0 -21,0 -8,0 -12,-1 -19,-2l0 8 83 0 0 -5z"/>
    <path class="fil5" d="M203 311l0 5 35 0 -1 -6c-3,2 -28,1 -33,1z"/>
    <path class="fil9" d="M79 304c-4,-2 -7,-4 -10,-6l0 18 10 0 0 -12z"/>
    <path class="fil10" d="M84 141l0 -15c-6,0 -10,2 -10,8 0,6 4,8 10,8z"/>
    <path class="fil10" d="M177 141c6,0 10,-2 10,-8 0,-6 -4,-8 -10,-8l0 15z"/>
    <polygon class="fil9" points="192,311 182,311 182,316 192,316 "/>
    <path class="fil4" d="M130 74c2,-1 1,0 2,-2l2 -8 -7 0 2 8c1,3 0,1 2,2z"/>
    <path class="fil11" d="M136 193c3,0 11,0 15,0l0 -5 -14 4c-2,1 -1,0 -2,1z"/>
    <path class="fil11" d="M110 192c5,0 10,0 15,0 -1,-1 -2,-1 -4,-1 -6,-1 -6,-2 -11,-4l0 5z"/>
   </g>
  </g>
 </g>
</svg>
