<?xml version="1.0" encoding="UTF-8"?>
<!DOCTYPE svg PUBLIC "-//W3C//DTD SVG 1.1//EN" "http://www.w3.org/Graphics/SVG/1.1/DTD/svg11.dtd">
<!-- Creator: CorelDRAW X5 -->
<svg xmlns="http://www.w3.org/2000/svg" xml:space="preserve" width="0.333331in" height="0.333331in" style="shape-rendering:geometricPrecision; text-rendering:geometricPrecision; image-rendering:optimizeQuality; fill-rule:evenodd; clip-rule:evenodd"
viewBox="0 0 333 333"
 xmlns:xlink="http://www.w3.org/1999/xlink">
 <defs>
  <style type="text/css">
   <![CDATA[
    .str0 {stroke:#ED3237;stroke-width:6.94488}
    .fil15 {fill:#FEFEFE}
    .fil0 {fill:black}
    .fil12 {fill:#6AB7A4}
    .fil6 {fill:#7FDCC7}
    .fil7 {fill:#9B9A9D}
    .fil9 {fill:#A4D7F5}
    .fil5 {fill:#BFBEC1}
    .fil4 {fill:#C2E4F9}
    .fil1 {fill:#DFDEDD}
    .fil13 {fill:#E7CDA2}
    .fil11 {fill:#F05D7A}
    .fil8 {fill:#F492A7}
    .fil10 {fill:#FEAF02}
    .fil2 {fill:#FECE7B}
    .fil3 {fill:white}
    .fil14 {fill:url(#id0)}
   ]]>
  </style>
  <linearGradient id="id0" gradientUnits="userSpaceOnUse" x1="71.4724" y1="144.543" x2="35.7795" y2="79.5591">
   <stop offset="0" style="stop-color:#ED3237"/>
   <stop offset="1" style="stop-color:#F58634"/>
  </linearGradient>
 </defs>
 <g id="Layer_x0020_1">
  <metadata id="CorelCorpID_0Corel-Layer"/>
  <g id="_339711816">
   <g>
    <path class="fil0" d="M85 108l5 0 0 -19 14 0 218 0 0 214 -44 0 0 9 36 0c-2,2 -4,4 -6,6 -3,3 -2,4 -9,3 -8,0 -16,0 -25,0 -48,0 -99,-1 -147,0l0 5 0 5 0 0 180 0c3,0 4,-3 8,-6l14 -14c1,-1 1,-2 1,-3l0 -10 0 -265 0 -9c-1,-3 -4,-5 -15,-17 -4,-4 -5,-5 -7,-6l-28 0c-56,0 -114,0 -170,0l-6 0c-4,0 -3,2 -10,9 -18,18 -14,8 -14,42 0,19 0,37 0,56l5 0z"/>
    <path class="fil1" d="M104 235l2 0c1,2 3,4 5,5 18,0 10,1 16,5 1,1 0,1 2,0 0,-5 -18,-32 -4,-70 17,-43 64,-65 108,-50 21,7 37,22 46,38 38,67 -25,146 -98,124 -19,-6 -27,-13 -39,-25 -4,-4 -8,-10 -9,-11 0,10 1,5 -10,17 1,2 0,1 2,3 9,9 8,4 8,17l-9 9c1,3 2,3 4,5 1,1 3,4 5,4 -1,0 -2,0 -2,0 -2,0 0,0 -2,1l10 0 0 10 -10 0 1 0c0,0 0,0 1,0 0,0 0,0 1,0 1,0 1,0 2,0 -2,1 -3,2 -4,4 48,-1 98,0 147,0 8,0 16,0 25,0 7,0 5,0 9,-3 2,-2 4,-4 6,-6l-36 0 0 -9 44 0 0 -214 -218 0 0 146z"/>
    <path class="fil0" d="M130 245c2,1 1,1 2,3 1,2 1,2 2,4 2,1 5,7 9,11 12,11 20,19 39,25 73,22 137,-57 98,-124 -9,-16 -25,-31 -46,-38 -44,-15 -92,7 -108,50 -14,37 3,65 4,70z"/>
    <path class="fil0" d="M111 327c7,-9 8,-3 8,-15 0,-5 1,-6 -2,-9 -2,-2 -4,-4 -6,-5 8,-9 8,-3 8,-15 0,-5 1,-6 -2,-9 -2,-2 -4,-4 -6,-5 2,-2 3,-3 5,-5 3,-3 2,-3 2,-9 0,-5 1,-7 -2,-9 -2,-2 -4,-3 -5,-6 -2,-1 -4,-3 -5,-5l-2 0 -20 0c-20,0 -41,0 -62,0 -9,0 -8,-2 -20,11 -1,1 -1,1 -1,2l0 6c0,14 1,6 7,15 -1,3 -3,4 -5,6 -2,1 -2,2 -2,3l0 6c0,12 1,5 7,14 -2,6 -7,3 -7,11l0 9c0,4 2,3 10,12 2,2 2,3 4,3l90 0c3,0 4,-3 6,-5z"/>
    <path class="fil0" d="M164 154c-1,2 -3,2 -5,5 -2,2 -3,3 -4,5 -22,26 -18,67 5,89 1,1 4,2 5,4 13,9 24,15 43,15 14,0 33,-6 42,-16 -1,-3 -2,-1 -3,-4 -1,-1 -1,-1 -3,-3 -3,1 -5,4 -9,6 -10,5 -23,9 -35,7 -16,-2 -29,-11 -36,-19 -9,-11 -14,-23 -14,-42l14 0c6,0 24,-1 29,0 3,1 6,5 8,7 7,7 10,12 16,12l43 0c-1,5 -3,9 -5,12 -2,5 -5,8 -6,10 1,1 1,1 2,2 1,1 1,0 1,2 3,1 1,2 4,3 10,-10 16,-30 16,-46 -1,-19 -10,-34 -19,-43 -8,-9 -24,-18 -42,-20 -10,-1 -19,0 -28,3 -9,3 -13,7 -20,11z"/>
    <polygon class="fil2" points="104,40 167,40 167,69 104,69 104,79 322,79 322,31 104,31 "/>
    <path class="fil3" d="M152 191c11,1 44,-1 47,1l16 16c2,2 2,2 5,2l41 0c1,-3 1,-6 0,-10l-34 0 0 -10 33 0c-1,-5 -5,-13 -7,-16 -22,-34 -72,-34 -95,0 -2,3 -6,11 -7,16z"/>
    <path class="fil4" d="M200 261c11,2 25,-2 35,-7 4,-2 6,-4 9,-6 2,1 2,2 3,3 3,-2 4,-4 6,-6 -1,-1 0,-1 -1,-2 -1,-1 -1,-1 -2,-2 1,-2 4,-5 6,-10 2,-4 4,-8 5,-12l-43 0c-6,0 -9,-5 -16,-12 -2,-2 -5,-6 -8,-7 -5,-1 -23,0 -29,0 -1,24 6,37 21,51 5,5 10,7 15,10z"/>
    <path class="fil5" d="M194 131c0,0 0,0 -1,0 0,0 0,0 -1,0l-2 1c-8,4 -26,15 -27,22 7,-4 11,-8 20,-11 9,-3 18,-4 28,-3 18,1 33,11 42,20 9,9 18,24 19,43 1,16 -5,36 -16,46 -3,-1 -1,-2 -4,-3 -2,3 -4,4 -6,6 1,3 2,2 3,4 -9,9 -28,16 -42,16 -19,0 -29,-6 -43,-15 1,4 9,10 13,13 7,6 16,9 17,10 22,5 46,-5 62,-18 24,-19 33,-59 18,-90 -3,-5 -8,-15 -13,-18 -10,-9 -15,-14 -31,-20 -10,-3 -25,-6 -36,-3z"/>
    <polygon class="fil5" points="85,108 85,118 90,118 90,225 85,225 85,235 104,235 104,89 90,89 90,108 "/>
    <polygon class="fil0" points="104,69 167,69 167,40 104,40 100,40 100,69 "/>
    <path class="fil1" d="M110 21l205 0c-2,-2 -4,-4 -6,-6 -4,-4 -2,-4 -9,-3l-77 0c-34,0 -69,0 -103,0 -2,2 -3,3 -5,5 -2,2 -3,3 -4,5z"/>
    <path class="fil4" d="M35 303l-5 0c-4,3 -5,3 -5,10 0,7 1,6 5,10l71 0c3,0 4,-3 6,-4 6,-6 1,-10 -2,-13 -3,-4 -9,-2 -19,-2 -11,0 -31,-1 -41,0 -1,-1 -1,-2 -1,-3 0,0 0,-2 0,-2l-8 0c0,3 0,4 -1,5z"/>
    <path class="fil6" d="M30 293l5 0 0 10c1,-2 1,-2 1,-5l8 0c0,0 0,2 0,2 0,1 0,2 1,3l0 -10 50 0c4,0 6,1 9,-1 4,-4 9,-8 3,-13 -6,-6 -4,-5 -15,-5 -20,0 -42,0 -62,0 -4,4 -5,2 -5,10 0,7 1,6 5,10z"/>
    <path class="fil7" d="M194 280c-1,-1 -10,-4 -17,-10 -4,-3 -12,-9 -13,-13 -1,-2 -3,-3 -5,-4 -23,-22 -27,-63 -5,-89 2,-2 3,-3 4,-5 2,-2 4,-3 5,-5 2,-6 19,-18 27,-22l2 -1c0,0 0,0 1,0 0,0 0,0 1,0 -49,5 -90,71 -45,125l9 8c10,8 23,15 36,16z"/>
    <path class="fil8" d="M30 264l66 0c6,0 5,1 8,-2 6,-6 7,-8 0,-14 -3,-3 -2,-3 -8,-3l-67 0c-4,4 -5,2 -5,10 0,7 1,6 5,10z"/>
    <path class="fil5" d="M111 327l17 0 0 -5c1,-2 2,-3 4,-4 -1,0 -2,0 -2,0 0,0 0,0 -1,0 0,0 0,0 -1,0l-1 0 0 -9c2,-1 0,0 2,-1 1,0 1,0 2,0 -2,-1 -3,-3 -5,-4 -2,-2 -3,-3 -4,-5l9 -9c0,-12 1,-7 -8,-17 -2,-2 -1,-1 -2,-3 11,-11 9,-7 10,-17 -1,-2 -1,-2 -2,-4 -1,-2 -1,-2 -2,-3 -1,1 0,1 -2,0 -6,-4 2,-5 -16,-5 1,3 3,4 5,6 3,3 2,5 2,9 0,6 1,6 -2,9 -2,2 -4,3 -5,5 2,2 4,3 6,5 3,3 2,4 2,9 0,11 0,5 -8,15 2,2 4,3 6,5 3,3 2,4 2,9 0,12 -1,6 -8,15z"/>
    <polygon class="fil0" points="85,225 90,225 90,118 85,118 80,118 80,225 "/>
    <path class="fil9" d="M200 261c-5,-3 -9,-5 -15,-10 -15,-14 -22,-27 -21,-51l-14 0c-1,19 4,31 14,42 7,8 20,18 36,19z"/>
    <path class="fil0" d="M217 41c-19,5 -11,33 7,28 7,-2 13,-9 10,-18 -2,-6 -9,-13 -17,-10z"/>
    <path class="fil0" d="M256 41c-19,5 -11,33 7,28 7,-2 13,-9 10,-18 -2,-6 -9,-13 -17,-10z"/>
    <path class="fil0" d="M295 41c-19,5 -11,33 7,28 7,-2 13,-9 10,-18 -2,-6 -9,-13 -17,-10z"/>
    <polygon class="fil10" points="104,79 104,69 100,69 100,40 104,40 104,31 90,31 90,79 "/>
    <polygon class="fil4" points="109,60 158,60 158,50 109,50 "/>
    <polygon class="fil3" points="274,108 312,108 312,98 274,98 "/>
    <path class="fil11" d="M30 264c-4,-4 -5,-2 -5,-10 0,-7 1,-6 5,-10 -13,0 -10,-2 -17,4 -6,5 -2,10 3,14 3,2 9,1 13,1z"/>
    <path class="fil12" d="M30 293c-4,-4 -5,-2 -5,-10 0,-7 1,-6 5,-10 -4,0 -10,-1 -13,1 -4,3 -9,9 -4,14 7,7 3,5 17,5z"/>
    <path class="fil9" d="M30 322c-4,-4 -5,-3 -5,-10 0,-7 1,-6 5,-10 -13,0 -10,-2 -16,4 -3,3 -4,7 0,10 1,1 2,3 4,4 3,2 9,1 13,1z"/>
    <path class="fil5" d="M110 21c1,-2 3,-3 4,-5 2,-2 3,-3 5,-5 -2,0 -5,0 -7,0 -6,0 -7,1 -14,10l12 0z"/>
    <polygon class="fil3" points="254,108 264,108 264,98 254,98 "/>
    <polygon class="fil3" points="148,317 157,317 158,307 148,307 "/>
    <polygon class="fil3" points="129,317 138,317 138,307 129,308 "/>
    <path class="fil4" d="M296 50c-6,2 -3,11 3,9 5,-2 3,-11 -3,-9z"/>
    <path class="fil8" d="M258 50c-6,2 -3,11 3,9 5,-2 3,-11 -3,-9z"/>
    <path class="fil13" d="M219 50c-6,2 -3,11 3,9 5,-2 3,-11 -3,-9z"/>
   </g>
   <g>
    <path class="fil14" d="M54 78l-6 0c-3,-6 -4,-9 -12,-6 -10,5 -5,7 -4,13 -3,2 -4,4 -7,7 -7,-2 -9,-4 -12,4 -4,10 1,8 6,12l0 10c-6,2 -9,5 -6,12 4,9 5,6 13,4 1,1 2,2 3,3 1,1 2,2 4,3 -2,8 -4,9 5,12 7,2 10,0 11,-7l10 0c4,5 3,10 12,6 3,-1 5,-2 6,-5 1,-3 -1,-6 -2,-8 2,-2 5,-4 6,-7 8,2 9,4 13,-4 3,-8 0,-9 -7,-11l0 -10c6,-4 9,-3 5,-12 -4,-9 -5,-6 -13,-4 -2,-3 -4,-4 -7,-7 2,-7 4,-9 -4,-12 -11,-4 -8,1 -12,6l-4 0zm0 17c9,0 17,7 17,17 0,9 -7,17 -17,17 -9,0 -17,-7 -17,-17 0,-9 7,-17 17,-17z"/>
    <circle class="fil15 str0" cx="54" cy="112" r="17"/>
   </g>
  </g>
 </g>
</svg>
