<?xml version="1.0" encoding="UTF-8"?>
<!DOCTYPE svg PUBLIC "-//W3C//DTD SVG 1.1//EN" "http://www.w3.org/Graphics/SVG/1.1/DTD/svg11.dtd">
<!-- Creator: CorelDRAW X5 -->
<svg xmlns="http://www.w3.org/2000/svg" xml:space="preserve" width="0.333331in" height="0.333331in" style="shape-rendering:geometricPrecision; text-rendering:geometricPrecision; image-rendering:optimizeQuality; fill-rule:evenodd; clip-rule:evenodd"
viewBox="0 0 333 333"
 xmlns:xlink="http://www.w3.org/1999/xlink">
 <defs>
  <style type="text/css">
   <![CDATA[
    .fil0 {fill:none}
    .fil2 {fill:#201E1E}
    .fil7 {fill:#EC268F}
    .fil6 {fill:black}
    .fil8 {fill:#3ECFDC}
    .fil3 {fill:#85909D}
    .fil5 {fill:#C1C5CC}
    .fil1 {fill:#E1E3E5}
    .fil4 {fill:#FAE29C}
   ]]>
  </style>
 </defs>
 <g id="Layer_x0020_1">
  <metadata id="CorelCorpID_0Corel-Layer"/>
  <g id="_340828224">
   <rect class="fil0" width="333" height="333"/>
   <g>
    <path class="fil1" d="M167 237c0,0 0,0 0,0m60 90l20 0c1,-5 2,-5 7,-5 7,-8 5,-18 5,-30l0 -71c0,-13 2,-22 -5,-30 -1,-1 -156,0 -170,0l-24 1c-6,0 -9,6 -10,12 8,0 7,3 10,9l12 26c2,5 5,9 3,14 -8,3 -8,-1 -11,-8 -1,-3 -3,-6 -4,-9 -2,-5 -6,-15 -9,-19l0 43c13,6 8,22 -4,23 -14,1 -18,-18 -6,-23l0 -43c-3,4 -18,39 -21,46 -8,19 -9,15 -4,22 2,3 14,16 15,19l29 0 19 -23c-1,-3 -3,-6 -3,-8 0,-3 2,-5 5,-5 5,1 8,12 8,14 0,2 -16,21 -19,25 5,5 5,7 4,17l136 0c7,0 14,-2 15,5z"/>
    <path class="fil2" d="M65 313c1,2 1,4 1,6 0,2 0,1 -1,2 -1,1 -26,1 -32,1 -5,0 -6,1 -6,-5 0,-6 1,-5 17,-5 5,0 18,-1 21,1zm97 -312l8 0c19,2 36,18 36,37 20,11 37,32 41,58 2,13 0,43 1,48 1,6 5,9 -1,19 -4,6 -11,7 -17,7 0,4 -2,6 -2,9 11,0 22,0 34,0 15,0 17,0 25,8 6,6 6,16 6,28 0,20 1,89 -1,99 -2,8 -9,15 -17,16 -1,0 -1,0 -2,0l-14 0 -7 0c-3,0 -4,-1 -5,-5 1,-5 2,-5 7,-5 34,-1 29,3 29,-66 0,-70 5,-65 -31,-66 -47,-1 -96,0 -144,0 -6,0 -45,-1 -47,1 -6,0 -9,6 -10,12 8,0 7,3 10,9l12 26c2,5 5,9 3,14 -8,3 -8,-1 -11,-8 -1,-3 -3,-6 -4,-9 -2,-5 -6,-15 -9,-19l0 43c13,6 8,22 -4,23 -14,1 -18,-18 -6,-23l0 -43c-3,4 -18,39 -21,46 -8,19 -9,15 -4,22 2,3 14,16 15,19l29 0 19 -23c-1,-3 -3,-6 -3,-8 0,-3 2,-5 5,-5 5,1 8,12 8,14 0,2 -16,21 -19,25 5,5 5,7 4,17l136 0c7,0 14,-2 15,5 0,3 -2,4 -5,5l-6 0c-61,0 -122,0 -183,0l-4 0c-4,0 -5,-1 -8,-3 -5,-5 -4,-15 -2,-19 0,0 1,-2 1,-2 1,-1 0,-1 2,-1 -2,-3 -6,-8 -9,-12 -13,-17 -13,-10 -6,-26 7,-17 17,-38 25,-56 4,-9 4,-10 10,-10 0,-13 11,-22 21,-23 14,0 29,0 43,0 -1,-2 -2,-6 -3,-9 -7,0 -11,-1 -15,-5 -8,-8 -6,-13 -4,-20 2,-6 -3,-40 5,-62 3,-8 2,-6 6,-13 4,-9 5,-8 10,-7 3,8 3,2 -3,15 -8,17 -8,39 -7,58l7 -1c1,-4 0,-9 0,-13 1,-9 9,-2 34,-9 15,-4 27,-11 38,-19 9,-6 15,-13 21,-21 2,-2 5,-7 6,-8 3,-2 12,1 4,10l-10 12c-2,3 -5,4 -7,7 2,4 6,10 9,12 10,9 18,10 29,12 8,1 4,8 5,15l7 1c1,-15 1,-40 -5,-54 -12,-29 -42,-49 -74,-45 -12,1 -23,5 -32,12 -5,3 -4,5 -10,2 -4,-7 3,-10 11,-14 0,-7 4,-17 8,-21 8,-10 18,-15 28,-16zm-119 269c-1,-5 4,-5 5,-3 1,2 -2,5 -5,3zm68 -141c0,-2 2,-2 4,-2 11,-1 24,-4 34,-8 19,-8 19,-10 31,-17 6,13 21,24 40,27 0,23 2,29 -4,50l-101 0c-2,-9 -4,-12 -4,-23l0 -28zm-10 31c-12,0 -13,-15 0,-15l0 15zm129 -15c5,0 10,2 9,8 0,5 -4,7 -9,7l0 -15zm-93 -113c3,-12 15,-22 29,-22 14,0 26,10 28,22 -26,-7 -31,-7 -58,0z"/>
    <path class="fil3" d="M116 52c-2,2 -4,4 -6,5l-5 6c0,0 0,0 0,0 3,8 3,2 -3,15 -8,17 -8,39 -7,58l7 -1c1,-4 0,-9 0,-13 1,-9 9,-2 34,-9 15,-4 27,-11 38,-19 9,-6 15,-13 21,-21 2,-2 5,-7 6,-8 3,-2 12,1 4,10l-10 12c-2,3 -5,4 -7,7 2,4 6,10 9,12 10,9 18,10 29,12 8,1 4,8 5,15l7 1c1,-15 1,-40 -5,-54 -12,-29 -42,-49 -74,-45 -12,1 -23,5 -32,12 -5,3 -4,5 -10,2z"/>
    <path class="fil1" d="M187 143c-7,3 -3,7 -6,10 -4,3 -9,0 -8,-7 2,-14 19,-19 29,-7 11,12 -4,21 -6,10 -1,-5 -3,-8 -9,-6zm-44 0c-7,2 -3,7 -6,10 -3,3 -9,1 -8,-6 2,-14 20,-19 29,-9 11,13 -3,21 -5,11 -1,-4 -3,-9 -9,-7zm-31 -13l0 28c0,11 2,14 4,23l101 0c6,-21 4,-26 4,-50 -19,-3 -34,-14 -40,-27 -12,6 -12,9 -31,17 -10,4 -23,7 -34,8 -2,0 -4,0 -4,2z"/>
    <path class="fil2" d="M291 108c0,7 -5,7 -10,6 -1,-2 -1,-3 -1,-6l12 0zm40 -63l0 7c-1,8 -3,15 -8,22 -5,6 -10,11 -16,14 0,6 0,9 -2,13 -3,6 -4,0 -4,10 -1,18 -30,18 -32,0 0,-4 1,-4 -1,-7 -5,-6 -5,-7 -5,-17 -14,-7 -24,-21 -24,-41 0,-37 49,-60 79,-30 8,8 13,18 13,29zm-57 52c-2,-5 1,-13 -3,-16 -2,-2 -4,-2 -6,-3 -9,-6 -16,-15 -17,-29 0,-20 17,-37 37,-36 20,0 37,17 35,38 -2,23 -22,29 -24,32 -2,4 1,11 -2,16l-5 0 0 -40c9,0 13,0 16,-6 4,-6 3,-14 -6,-11 -3,4 0,9 -7,8 -5,-3 -1,-8 -8,-9 -6,0 -4,5 -7,8 -11,3 -2,-11 -15,-8 -4,2 -2,20 17,17l0 40c-3,0 -4,0 -6,-1z"/>
    <path class="fil4" d="M275 97c2,1 3,1 6,1l0 -40c-19,3 -21,-15 -17,-17 13,-3 4,11 15,8 3,-3 1,-9 7,-8 6,0 2,6 8,9 7,1 5,-4 7,-8 9,-2 10,5 6,11 -4,6 -7,6 -16,6l0 40 5 0c3,-5 0,-12 2,-16 1,-2 22,-9 24,-32 1,-21 -15,-38 -35,-38 -21,0 -38,16 -37,36 0,14 8,23 17,29 2,1 4,2 6,3 3,3 1,11 3,16z"/>
    <path class="fil5" d="M254 322c34,-1 29,3 29,-66 0,-70 5,-65 -31,-66 -47,-1 -96,0 -144,0 -6,0 -45,-1 -47,1l24 -1c14,0 168,-1 170,0 7,9 5,17 5,30l0 71c0,13 2,23 -5,30z"/>
    <path class="fil6" d="M166 279c-5,-8 -21,-21 -22,-26 -2,-7 5,-13 12,-11 9,3 3,15 11,13 6,-1 2,-11 11,-13 7,-2 13,5 11,11 -1,3 -20,25 -24,26zm1 -41c0,0 0,0 0,0z"/>
    <path class="fil7" d="M166 279c3,-2 23,-23 24,-26 2,-7 -4,-13 -11,-11 -9,2 -4,12 -11,13 -9,1 -3,-10 -11,-13 -7,-3 -14,4 -12,11 1,5 17,18 22,26z"/>
    <path class="fil3" d="M138 33c27,-7 31,-7 58,0 -2,-11 -15,-22 -28,-22 -14,0 -26,10 -29,22z"/>
    <path class="fil2" d="M316 152c-6,-9 -12,-4 -12,-1 0,4 3,5 5,8 -2,2 -5,4 -5,7 0,5 7,8 12,0 3,2 4,5 8,5 3,0 5,-3 5,-5 0,-3 -4,-5 -5,-7 1,-2 5,-5 5,-8 0,-3 -3,-5 -6,-5 -3,1 -5,4 -7,5z"/>
    <path class="fil6" d="M5 31c0,3 2,5 5,7 -3,4 -5,3 -5,9 0,2 3,4 5,4 4,0 5,-3 8,-5 2,1 5,5 7,5 3,0 5,-2 5,-5 0,-4 -3,-5 -5,-8 10,-7 4,-12 0,-12 -3,0 -5,4 -7,5 -2,-1 -4,-4 -6,-5 -3,-1 -6,1 -6,5z"/>
    <path class="fil6" d="M5 151c0,3 1,5 5,8 -2,3 -5,4 -5,8 0,4 3,5 6,5 2,0 5,-4 6,-5 4,3 3,5 8,5 3,0 4,-3 4,-6 0,-2 -4,-5 -5,-7 10,-7 3,-13 -1,-12 -3,1 -4,3 -6,5 -2,-2 -3,-4 -6,-5 -2,-1 -6,1 -6,4z"/>
    <path class="fil6" d="M48 93c-2,2 -4,3 -5,6 -1,5 5,11 12,1 4,3 3,5 9,5 3,0 4,-3 4,-6 0,-2 -4,-5 -5,-6 2,-2 5,-4 5,-7 0,-5 -3,-5 -6,-5 -2,0 -5,4 -7,5 -7,-10 -13,-3 -12,1 1,3 3,4 5,6z"/>
    <path class="fil6" d="M143 143c5,-2 8,3 9,7 2,10 17,2 5,-11 -9,-11 -27,-6 -29,9 -1,7 5,9 8,6 3,-3 -1,-8 6,-10z"/>
    <path class="fil6" d="M187 143c6,-2 8,2 9,6 2,11 17,2 6,-10 -10,-11 -27,-6 -29,7 -1,6 4,10 8,7 4,-3 -1,-7 6,-10z"/>
    <path class="fil8" d="M27 317c0,6 1,5 6,5 6,0 31,1 32,-1 1,-1 0,0 1,-2 0,-2 0,-4 -1,-6 -3,-2 -17,-1 -21,-1 -17,0 -17,-2 -17,5z"/>
    <path class="fil4" d="M231 161c5,0 9,-2 9,-7 0,-5 -4,-8 -9,-8l0 15z"/>
    <path class="fil4" d="M102 161l0 -15c-13,0 -12,15 0,15z"/>
    <path class="fil3" d="M281 113c6,2 11,1 10,-6l-12 0c0,3 0,4 1,6z"/>
    <path class="fil1" d="M44 271c3,2 6,0 5,-3 -1,-2 -6,-3 -5,3z"/>
   </g>
  </g>
 </g>
</svg>
