<?xml version="1.0" encoding="UTF-8"?>
<!DOCTYPE svg PUBLIC "-//W3C//DTD SVG 1.1//EN" "http://www.w3.org/Graphics/SVG/1.1/DTD/svg11.dtd">
<!-- Creator: CorelDRAW X5 -->
<svg xmlns="http://www.w3.org/2000/svg" xml:space="preserve" width="0.333331in" height="0.333331in" style="shape-rendering:geometricPrecision; text-rendering:geometricPrecision; image-rendering:optimizeQuality; fill-rule:evenodd; clip-rule:evenodd"
viewBox="0 0 333 333"
 xmlns:xlink="http://www.w3.org/1999/xlink">
 <defs>
  <style type="text/css">
   <![CDATA[
    .str0 {stroke:#ED3237;stroke-width:6.94488}
    .fil0 {fill:none}
    .fil2 {fill:#201E1E}
    .fil7 {fill:#FEFEFE}
    .fil3 {fill:#586B74}
    .fil1 {fill:#CADCF5}
    .fil5 {fill:#F6C490}
    .fil4 {fill:#F9CF23}
    .fil6 {fill:url(#id0)}
   ]]>
  </style>
  <linearGradient id="id0" gradientUnits="userSpaceOnUse" x1="90.8858" y1="68.2323" x2="63.2362" y2="17.9016">
   <stop offset="0" style="stop-color:#ED3237"/>
   <stop offset="1" style="stop-color:#F58634"/>
  </linearGradient>
 </defs>
 <g id="Layer_x0020_1">
  <metadata id="CorelCorpID_0Corel-Layer"/>
  <g id="_341240112">
   <rect class="fil0" width="333" height="333"/>
   <g>
    <path class="fil1" d="M276 178c2,-3 3,-4 5,-6 3,2 5,4 6,7l-6 6 -5 -6zm-77 -123c3,3 2,7 5,9 5,2 5,6 3,13 -7,33 -49,35 -60,4 -10,-28 15,-53 41,-43 6,2 16,9 10,16zm82 141l0 -11c3,-2 5,-5 7,-8 -2,-3 -4,-6 -7,-8l0 -7 -4 0c-1,-7 0,-70 0,-83 0,-13 2,-29 -4,-39 -4,-6 -13,-15 -22,-17l0 115c0,7 3,34 -7,30 -6,-3 -3,-27 -3,-35 0,-30 1,-91 0,-114 -26,-6 -101,-8 -125,0 -1,19 1,144 -1,147 -13,8 -10,-13 -10,-24 0,-38 1,-83 0,-119 -5,2 -10,4 -14,8 -16,15 -12,22 -12,50 0,21 -1,161 1,170 6,19 33,28 51,31 0,-20 -2,-63 1,-80 5,-27 25,-32 46,-31 14,0 21,-1 31,7 6,4 13,12 15,24 3,14 1,62 1,80 16,1 41,-13 46,-21 12,-17 2,-42 6,-64l4 0z"/>
    <path class="fil2" d="M172 182c0,9 -1,17 9,13l1 -12c21,-4 32,12 31,33 0,19 2,50 0,67 -13,1 -62,2 -73,0 -2,-20 0,-46 0,-67 0,-24 9,-34 32,-34zm109 14l-4 0c-4,22 6,47 -6,64 -6,8 -31,22 -46,21 0,-18 2,-66 -1,-80 -2,-12 -9,-19 -15,-24 -10,-7 -17,-7 -31,-7 -21,0 -41,4 -46,31 -3,17 0,60 -1,80 -18,-3 -45,-12 -51,-31 -3,-8 -1,-149 -1,-170 0,-28 -3,-36 12,-50 4,-4 9,-6 14,-8 1,36 0,81 0,119 0,11 -3,33 10,24 2,-3 0,-128 1,-147 25,-9 99,-7 125,0 2,23 0,84 0,114 0,9 -3,33 3,35 10,4 7,-23 7,-30l0 -115c9,2 19,11 22,17 6,10 4,26 4,39 0,13 -1,76 0,83l4 0 5 0c2,-9 1,-50 1,-62 0,-15 2,-50 -3,-61 -13,-28 -47,-37 -85,-37 -38,0 -76,-4 -107,13 -11,6 -24,19 -25,37 -1,35 0,90 0,128 0,21 -1,44 0,64 1,18 14,30 25,36 13,8 30,12 47,13 43,2 125,8 144,-37 3,-8 4,-52 2,-61l-5 0z"/>
    <path class="fil3" d="M171 262l6 -7 7 6c-2,3 -4,5 -7,7l-6 -6zm3 -56c10,-2 19,6 21,14 2,12 -5,21 -13,23 -23,6 -32,-32 -8,-38zm-2 -23c-22,0 -32,10 -32,34 0,20 -1,47 0,67 10,2 60,1 73,0 2,-17 0,-49 0,-67 0,-21 -10,-37 -31,-33l-1 12c-10,4 -9,-3 -9,-13z"/>
    <path class="fil2" d="M204 65l-5 1c-4,11 -1,16 -10,23 -7,5 -17,6 -24,1 -14,-10 -12,-35 6,-40 0,6 -1,15 5,15 7,0 5,-9 6,-15 8,0 8,8 17,6 6,-7 -4,-14 -10,-16 -26,-10 -51,15 -41,43 11,31 53,28 60,-4 2,-8 2,-11 -3,-13z"/>
    <path class="fil4" d="M204 65c-2,-3 -2,-6 -5,-9 -9,2 -9,-6 -17,-6 0,6 1,16 -6,15 -6,0 -5,-9 -5,-15 -18,5 -21,31 -6,40 8,5 17,5 24,-1 9,-7 6,-12 10,-23l5 -1z"/>
    <path class="fil2" d="M175 217c10,-4 14,12 6,16 -11,4 -16,-12 -6,-16zm-1 -11c-24,6 -16,43 8,38 8,-2 16,-12 13,-23 -2,-9 -11,-17 -21,-14z"/>
    <path class="fil5" d="M175 217c-10,4 -5,20 6,16 8,-3 5,-19 -6,-16z"/>
    <path class="fil2" d="M177 268c3,-1 5,-4 7,-7l-7 -6 -6 7 6 6z"/>
    <path class="fil2" d="M276 178l5 6 6 -6c-2,-3 -4,-5 -6,-7 -3,2 -4,3 -5,6z"/>
    <g>
     <path class="fil6" d="M77 17l-4 0c-2,-5 -3,-7 -9,-4 -8,4 -4,5 -3,10 -2,1 -3,3 -5,5 -6,-1 -7,-3 -9,3 -3,8 1,6 5,9l0 8c-5,1 -7,4 -4,9 3,7 4,4 10,3 1,1 1,2 3,3 1,1 2,1 3,3 -1,6 -3,7 4,10 5,2 8,0 8,-5l8 0c3,4 2,8 9,4 2,-1 4,-2 4,-4 1,-3 -1,-4 -2,-6 2,-2 4,-3 5,-6 6,1 7,3 10,-3 2,-6 0,-7 -5,-9l0 -8c5,-3 7,-2 4,-9 -3,-7 -4,-5 -10,-3 -1,-2 -3,-3 -5,-5 1,-5 3,-7 -3,-10 -8,-3 -6,1 -9,5l-3 0zm0 14c7,0 13,6 13,13 0,7 -6,13 -13,13 -7,0 -13,-6 -13,-13 0,-7 6,-13 13,-13z"/>
     <circle class="fil7 str0" cx="77" cy="43" r="13"/>
    </g>
   </g>
   <path class="fil2" d="M116 283l25 0 0 35c0,7 -6,13 -13,13l0 0c-7,0 -13,-6 -13,-13l0 -35z"/>
   <path class="fil2" d="M216 283l25 0 0 35c0,7 -6,13 -13,13l0 0c-7,0 -13,-6 -13,-13l0 -35z"/>
  </g>
 </g>
</svg>
