<?xml version="1.0" encoding="utf-8"?>
<!-- Generator: Adobe Illustrator 16.0.0, SVG Export Plug-In . SVG Version: 6.00 Build 0)  -->
<!DOCTYPE svg PUBLIC "-//W3C//DTD SVG 1.1//EN" "http://www.w3.org/Graphics/SVG/1.1/DTD/svg11.dtd">
<svg version="1.1" id="Layer_1" xmlns="http://www.w3.org/2000/svg" xmlns:xlink="http://www.w3.org/1999/xlink" x="0px" y="0px"
	 width="100px" height="100px" viewBox="0 0 100 100" enable-background="new 0 0 100 100" xml:space="preserve">
<g>
	<g>
		<defs>
			<rect id="SVGID_1_" x="1.364" y="2.549" width="95.969" height="96.451"/>
		</defs>
		<clipPath id="SVGID_2_">
			<use xlink:href="#SVGID_1_"  overflow="visible"/>
		</clipPath>
		<path clip-path="url(#SVGID_2_)" fill-rule="evenodd" clip-rule="evenodd" d="M15.77,66.103l0.666,0.066l64.924-0.01l0.684-0.031
			v-1.8L15.77,64.281V66.103z M25.967,29.996c0,3.165,0.277,5.958,1.332,8.785c0.262,0.699,0.68,1.433,0.826,2.063
			c-5.094,0-10.19,0-15.286,0c-2.933,0-4.76-0.273-6.65,0.907c-1.394,0.871-2.882,2.614-2.882,4.876v17.894
			c0,5.284,3.745,9.819,7.312,11.631c2.41,1.225,4.237,1.754,7.794,1.744c3.177-0.008,6.357,0,9.532,0
			c0.72,3.11,4.573,3.011,2.485,10.813c-0.516,1.921-1.218,2.578-1.406,3.287l2.115,2.211c1.191-1.703,1.486-1.666,2.269-4.314
			c0.484-1.637,0.832-3.819,0.832-5.852c0-3.081-1.48-4.317-2.696-6.145h3.776l0.726,1.44c1.796,2.996,2.332,1.641,2.332,5.608
			c0,3.048-0.736,4.692-1.978,7.051c0.551,0.638,1.476,1.709,2.158,2.168c2.306-1.697,3.058-7.409,3.058-10.663
			c0-2.619-1.642-4.019-2.699-5.604h3.958c0.088,1.06,1.146,2.233,1.722,2.967c1.729,2.214,1.404,2.937,1.128,5.684
			c-0.188,1.882-0.98,3.987-1.951,5.449c1.201,0.809,1.359,1.631,2.158,2.168c0.89-0.599,1.782-2.557,2.183-3.771
			c0.928-2.806,1.603-7.439-0.098-10.255c-0.264-0.439-0.441-0.653-0.748-1.054c-0.396-0.517-0.65-0.626-0.799-1.188h3.776
			c0.75,3.23,4.512,2.846,2.523,10.669c-0.529,2.086-1.236,2.651-1.443,3.431l2.114,2.211c0.592-0.846,0.652-0.636,1.363-1.97
			c1.526-2.863,2.542-8.809,0.836-11.808c-0.531-0.936-1.303-1.595-1.795-2.533h3.774c2.212,4.629,3.06,2.647,3.06,7.049
			c0,1.499-0.242,2.728-0.572,3.944c-0.342,1.248-0.85,2.049-1.405,3.106l2.112,2.211c1.813-1.361,3.103-6.474,3.103-9.262
			c0-4.397-0.615-3.925-2.698-7.049h3.777c1.572,2.987,3.409,4.131,3.235,6.489c-0.24,3.238-0.763,5.517-2.157,7.61
			c0.994,0.669,1.26,1.562,2.157,2.168c0.852-0.571,1.797-2.594,2.186-3.771c0.897-2.724,1.55-7.401-0.029-10.143
			c-0.416-0.717-1.426-1.643-1.615-2.354c3.298,0,6.594,0,9.892,0c5.527,0,7.884-0.354,11.693-3.251
			c2.677-2.033,5.033-6.25,5.033-10.124V46.626c0-2.168-1.407-3.897-2.774-4.804c-1.901-1.262-3.797-0.979-6.759-0.979
			c-5.095,0-10.19,0-15.286,0c2.845-5.959,2.915-13.813,0.063-19.767c-1.203-2.508-2.741-4.723-4.601-6.766
			c-1.507-1.656-4.529-3.597-6.553-4.62c-7.675-3.877-16.551-2.767-23.658,2.01c-0.515,0.347-1.097,0.75-1.537,1.166
			c-0.298,0.284-0.419,0.453-0.736,0.708C29.304,16.983,25.967,24.452,25.967,29.996z"/>
		<path clip-path="url(#SVGID_2_)" fill-rule="evenodd" clip-rule="evenodd" fill="#ED1C24" d="M27.391,74.67
			c0.043-2.428,0.471-3.355,0.775-5.414c-2.066,0-13.865,0.284-14.765-0.245c-0.992-0.583-0.716-2.002-0.714-3.044
			c0.008-3.954-0.512-4.808,2.851-4.786c22.34,0.147,45.208-0.228,67.448-0.006c2.795,0.027,2.129,1.94,2.145,5.519
			c0.018,3.554-1.416,2.563-8.804,2.563c-2.474,0-5.052-0.075-7.512,0.014c-0.846,1.719-1.144,3.161-1.177,5.422
			c4.453,0,8.909,0.016,13.364,0.002c4.386-0.012,7.275-1.866,9.103-4.28c2.575-3.402,2.2-6.318,2.2-11.136
			c0-2.278,0.271-11.78-0.145-13.214c-0.552-1.909-2.272-2.07-4.504-2.068l-16.548,0.004c-4.213-0.006-1.249-0.124-5.936,4.076
			c-1.501,1.346-1.915,1.754-3.77,2.891c-7.912,4.847-18.416,4.382-25.828-1.162c-1.63-1.219-3.792-3.285-4.967-4.949
			c-0.84-1.184-0.705-0.868-2.479-0.86c-3.354,0.02-18.582-0.208-19.724,0.159c-1.941,0.624-2.019,2.343-2.015,4.641
			c0.006,4.896-0.504,15.94,0.826,19.208c1.215,2.986,3.692,5.345,7.061,6.277C16.71,74.952,24.481,74.803,27.391,74.67"/>
		<path clip-path="url(#SVGID_2_)" fill-rule="evenodd" clip-rule="evenodd" fill="#FFFFFF" d="M59.341,48.54l-7.479-7.51
			c-2.08,0.12-3.103,0.863-5.842,0.428c-1.746-0.277-3.462-0.948-4.709-1.756c-2.423-1.568-4.631-4.064-5.432-7.731
			c-0.814-3.73,0.316-10.579,3.325-8.222c2.946,2.306,5.008,6.758,7.468,4.645c2.624-2.255-1.775-5.198-4.11-7.665
			c-3.243-3.426,5.238-4.121,7.986-3.5c3.473,0.781,6.216,3.03,7.695,5.453c0.808,1.321,1.437,2.873,1.749,4.75
			c0.471,2.844-0.381,3.858-0.432,6.042c1.459,0.987,6.139,6.474,7.457,7.288c2.435-3.652,3.198-9.916,1.991-14.8
			c-3.733-15.084-22.237-20.72-33.823-9.658c-6.645,6.344-8.521,18.326-1.996,26.864c2.337,3.058,6.039,6.128,10.989,7.382
			c2.753,0.696,5.514,0.896,8.41,0.412C54.694,50.612,57.908,49.613,59.341,48.54"/>
		<path clip-path="url(#SVGID_2_)" fill-rule="evenodd" clip-rule="evenodd" fill="#233067" d="M38.813,27.9
			c-1.23,6.273,4.823,11.709,11.02,10.361c3.426-0.746,1.736-2.037,6.699,2.954c1.871,1.88,3.661,3.673,5.516,5.51
			c0.803-0.624,2.791-2.398,3.165-3.408c-0.778-0.579-6.843-6.817-8.128-8.081c-1.714-1.691-0.836-1.666-0.297-3.922
			c1.533-6.427-3.92-11.888-10.243-11.169c0.398,1.26,2.636,2.221,3.544,4.223c0.99,2.18,0.232,4.847-0.986,6.107
			c-1.143,1.181-3.823,2.135-6.012,1.116C41.337,30.771,40.084,29.021,38.813,27.9"/>
		<path clip-path="url(#SVGID_2_)" fill-rule="evenodd" clip-rule="evenodd" fill="#FFFFFF" d="M13.063,48.94
			c-1.648,0.73-1.186,2.694,0.322,2.923c1.188,0.181,15.056,0.067,15.503-0.133c1.281-0.575,1.058-2.669-0.42-2.906
			C27.348,48.644,13.471,48.759,13.063,48.94"/>
		<path clip-path="url(#SVGID_2_)" fill-rule="evenodd" clip-rule="evenodd" fill="#FFFFFF" d="M45.342,74.691l4.342-0.006
			c0.045-2.441,0.467-3.383,0.777-5.43l-3.94,0.004C45.576,70.671,45.371,72.774,45.342,74.691"/>
		<path clip-path="url(#SVGID_2_)" fill-rule="evenodd" clip-rule="evenodd" fill="#FFFFFF" d="M30.478,74.674l4.342,0.02
			c0.039-2.381,0.357-3.324,0.803-5.416L34.96,69.25l-2.878,0.006C30.671,69.256,30.501,73.276,30.478,74.674"/>
		<path clip-path="url(#SVGID_2_)" fill-rule="evenodd" clip-rule="evenodd" fill="#FFFFFF" d="M52.773,74.682l4.346,0.012
			c0.041-2.387,0.359-3.32,0.805-5.416l-3.54-0.021c-0.799,0-0.998,1.095-1.262,2.139C52.844,72.497,52.789,73.52,52.773,74.682"/>
		<path clip-path="url(#SVGID_2_)" fill-rule="evenodd" clip-rule="evenodd" fill="#FFFFFF" d="M37.909,74.691l4.344-0.021
			c0.053-2.484,0.475-3.431,0.789-5.414h-3.94C38.256,70.683,37.94,72.68,37.909,74.691"/>
		<path clip-path="url(#SVGID_2_)" fill-rule="evenodd" clip-rule="evenodd" fill="#FFFFFF" d="M60.21,74.691l4.337-0.025
			c0.051-2.482,0.456-3.415,0.79-5.41h-3.934C60.558,70.683,60.241,72.68,60.21,74.691"/>
	</g>
</g>
</svg>
