<?xml version="1.0" encoding="UTF-8"?>
<!DOCTYPE svg PUBLIC "-//W3C//DTD SVG 1.1//EN" "http://www.w3.org/Graphics/SVG/1.1/DTD/svg11.dtd">
<!-- Creator: CorelDRAW X5 -->
<svg xmlns="http://www.w3.org/2000/svg" xml:space="preserve" width="0.333331in" height="0.333331in" style="shape-rendering:geometricPrecision; text-rendering:geometricPrecision; image-rendering:optimizeQuality; fill-rule:evenodd; clip-rule:evenodd"
viewBox="0 0 333 333"
 xmlns:xlink="http://www.w3.org/1999/xlink">
 <defs>
  <style type="text/css">
   <![CDATA[
    .str0 {stroke:#ED3237;stroke-width:6.94488}
    .fil9 {fill:#FEFEFE}
    .fil0 {fill:black}
    .fil4 {fill:#388E75}
    .fil3 {fill:#394C5C}
    .fil1 {fill:#5AC6AA}
    .fil2 {fill:#72EDC5}
    .fil6 {fill:#7D8D9C}
    .fil5 {fill:#F4F4E6}
    .fil7 {fill:#FBEF5A}
    .fil8 {fill:url(#id0)}
   ]]>
  </style>
  <linearGradient id="id0" gradientUnits="userSpaceOnUse" x1="89.6339" y1="81.6142" x2="58.0236" y2="24.0748">
   <stop offset="0" style="stop-color:#ED3237"/>
   <stop offset="1" style="stop-color:#F58634"/>
  </linearGradient>
 </defs>
 <g id="Layer_x0020_1">
  <metadata id="CorelCorpID_0Corel-Layer"/>
  <g id="_176240048">
   <g>
    <path class="fil0" d="M249 310l44 0 0 11 -44 0 0 -11zm-209 0l44 0 0 11 -44 0 0 -11zm-28 -33l308 0 1 0 0 22 -308 0 -1 -22zm171 -176l99 0 0 165 -99 0 0 -165zm-33 0l22 0 0 165 -22 0 0 -165zm-88 0l77 0 0 165 -77 0 0 -165zm-22 126l11 0 0 11 -11 0 0 -11zm0 -110l11 0 0 11 -11 0 0 -11zm-28 149c0,-57 0,-114 0,-171 0,-7 -2,-15 5,-16 3,0 295,0 298,0 7,1 5,10 5,16 0,57 0,114 0,171l-28 0 0 -163c0,-14 -1,-13 -14,-13l-190 0c-43,0 -38,-3 -38,17 -4,0 -16,-1 -19,1 -5,2 -3,10 -3,16 0,19 -1,17 22,17l0 77c-23,0 -22,-2 -22,16 0,19 -1,17 22,17l0 17 -39 0zm242 -209l11 0 0 11 -11 0 0 -11zm-33 0l22 0 0 11 -22 0 0 -11zm-22 0l11 0 0 11 -11 0 0 -11zm-11 -22l88 0 0 11 -88 0 0 -11zm110 -6c0,7 -7,6 -11,6 0,-5 1,-11 -5,-11l-99 0c-3,0 -6,2 -6,6l0 22c0,7 6,6 11,6l0 11 -172 0c-8,0 -15,8 -15,15l0 221c0,3 2,6 6,6l22 0c0,12 -2,22 6,22l55 0c8,0 5,-10 5,-22l143 0c0,12 -2,22 5,22l55 0c8,0 6,-10 6,-22l22 0c3,0 6,-2 6,-6l0 -221c0,-8 -8,-15 -15,-15l-40 0 0 -11c11,0 11,0 11,-11l7 0c8,0 15,-8 15,-15l0 -29 -11 0 0 27z"/>
    <path class="fil1" d="M13 266l39 0 0 -17c-23,0 -22,2 -22,-17 0,-19 -1,-16 22,-16l0 -77c-23,0 -22,2 -22,-17 0,-6 -1,-14 3,-16 3,-1 15,-1 19,-1 0,-19 -5,-17 38,-17l190 0c14,0 14,-1 14,13l0 163 28 0c0,-57 0,-114 0,-171 0,-6 2,-15 -5,-16 -3,0 -295,0 -298,0 -7,1 -5,10 -5,16 0,57 0,114 0,171z"/>
    <path class="fil2" d="M227 244l11 0 0 11 -11 0 0 -11zm-22 0l11 0 0 11 -11 0 0 -11zm55 -28l11 0 0 31c0,5 -2,8 -8,8l-14 0 0 -11 11 0 0 -28zm-38 -44c-4,0 -22,1 -24,-1 -7,-3 0,-11 2,-16 6,-10 12,-20 17,-31 4,-7 6,-13 11,-13 7,-1 17,0 24,0 10,0 9,6 5,13 -3,5 -6,10 -9,15 5,1 16,-1 20,1 6,3 1,9 -1,12 -3,4 -33,43 -35,45 -5,5 -10,2 -10,-5 0,-7 0,-13 0,-20zm-38 94l99 0 0 -165 -99 0 0 165z"/>
    <path class="fil2" d="M106 200l22 0 0 11 -22 0 0 -11zm-33 0l22 0 0 11 -22 0 0 -11zm0 -22l55 0 0 11 -55 0 0 -11zm4 -65c3,-1 22,-1 27,-1 29,0 25,-5 25,30 0,7 2,22 -3,24 -3,1 -23,1 -27,1 -31,0 -24,6 -25,-44 0,-6 -1,-8 4,-10zm-15 153l77 0 0 -165 -77 0 0 165z"/>
    <polygon class="fil3" points="13,299 321,299 321,277 320,277 12,277 "/>
    <polygon class="fil4" points="150,266 172,266 172,101 150,101 "/>
    <path class="fil0" d="M209 161c1,-3 20,-38 22,-39l13 0c-2,3 -4,6 -6,10 -11,18 -9,18 15,18 -1,2 -14,19 -16,21 -2,3 -3,4 -5,6 -1,-19 3,-16 -24,-17zm12 11c0,7 0,13 0,20 0,7 5,10 10,5 2,-2 32,-41 35,-45 2,-3 7,-10 1,-12 -3,-1 -15,0 -20,-1 3,-5 6,-10 9,-15 4,-6 5,-13 -5,-13 -7,0 -17,0 -24,0 -6,0 -8,7 -11,13 -6,11 -12,21 -17,31 -2,4 -9,12 -2,16 3,1 20,1 24,1z"/>
    <path class="fil0" d="M84 123l33 0 0 33 -33 0 0 -33zm-7 -10c-4,2 -4,5 -4,10 0,50 -6,44 25,44 4,0 24,1 27,-1 6,-3 3,-18 3,-24 0,-35 4,-30 -25,-30 -5,0 -24,-1 -27,1z"/>
    <polygon class="fil5" points="84,156 117,156 117,123 84,123 "/>
    <polygon class="fil6" points="189,46 277,46 277,35 189,35 "/>
    <path class="fil7" d="M209 161c27,0 23,-2 24,17 2,-2 3,-4 5,-6 2,-2 15,-19 16,-21 -24,0 -26,0 -15,-18 2,-3 4,-7 6,-10l-13 0c-2,0 -21,36 -22,39z"/>
    <polygon class="fil0" points="73,189 128,189 128,178 73,178 "/>
    <path class="fil0" d="M260 244l-11 0 0 11 14 0c5,0 8,-2 8,-8l0 -31 -11 0 0 28z"/>
    <polygon class="fil6" points="40,321 84,321 84,310 40,310 "/>
    <polygon class="fil6" points="249,321 293,321 293,310 249,310 "/>
    <polygon class="fil0" points="73,211 95,211 95,200 73,200 "/>
    <polygon class="fil0" points="106,211 128,211 128,200 106,200 "/>
    <polygon class="fil4" points="40,128 51,128 51,117 40,117 "/>
    <polygon class="fil4" points="40,238 51,238 51,227 40,227 "/>
    <polygon class="fil0" points="205,255 216,255 216,244 205,244 "/>
    <polygon class="fil0" points="227,255 238,255 238,244 227,244 "/>
    <polygon class="fil3" points="255,68 266,68 266,57 255,57 "/>
    <polygon class="fil3" points="200,68 211,68 211,57 200,57 "/>
   </g>
   <g>
    <path class="fil8" d="M74 23l-5 0c-3,-5 -3,-8 -10,-5 -9,4 -5,6 -3,12 -3,2 -4,4 -6,6 -6,-1 -8,-4 -11,4 -3,9 1,7 6,10l0 9c-6,2 -8,4 -5,10 4,8 5,5 11,3 1,1 2,2 3,3 1,1 2,2 3,3 -2,7 -4,8 4,11 6,2 9,0 10,-6l9 0c3,4 2,9 10,5 2,-1 5,-2 5,-4 1,-3 -1,-5 -2,-7 2,-2 4,-4 6,-6 7,2 8,4 11,-4 3,-7 0,-8 -6,-10l0 -9c5,-3 8,-3 5,-11 -3,-8 -5,-5 -11,-3 -2,-2 -4,-4 -6,-6 2,-6 4,-8 -4,-11 -10,-3 -7,1 -10,6l-3 0zm0 15c8,0 15,7 15,15 0,8 -7,15 -15,15 -8,0 -15,-7 -15,-15 0,-8 7,-15 15,-15z"/>
    <circle class="fil9 str0" cx="74" cy="53" r="15"/>
   </g>
  </g>
 </g>
</svg>
