<?xml version="1.0" encoding="UTF-8"?>
<!DOCTYPE svg PUBLIC "-//W3C//DTD SVG 1.1//EN" "http://www.w3.org/Graphics/SVG/1.1/DTD/svg11.dtd">
<!-- Creator: CorelDRAW X5 -->
<svg xmlns="http://www.w3.org/2000/svg" xml:space="preserve" width="0.333331in" height="0.333331in" style="shape-rendering:geometricPrecision; text-rendering:geometricPrecision; image-rendering:optimizeQuality; fill-rule:evenodd; clip-rule:evenodd"
viewBox="0 0 333 333"
 xmlns:xlink="http://www.w3.org/1999/xlink">
 <defs>
  <style type="text/css">
   <![CDATA[
    .fil0 {fill:none}
    .fil10 {fill:#201E1E}
    .fil1 {fill:black}
    .fil6 {fill:#4FC0E8}
    .fil2 {fill:#656D78}
    .fil9 {fill:#999B9D}
    .fil5 {fill:#B4DD7F}
    .fil13 {fill:#C8696B}
    .fil12 {fill:#E1AE6C}
    .fil7 {fill:#E6E9ED}
    .fil3 {fill:#EECEB2}
    .fil11 {fill:#EED286}
    .fil8 {fill:#EF7385}
    .fil4 {fill:#FFE9A7}
    .fil14 {fill:white}
   ]]>
  </style>
 </defs>
 <g id="Layer_x0020_1">
  <metadata id="CorelCorpID_0Corel-Layer"/>
  <g id="_341219880">
   <rect class="fil0" width="333" height="333"/>
   <g>
    <g>
     <path class="fil1" d="M103 11l0 10 -6 0c-7,0 -14,7 -14,14l0 16c-5,0 -13,1 -18,2 -24,5 -44,21 -56,43 -4,7 -8,20 -8,31l0 112c0,10 7,23 14,29 2,2 4,3 6,5 2,2 4,3 7,4 5,2 12,4 19,4 0,7 6,17 11,20 3,3 6,5 10,6 3,1 8,3 13,3l44 0c6,0 12,-5 13,-10 10,0 28,2 31,-10l37 0 0 -70 -41 0 0 -19 134 0c10,0 18,-5 19,-14l0 -152c0,-7 -7,-14 -14,-14l-6 0c0,-19 -1,-20 -16,-20l-5 0c-11,0 -10,13 -10,20l-10 0c0,-19 -1,-20 -17,-20l-4 0c-11,0 -10,13 -10,20l-10 0c0,-19 -1,-20 -18,-20l-3 0c-12,0 -10,14 -10,20l-10 0c0,-19 -1,-20 -18,-20l-3 0c-12,0 -10,14 -10,20l-10 0c0,-19 -1,-20 -18,-20l-3 0c-5,0 -10,4 -10,10z"/>
     <path class="fil2" d="M47 270c1,-21 -3,-28 7,-41 -2,-1 -5,-2 -7,-3 -3,-1 -4,-2 -7,-4 -17,-13 -18,-29 -18,-48 0,-10 -1,-34 1,-42 4,-17 17,-19 22,-22 -1,-4 -3,-8 -2,-12l10 0c1,30 31,25 55,25 7,0 20,1 26,0 -3,-14 -13,-17 -26,-20l2 -9c9,-2 26,7 32,20 5,11 3,35 3,49 0,16 2,33 -5,46 -5,10 -16,20 -30,23 2,3 15,10 19,27 1,6 -1,4 7,8 2,-1 2,-2 4,-3 2,-1 4,-1 5,-2l0 -39 10 0c0,-23 0,-45 0,-67 0,-24 1,-39 -10,-57 -30,-50 -106,-43 -128,10 -7,18 -5,43 -5,63 0,22 -1,46 0,67 1,19 16,33 36,34z"/>
     <path class="fil3" d="M134 131c-16,-2 -57,3 -70,-3 -7,-3 -10,-6 -14,-10 -10,3 -17,9 -18,21 0,13 0,26 0,38 0,15 1,21 8,31 5,6 15,12 27,12 29,1 49,3 62,-17 6,-10 5,-21 5,-34 0,-13 0,-26 0,-38z"/>
     <path class="fil4" d="M146 81l151 0 0 99 -132 0 0 10 1 0 134 0c5,0 7,-1 7,-6l0 -113 -170 0c3,4 6,5 9,10z"/>
     <path class="fil5" d="M93 38c0,15 -1,13 4,14 14,2 24,9 27,9l183 0 0 -23c0,-7 -3,-7 -10,-7 0,18 0,20 -18,20 -14,0 -12,-10 -12,-20l-10 0c0,18 0,20 -18,20 -14,0 -12,-10 -12,-20l-10 0c0,18 0,20 -18,20 -14,0 -12,-10 -12,-20l-10 0c0,18 0,20 -18,20 -14,0 -12,-10 -12,-20l-10 0c0,17 0,20 -18,20 -14,0 -12,-10 -12,-20 -7,0 -10,-1 -10,7z"/>
     <path class="fil6" d="M96 270l-8 13 -8 -5c1,-3 5,-9 7,-11 3,-5 3,-24 -1,-31 -5,-6 -18,-8 -24,1 -3,5 -3,9 -3,15 0,10 -1,25 2,33 3,7 11,14 22,14 11,1 25,0 36,0 8,0 11,1 11,-7 0,-24 2,-22 -14,-22 -6,0 -12,0 -19,0z"/>
     <path class="fil7" d="M154 260l30 0c1,3 0,6 0,10l-16 0 1 9c3,1 21,1 25,0l0 -49c-8,-1 -31,0 -41,0l0 30z"/>
     <path class="fil1" d="M108 180l-51 0c-2,17 10,30 25,30 16,0 28,-13 25,-30z"/>
     <path class="fil2" d="M287 91c-3,-1 -35,-1 -40,0 -1,3 -1,17 0,20 4,1 38,1 41,0 0,-3 0,-11 0,-15 0,-2 0,-3 -1,-5z"/>
     <polygon class="fil7" points="195,168 195,170 236,170 236,151 234,151 195,151 "/>
     <polygon class="fil7" points="195,109 195,111 236,111 236,91 234,91 195,91 "/>
     <polygon class="fil7" points="195,141 236,141 236,121 195,121 "/>
     <polygon class="fil7" points="287,91 246,91 246,111 287,111 "/>
     <polygon class="fil7" points="286,151 247,151 247,170 286,170 "/>
     <polygon class="fil7" points="247,141 286,141 286,121 247,121 "/>
     <path class="fil7" d="M162 111l23 0 0 -20 -31 0c1,3 3,6 5,10 1,3 2,7 4,10z"/>
     <path class="fil1" d="M88 161l10 0 1 -1c1,-4 3,-8 10,-9 6,0 10,4 10,10l10 0c-1,-26 -39,-26 -41,0z"/>
     <path class="fil1" d="M37 161l10 0c1,-6 4,-10 10,-10 4,0 8,2 9,6 2,5 -1,4 11,4 -1,-26 -39,-26 -41,0z"/>
     <polygon class="fil7" points="165,140 185,141 185,121 164,121 "/>
     <polygon class="fil7" points="165,170 185,170 185,168 185,151 165,151 "/>
     <path class="fil3" d="M139 290c4,0 16,1 19,-1 2,-2 2,-15 0,-17 -3,-3 -14,-2 -17,1 -3,4 -2,12 -2,18z"/>
     <path class="fil6" d="M98 246l0 13 20 0c-2,-13 -14,-25 -23,-26 2,4 3,7 3,12z"/>
     <polygon class="fil4" points="277,41 287,41 287,12 277,12 "/>
     <polygon class="fil4" points="195,41 205,41 205,12 195,12 "/>
     <polygon class="fil4" points="114,41 124,41 124,12 114,12 "/>
     <polygon class="fil4" points="154,41 165,41 165,12 154,12 "/>
     <polygon class="fil4" points="236,41 246,41 246,12 236,12 "/>
     <path class="fil8" d="M97 190l-28 0c4,13 24,13 28,0z"/>
     <polygon class="fil1" points="165,250 185,250 185,240 165,240 "/>
     <path class="fil9" d="M247 141l0 -20 40 0 0 19c1,-1 0,1 1,-2l0 -8c0,-3 0,-7 0,-10 -3,-1 -37,-1 -41,0 0,2 -1,18 1,20z"/>
     <path class="fil9" d="M286 151l0 20 -40 0 0 -20c-1,1 -1,-1 -1,4l0 15c4,1 38,1 41,0l0 -17c0,-3 0,-1 -1,-2z"/>
    </g>
    <g>
     <path class="fil10" d="M169 276c0,0 0,0 0,0l8 7 -1 2c-3,0 -10,-1 -12,1 -1,2 -1,12 0,15 1,1 0,1 2,2l10 0 1 2c-1,1 -7,7 -8,8 -1,2 6,7 8,10 2,1 1,2 4,2 1,0 7,-7 8,-8l3 1c0,4 -1,9 1,12l6 0c3,0 10,0 13,0 1,-3 1,-8 1,-12l2 -1c2,1 4,3 5,5 1,1 3,5 6,2 13,-12 12,-9 2,-19l1 -3c4,0 9,1 12,-1 1,-2 1,-14 0,-16 -2,-2 -9,-1 -12,-1 -1,-1 -1,-1 -2,-2 8,-10 11,-6 3,-15 -1,-1 -2,-2 -3,-3 -1,-1 -3,-3 -5,-1 -2,2 -5,5 -7,7 -1,0 -2,0 -3,-1 0,-3 1,-10 -1,-11 -2,-1 -12,0 -15,0 -6,0 -3,7 -4,12 -1,1 -1,1 -2,1 -10,-9 -6,-11 -17,-1 -2,2 -4,3 -4,6z"/>
     <path class="fil10" d="M248 325c3,1 4,-1 6,-2 8,-6 24,-20 30,-25l25 -21c2,-2 4,-3 1,-6 -2,-3 -7,-6 -11,-8 -2,-1 -4,-3 -7,-2 -2,4 2,5 5,6 2,1 6,5 7,5 -9,0 -43,-17 -47,-22 5,0 11,3 16,5 6,3 11,6 15,5 1,-4 -1,-4 -9,-7 -4,-2 -8,-3 -12,-5 -18,-5 -15,-1 -16,14 0,8 -4,61 -3,64z"/>
     <path class="fil11" d="M181 306c11,14 38,8 39,-14 0,-8 -2,-11 -7,-16 -2,-1 -5,-2 -7,-3 -1,-3 0,-8 0,-11l-11 0c0,2 1,9 0,10 -1,2 -1,1 -4,2 -6,3 -4,-1 -11,-6l-6 6c6,7 9,6 6,11 -1,2 -1,3 -2,5 -3,1 -8,0 -11,1l0 8c3,0 9,0 10,0 2,1 2,5 4,6z"/>
     <path class="fil12" d="M214 276c4,5 7,8 7,16 -1,21 -28,27 -39,14 0,4 -6,6 -7,9 2,2 4,4 6,6 5,-3 6,-9 11,-6 7,3 5,0 5,13l11 0c0,-13 -1,-10 5,-13 5,-2 4,0 10,5 1,1 0,0 1,1l6 -6c-1,-2 -6,-5 -7,-8 0,-2 2,-7 3,-7 1,-1 9,0 11,0l0 -9c-4,0 -8,0 -11,0 0,-1 -1,-3 -2,-4 -2,-5 -1,-4 6,-11l-6 -6c-3,3 -6,7 -9,7z"/>
     <path class="fil10" d="M198 280c-8,1 -14,9 -12,18 2,7 9,13 18,12 8,-1 14,-9 12,-18 -1,-7 -9,-14 -18,-12z"/>
     <path class="fil13" d="M255 267c2,1 3,2 5,4 7,4 24,13 31,13 2,0 6,-3 8,-5 1,-1 1,-1 3,-2 0,0 0,0 0,0l-6 -2c-5,-1 -14,-5 -18,-7 -4,-2 -8,-4 -11,-6 -4,-2 -7,-5 -11,-7l-1 12z"/>
     <path class="fil14" d="M198 285c-15,4 -8,24 6,21 5,-1 10,-6 8,-13 -1,-5 -7,-9 -13,-8z"/>
     <path class="fil12" d="M263 295c2,2 5,2 7,3 5,2 5,2 13,-6l4 -3c1,0 1,-1 1,-1 -1,-1 -8,-3 -10,-3 -3,-1 -7,-3 -10,-4 0,1 -2,6 -3,8 -1,1 -1,3 -2,4 0,1 -1,3 -1,3z"/>
     <path class="fil10" d="M289 252c5,2 3,-1 9,-9 7,-10 17,-17 29,-21 3,-1 6,-1 5,-5 -6,-2 -22,8 -27,12 -5,4 -17,17 -16,23z"/>
     <path class="fil11" d="M263 295c0,-1 1,-2 1,-3 1,-1 1,-3 2,-4 1,-2 3,-6 3,-8 -1,-1 -5,-3 -7,-4 -3,-2 -5,-3 -7,-4l-1 18c0,1 6,5 9,5z"/>
     <path class="fil13" d="M252 318l18 -15c-8,-2 -15,-7 -17,-8l-1 23z"/>
     <path class="fil10" d="M301 207c-5,2 -6,6 -5,10 4,9 18,4 15,-5 -1,-3 -5,-6 -10,-5z"/>
     <path class="fil10" d="M322 230c-10,3 -7,17 4,15 4,-1 7,-5 5,-9 -1,-3 -5,-6 -9,-5z"/>
     <path class="fil10" d="M259 225c-5,15 14,15 14,5 0,-5 -4,-7 -4,-8 -2,0 -4,-1 -6,0 -1,0 -2,1 -2,1 -1,1 -1,1 -1,1z"/>
     <path class="fil10" d="M280 239c0,3 -3,4 -1,7 4,1 4,-1 5,-4 3,-7 6,-21 3,-26 -6,-2 -4,6 -4,10 0,3 -1,11 -3,12z"/>
     <path class="fil11" d="M322 235c-4,1 -2,7 2,6 4,-1 2,-8 -2,-6z"/>
     <path class="fil11" d="M302 211c-4,2 -1,8 3,6 4,-2 1,-8 -3,-6z"/>
     <path class="fil11" d="M264 226c-3,2 -1,8 3,5 3,-2 0,-8 -3,-5z"/>
    </g>
   </g>
  </g>
 </g>
</svg>
