<?xml version="1.0" encoding="UTF-8"?>
<!DOCTYPE svg PUBLIC "-//W3C//DTD SVG 1.1//EN" "http://www.w3.org/Graphics/SVG/1.1/DTD/svg11.dtd">
<!-- Creator: CorelDRAW X5 -->
<svg xmlns="http://www.w3.org/2000/svg" xml:space="preserve" width="0.333331in" height="0.333331in" style="shape-rendering:geometricPrecision; text-rendering:geometricPrecision; image-rendering:optimizeQuality; fill-rule:evenodd; clip-rule:evenodd"
viewBox="0 0 333 333"
 xmlns:xlink="http://www.w3.org/1999/xlink">
 <defs>
  <style type="text/css">
   <![CDATA[
    .str0 {stroke:#ED3237;stroke-width:6.94488}
    .fil0 {fill:none}
    .fil10 {fill:#FEFEFE}
    .fil1 {fill:black}
    .fil5 {fill:#3282A1}
    .fil6 {fill:#333331}
    .fil2 {fill:#484946}
    .fil3 {fill:#67BDDE}
    .fil8 {fill:#7D7D79}
    .fil4 {fill:#CDCDC6}
    .fil7 {fill:#E15F4F}
    .fil9 {fill:url(#id0)}
   ]]>
  </style>
  <linearGradient id="id0" gradientUnits="userSpaceOnUse" x1="79.6929" y1="120.228" x2="44.7047" y2="57.0591">
   <stop offset="0" style="stop-color:#ED3237"/>
   <stop offset="1" style="stop-color:#F58634"/>
  </linearGradient>
 </defs>
 <g id="Layer_x0020_1">
  <metadata id="CorelCorpID_0Corel-Layer"/>
  <g id="_176217920">
   <rect class="fil0" width="333" height="333"/>
   <g>
    <g>
     <path class="fil1" d="M4 102l0 129c0,8 6,14 14,14l74 0c0,6 -2,13 -3,19l-37 0c-18,0 -21,21 -15,21l157 0c7,0 3,-21 -15,-21l-37 0c0,-6 -2,-13 -3,-19 17,0 33,0 50,0 15,0 38,4 38,-13l0 -131c0,-7 -7,-12 -11,-12l-200 0c-7,0 -12,6 -12,13z"/>
     <path class="fil2" d="M15 96c-6,2 -4,10 -4,18l0 110c0,18 0,15 29,15 18,0 173,1 176,0 6,-2 4,-11 4,-17l0 -110c0,-18 1,-15 -29,-15 -19,0 -172,-1 -176,1z"/>
     <path class="fil1" d="M29 103c-13,3 -10,17 -10,30l0 80c0,18 7,18 23,18 10,0 155,1 161,-1 12,-3 9,-18 9,-30l0 -80c0,-17 -7,-17 -23,-17 -9,0 -155,-1 -160,0z"/>
     <path class="fil1" d="M233 75l0 194c0,5 1,8 3,10 2,3 5,5 9,5l73 0c7,0 12,-6 12,-13l0 -200c0,-7 -6,-13 -11,-13l-74 0c-8,0 -12,7 -12,15z"/>
     <path class="fil3" d="M200 224c6,0 5,-7 5,-13l0 -90c0,-15 -2,-13 -24,-13 -48,0 -96,1 -144,0l0 115 163 0z"/>
     <path class="fil2" d="M240 270c0,6 2,8 8,8l67 0c9,0 8,-6 8,-14l0 -69c-6,-1 -72,0 -83,0l0 75z"/>
     <polygon class="fil4" points="240,127 320,127 323,127 323,100 321,100 240,100 "/>
     <polygon class="fil4" points="323,188 323,161 240,161 240,188 "/>
     <path class="fil2" d="M240 93l83 0c0,-6 0,-12 0,-17 0,-6 0,-10 -7,-10 -5,0 -64,0 -69,0 -7,0 -7,4 -7,10 0,5 0,12 0,17z"/>
     <path class="fil2" d="M240 154l83 0 0 -20c-5,-1 -81,-1 -83,0l0 20z"/>
     <path class="fil5" d="M200 224l-163 0 0 -115c-15,0 -12,2 -12,26l0 76c0,17 0,14 24,14 14,0 149,1 151,-1z"/>
     <polygon class="fil6" points="245,123 316,123 318,123 318,104 316,104 245,104 "/>
     <polygon class="fil6" points="245,184 318,184 318,165 245,165 "/>
     <path class="fil2" d="M41 279l149 0c-1,-6 -6,-8 -13,-8l-123 0c-7,0 -11,2 -13,8z"/>
     <path class="fil6" d="M96 264l39 0c0,-3 -1,-7 -1,-10 -1,-4 0,-10 -3,-10l-32 0 -3 20z"/>
     <path class="fil1" d="M288 238c0,21 -4,17 22,17 7,0 5,-3 5,-17 0,-7 -4,-5 -22,-5 -4,0 -5,1 -5,5z"/>
     <polygon class="fil7" points="295,249 309,249 309,240 295,240 "/>
     <path class="fil2" d="M323 188l1 -1c0,-1 0,-1 0,-2 0,-5 0,-23 -1,-26 -6,-1 -62,0 -78,0 -1,0 -2,0 -3,0 0,0 -1,0 -1,0 -1,0 -1,0 -2,1l83 0 0 28z"/>
     <path class="fil8" d="M245 184l0 -19 72 0 0 19c1,-1 0,0 1,-1 0,-1 0,-2 0,-3 0,-4 0,-12 0,-15 -5,-1 -71,-1 -73,0l0 17c0,2 0,1 1,2z"/>
    </g>
    <g>
     <path class="fil9" d="M62 56l-6 0c-3,-6 -4,-9 -11,-6 -10,5 -5,6 -4,13 -3,2 -4,4 -7,6 -7,-2 -9,-4 -12,4 -4,10 1,8 6,11l0 10c-6,2 -9,4 -5,11 4,9 5,6 12,4 1,1 2,2 3,3 1,1 2,2 4,3 -2,8 -4,9 5,12 6,2 10,0 11,-6l10 0c3,5 2,10 11,5 2,-1 5,-2 6,-5 1,-3 -1,-5 -2,-8 2,-2 5,-4 6,-7 8,2 9,4 12,-4 3,-8 0,-9 -6,-11l0 -10c6,-4 9,-3 5,-12 -4,-8 -5,-6 -13,-3 -2,-3 -4,-4 -7,-6 2,-7 4,-9 -4,-12 -10,-4 -8,1 -12,6l-4 0zm0 17c9,0 16,7 16,16 0,9 -7,16 -16,16 -9,0 -16,-7 -16,-16 0,-9 7,-16 16,-16z"/>
     <circle class="fil10 str0" cx="62" cy="89" r="16"/>
    </g>
   </g>
  </g>
 </g>
</svg>
